<svg width="25" height="24" viewBox="0 0 25 24" fill="none" xmlns="http://www.w3.org/2000/svg">
<mask id="mask0_146052_14159" style="mask-type:alpha" maskUnits="userSpaceOnUse" x="0" y="0" width="25" height="24">
<rect x="0.919922" width="24" height="24" fill="#D9D9D9"/>
</mask>
<g mask="url(#mask0_146052_14159)">
<path d="M12.9199 22C11.5366 22 10.2366 21.7375 9.01992 21.2125C7.80326 20.6875 6.74492 19.975 5.84492 19.075C4.94492 18.175 4.23242 17.1167 3.70742 15.9C3.18242 14.6833 2.91992 13.3833 2.91992 12C2.91992 10.6167 3.18242 9.31667 3.70742 8.1C4.23242 6.88333 4.94492 5.825 5.84492 4.925C6.74492 4.025 7.80326 3.3125 9.01992 2.7875C10.2366 2.2625 11.5366 2 12.9199 2C13.6699 2 14.3991 2.07917 15.1074 2.2375C15.8158 2.39583 16.4866 2.625 17.1199 2.925C17.0533 3.09167 17.0033 3.26667 16.9699 3.45C16.9366 3.63333 16.9199 3.81667 16.9199 4C16.9199 4.23333 16.9449 4.45417 16.9949 4.6625C17.0449 4.87083 17.1116 5.06667 17.1949 5.25C16.5783 4.86667 15.9116 4.5625 15.1949 4.3375C14.4783 4.1125 13.7199 4 12.9199 4C10.7033 4 8.81576 4.77917 7.25742 6.3375C5.69909 7.89583 4.91992 9.78333 4.91992 12C4.91992 14.2167 5.69909 16.1042 7.25742 17.6625C8.81576 19.2208 10.7033 20 12.9199 20C15.1366 20 17.0241 19.2208 18.5824 17.6625C20.1408 16.1042 20.9199 14.2167 20.9199 12C20.9199 11.3333 20.8408 10.6917 20.6824 10.075C20.5241 9.45833 20.3033 8.875 20.0199 8.325C20.2866 8.54167 20.5783 8.70833 20.8949 8.825C21.2116 8.94167 21.5533 9 21.9199 9C22.0033 9 22.0908 8.99583 22.1824 8.9875C22.2741 8.97917 22.3616 8.96667 22.4449 8.95C22.5949 9.43333 22.7116 9.92917 22.7949 10.4375C22.8783 10.9458 22.9199 11.4667 22.9199 12C22.9199 13.3833 22.6574 14.6833 22.1324 15.9C21.6074 17.1167 20.8949 18.175 19.9949 19.075C19.0949 19.975 18.0366 20.6875 16.8199 21.2125C15.6033 21.7375 14.3033 22 12.9199 22ZM16.4199 11C16.8533 11 17.2116 10.8583 17.4949 10.575C17.7783 10.2917 17.9199 9.93333 17.9199 9.5C17.9199 9.06667 17.7783 8.70833 17.4949 8.425C17.2116 8.14167 16.8533 8 16.4199 8C15.9866 8 15.6283 8.14167 15.3449 8.425C15.0616 8.70833 14.9199 9.06667 14.9199 9.5C14.9199 9.93333 15.0616 10.2917 15.3449 10.575C15.6283 10.8583 15.9866 11 16.4199 11ZM9.41992 11C9.85326 11 10.2116 10.8583 10.4949 10.575C10.7783 10.2917 10.9199 9.93333 10.9199 9.5C10.9199 9.06667 10.7783 8.70833 10.4949 8.425C10.2116 8.14167 9.85326 8 9.41992 8C8.98659 8 8.62826 8.14167 8.34492 8.425C8.06159 8.70833 7.91992 9.06667 7.91992 9.5C7.91992 9.93333 8.06159 10.2917 8.34492 10.575C8.62826 10.8583 8.98659 11 9.41992 11ZM12.9199 17.5C14.1033 17.5 15.1491 17.175 16.0574 16.525C16.9658 15.875 17.6199 15.0333 18.0199 14H7.81992C8.21992 15.0333 8.87409 15.875 9.78242 16.525C10.6908 17.175 11.7366 17.5 12.9199 17.5ZM20.9199 5H19.9199C19.6366 5 19.3991 4.90417 19.2074 4.7125C19.0158 4.52083 18.9199 4.28333 18.9199 4C18.9199 3.71667 19.0158 3.47917 19.2074 3.2875C19.3991 3.09583 19.6366 3 19.9199 3H20.9199V2C20.9199 1.71667 21.0158 1.47917 21.2074 1.2875C21.3991 1.09583 21.6366 1 21.9199 1C22.2033 1 22.4408 1.09583 22.6324 1.2875C22.8241 1.47917 22.9199 1.71667 22.9199 2V3H23.9199C24.2033 3 24.4408 3.09583 24.6324 3.2875C24.8241 3.47917 24.9199 3.71667 24.9199 4C24.9199 4.28333 24.8241 4.52083 24.6324 4.7125C24.4408 4.90417 24.2033 5 23.9199 5H22.9199V6C22.9199 6.28333 22.8241 6.52083 22.6324 6.7125C22.4408 6.90417 22.2033 7 21.9199 7C21.6366 7 21.3991 6.90417 21.2074 6.7125C21.0158 6.52083 20.9199 6.28333 20.9199 6V5Z" fill="black"/>
</g>
</svg>
