<?xml version='1.0' encoding='utf-8'?>
<svg xmlns="http://www.w3.org/2000/svg" enable-background="new 0 0 40.833 52.176" viewBox="0 0 40.833 52.176"> <defs> <linearGradient id="a" x1="36.186" x2="4.019" y1="36.454" y2="14.454" gradientUnits="userSpaceOnUse"> <stop stop-color="#303032" offset=".0056"/> <stop stop-color="#323234" offset=".1355"/> <stop stop-color="#39393b" offset=".1823"/> <stop stop-color="#444446" offset=".2157"/> <stop stop-color="#555557" offset=".2427"/> <stop stop-color="#6b6b6d" offset=".2658"/> <stop stop-color="#868788" offset=".2863"/> <stop stop-color="#a6a7a8" offset=".3048"/> <stop stop-color="#cacbcb" offset=".3212"/> <stop stop-color="#d6d7d7" offset=".3258"/> <stop stop-color="#c0c1c1" offset=".3324"/> <stop stop-color="#9c9d9d" offset=".3452"/> <stop stop-color="#7c7d7d" offset=".3597"/> <stop stop-color="#616162" offset=".3756"/> <stop stop-color="#4b4b4c" offset=".3937"/> <stop stop-color="#3a3a3b" offset=".4147"/> <stop stop-color="#2f2f30" offset=".4408"/> <stop stop-color="#282829" offset=".4773"/> <stop stop-color="#262627" offset=".5787"/> <stop stop-color="#9d9e9f" offset=".7528"/> <stop stop-color="#999a9b" offset=".7542"/> <stop stop-color="#757676" offset=".767"/> <stop stop-color="#555657" offset=".7812"/> <stop stop-color="#3b3b3b" offset=".7972"/> <stop stop-color="#252525" offset=".8152"/> <stop stop-color="#141414" offset=".8362"/> <stop stop-color="#090909" offset=".8622"/> <stop stop-color="#020202" offset=".8987"/> <stop offset="1"/> </linearGradient> <radialGradient id="p" cx="25.166" cy="25.933" r="23.359" gradientTransform="matrix(1 0 0 -1 .0376 51.022)" gradientUnits="userSpaceOnUse"> <stop stop-color="#fff200" offset="0"/> <stop stop-color="#006e3a" offset="1"/> </radialGradient> <radialGradient id="o" cx="2.6328" cy="38.792" r="4.2551" gradientTransform="matrix(.9995 -.0318 -.0318 -.9995 13.709 43.142)" gradientUnits="userSpaceOnUse"> <stop stop-color="#fff200" offset="0"/> <stop stop-color="#006e3a" offset="1"/> </radialGradient> <radialGradient id="n" cx="15.944" cy="38.396" r="4.2555" gradientTransform="matrix(.9995 -.0318 -.0318 -.9995 13.709 43.142)" gradientUnits="userSpaceOnUse"> <stop stop-color="#fff200" offset="0"/> <stop stop-color="#006e3a" offset="1"/> </radialGradient> <radialGradient id="m" cx="40.916" cy="20.745" r="8.752" gradientTransform="matrix(-.8442 .0148 -.0175 -.9998 55.477 59.795)" gradientUnits="userSpaceOnUse"> <stop stop-color="#ede9c8" offset=".0112"/> <stop stop-color="#fff" offset=".5562"/> <stop stop-color="#cbcdce" offset="1"/> </radialGradient> <radialGradient id="l" cx="29.118" cy="19.057" r=".6743" gradientTransform="matrix(-.8442 .0148 -.0175 -.9998 55.477 59.795)" gradientUnits="userSpaceOnUse"> <stop stop-color="#ede9c8" offset=".0112"/> <stop stop-color="#fff" offset=".5562"/> <stop stop-color="#cbcdce" offset="1"/> </radialGradient> <radialGradient id="k" cx="41.147" cy="18.857" r=".6242" gradientTransform="matrix(-.8442 .0148 -.0175 -.9998 55.477 59.795)" gradientUnits="userSpaceOnUse"> <stop stop-color="#ede9c8" offset=".0112"/> <stop stop-color="#fff" offset=".5562"/> <stop stop-color="#cbcdce" offset="1"/> </radialGradient> <radialGradient id="j" cx="45.471" cy="18.725" r=".5044" gradientTransform="matrix(-.8442 .0148 -.0175 -.9998 55.477 59.795)" gradientUnits="userSpaceOnUse"> <stop stop-color="#ede9c8" offset=".0112"/> <stop stop-color="#fff" offset=".5562"/> <stop stop-color="#cbcdce" offset="1"/> </radialGradient> <radialGradient id="i" cx="36.309" cy="18.294" r=".5217" gradientTransform="matrix(-.8442 .0148 -.0175 -.9998 55.477 59.795)" gradientUnits="userSpaceOnUse"> <stop stop-color="#ede9c8" offset=".0112"/> <stop stop-color="#fff" offset=".5562"/> <stop stop-color="#cbcdce" offset="1"/> </radialGradient> <radialGradient id="h" cx="20.702" cy="38.474" r="8.7449" gradientTransform="matrix(.9998,-.0212,.0212,.9998,-.7413,.4135)" gradientUnits="userSpaceOnUse"> <stop stop-color="#ede9c8" offset=".0112"/> <stop stop-color="#fff" offset=".5562"/> <stop stop-color="#cbcdce" offset="1"/> </radialGradient> <radialGradient id="g" cx="29.064" cy="38.143" r=".571" gradientTransform="matrix(.9998,-.0212,.0212,.9998,-.7413,.4135)" gradientUnits="userSpaceOnUse"> <stop stop-color="#ede9c8" offset=".0112"/> <stop stop-color="#fff" offset=".5562"/> <stop stop-color="#cbcdce" offset="1"/> </radialGradient> <radialGradient id="f" cx="9.103" cy="36.279" r=".6739" gradientTransform="matrix(.9998,-.0212,.0212,.9998,-.7413,.4135)" gradientUnits="userSpaceOnUse"> <stop stop-color="#ede9c8" offset=".0112"/> <stop stop-color="#fff" offset=".5562"/> <stop stop-color="#cbcdce" offset="1"/> </radialGradient> <radialGradient id="e" cx="21.13" cy="36.08" r=".6242" gradientTransform="matrix(.9998,-.0212,.0212,.9998,-.7413,.4135)" gradientUnits="userSpaceOnUse"> <stop stop-color="#ede9c8" offset=".0112"/> <stop stop-color="#fff" offset=".5562"/> <stop stop-color="#cbcdce" offset="1"/> </radialGradient> <radialGradient id="d" cx="25.456" cy="35.946" r=".5041" gradientTransform="matrix(.9998,-.0212,.0212,.9998,-.7413,.4135)" gradientUnits="userSpaceOnUse"> <stop stop-color="#ede9c8" offset=".0112"/> <stop stop-color="#fff" offset=".5562"/> <stop stop-color="#cbcdce" offset="1"/> </radialGradient> <radialGradient id="c" cx="16.294" cy="35.516" r=".522" gradientTransform="matrix(.9998,-.0212,.0212,.9998,-.7413,.4135)" gradientUnits="userSpaceOnUse"> <stop stop-color="#ede9c8" offset=".0112"/> <stop stop-color="#fff" offset=".5562"/> <stop stop-color="#cbcdce" offset="1"/> </radialGradient> <radialGradient id="b" cx="15.916" cy="39.172" r=".9149" gradientUnits="userSpaceOnUse"> <stop stop-color="#ede9c8" offset=".0112"/> <stop stop-color="#fff" offset=".5562"/> <stop stop-color="#cbcdce" offset="1"/> </radialGradient> </defs> <path d="m38.745 49.074a18.429 2.184 0 1 0-36.858 0 18.429 2.184 0 1 0 36.858 0" fill="#bcbec0" opacity=".75"/> <path d="m26.2,13.206c7.242,2.291 12.492,9.066 12.492,17.067 0,9.884-8.013,17.896-17.896,17.896s-17.896-8.012-17.896-17.896c0-8.284 5.627-15.253 13.268-17.292l.102-.391c-.454-.588-1.62-3.587-1.812-3.582-2.073.066-3.807-1.561-3.873-3.634s1.561-3.806 3.633-3.873 3.808,1.561 3.873,3.635c.04,1.251-.539,2.38-1.458,3.092-.134.103 1.004,3.276 1.128,3.987l.653.317c.78-.104 1.575-.157 2.382-.157 1.093,0 2.164.098 3.203.286l.686-.286c.072-.708.98-3.961.841-4.058-.949-.653-1.586-1.734-1.626-2.974-.065-2.073 1.562-3.807 3.634-3.873s3.807,1.561 3.873,3.633-1.561,3.807-3.634,3.873c-.198.006-1.317,3.099-1.757,3.771l.184.459z" fill="#8cc63f" stroke="#006031" stroke-width=".4831"/> <path d="m38.054 30.352a17.338 17.338 0 1 0-34.676 0 17.338 17.338 0 1 0 34.676 0" fill="url(#p)" stroke="#28903a" stroke-width=".4831"/> <path d="m17.479 5.272a3.159 3.159 0 1 0-6.318 0 3.159 3.159 0 1 0 6.318 0" fill="url(#o)" opacity=".5"/> <path d="m30.796 5.242a3.159 3.159 0 1 0-6.318 0 3.159 3.159 0 1 0 6.318 0" fill="url(#n)" opacity=".41"/> <path d="m30.031,41.768c-2.104,2.249-7.452.568-9.854.511-2.54-.062-8.655,1.835-9.646-1.845 .827-1.29 2.478-3.165 3.896-3.845 .928-.444.64.02 1.658.546 1.111.574 2.382.37 3.552.241 .924-.102 1.672-.022 2.61.045 1.571.113 2.182-.231 3.496-.795 1.611-.692 2.899-.776 3.791.776 .569.993 1.536,2.703.89,3.831-.114.2-.246.377-.393.535z" fill="url(#m)" stroke="#f6921d" stroke-linecap="round" stroke-width=".4215"/> <path d="m30.437,42.111 .248-1.882" fill="url(#l)" stroke="#f6921d" stroke-linecap="round" stroke-width=".4215"/> <path d="m20.425,42.429-.031-1.764" fill="url(#k)" stroke="#f6921d" stroke-linecap="round" stroke-width=".4215"/> <path d="m16.772,42.457-.023-1.426" fill="url(#j)" stroke="#f6921d" stroke-linecap="round" stroke-width=".4215"/> <path d="m24.516,42.777-.025-1.476" fill="url(#i)" stroke="#f6921d" stroke-linecap="round" stroke-width=".4215"/> <path d="m9.314,35.679c.153-.029.353-.057.611-.091 3.079-.408 5.643-.754 8.737-.55 2.902.191 5.822-.06 8.731.189 1.706.146 3.453.477 5.161.049-.141,2.571-.586,4.366-2.602,6.066-.199.168-.522.476-.806.473-.543.001-.344-.236-.291-.682 .209-1.766-.262-2.975-.769-4.645-.892.922-1.822,1.968-2.516,3.049 .023-.242-.021-.493.012-.732 .059.396-.11.574-.196.92-1.061.059-4.084.83-4.313-.754-.006.127-.026.31-.017.426-1.143.224-3.802.133-4.786-.547-.308-.212-1.86-2.395-1.644-2.743-.264.395-3.134,5.806-1.956,6.018-.678-.118-1.73-1.235-2.141-1.754-.774-.978-1.181-2.221-1.448-3.449-.203-.948-.434-1.115.233-1.243z" fill="url(#h)" stroke="#f6921d" stroke-linecap="round" stroke-width=".4587"/> <path d="m29.446,37.191-.642,1.483" fill="url(#g)" stroke="#f6921d" stroke-linecap="round" stroke-width=".4587"/> <path d="m9.276,35.55-.293,1.884" fill="url(#f)" stroke="#f6921d" stroke-linecap="round" stroke-width=".4587"/> <path d="m21.131,35.156 .038,1.764" fill="url(#e)" stroke="#f6921d" stroke-linecap="round" stroke-width=".4587"/> <path d="m25.458,35.101 .03,1.425" fill="url(#d)" stroke="#f6921d" stroke-linecap="round" stroke-width=".4587"/> <path d="m16.288,34.839 .031,1.476" fill="url(#c)" stroke="#f6921d" stroke-linecap="round" stroke-width=".4587"/> <path d="m15.583,37.922c.135.858.512,1.663.667,2.5" fill="url(#b)" stroke="#f6921d" stroke-linecap="round" stroke-width=".4215"/> <path d="m23.558,17.589c4.698-.011 9.438.471 13.991,1.629 4.407,1.121 2.572,9.223.367,11.537-.937.982-1.726,1.561-3.102,1.712-2.853.313-5.504-.753-8.082-1.794-2.027-.819-4.777-2.081-6.98-2.085-3.062-.006-5.089,1.246-7.669,2.671-2.763,1.526-7.306,3.206-9.796.213-1.29-1.552-1.769-3.646-1.79-5.624-.016-1.482-.18-3.459.827-4.748 1.286-1.645 4.236-1.917 6.132-2.295 5.294-1.055 10.721-1.204 16.102-1.216z" fill="url(#a)" stroke="#535453"/> <path d="m18.565,34.831c-.404.006-.81.021-1.216.046-2.967.188-5.934.545-8.912.404 .169.002 1.082,3.408 1.22,3.795 1.342,3.738 4.067,4.264 7.755,3.847 1.761-.199 3.514-.156 5.269-.007 2.035.173 4.862,1.02 6.816-.108 2.151-1.242 3.398-5.234 3.394-7.535-2.535.864-5.395-.344-8.004-.31-2.134.027-4.217-.165-6.322-.132z" fill="none" stroke="#1e3319" stroke-width=".5797"/> <path d="m18.25,45.088c1.534-.384 2.158-.512 3.5,0" fill="none" stroke="#1e3319" stroke-width=".5797"/> <path d="m25.295,43.367c.582-.964.95-2.121 1.4-3.161 .209-.483.339-1.339.888-1.45 .246,1.117.323,2.463.69,3.498 .103-1.285-.572-2.688-.343-3.955 .286-1.583 2.907-2.931 4.079-3.778-1.412.5-3.056,1.616-4.078,2.64 .011-1.308.717-2.661.868-3.919-.401.993-.666,3.063-1.503,3.729-.162-.827-.699-1.433-1.159-2.124-.566-.854-.96-1.771-1.612-2.565 .01.896 1.103,2.308 1.513,3.159 .307.637.643,1.283.781,1.96-.146.236-2.313-.067-2.656-.085 1.063.053 1.474.979 2.515,1.031-.172.812-.423,1.485-.548,2.298-.118.772-.428,2.048-.835,2.722z" fill="#fff" opacity=".31"/> <path d="m22.674,39.661c1.068-.354 2.101-.994 3.118-1.492 .474-.231 1.128-.798 1.617-.525-.539,1.009-1.354,2.082-1.748,3.107 .913-.91 1.313-2.415 2.31-3.229 1.246-1.018 4.114-.339 5.556-.221-1.398-.538-3.373-.758-4.814-.645 .857-.986 2.273-1.557 3.206-2.414-.95.494-2.497,1.896-3.565,1.856 .415-.733.4-1.543.5-2.367 .124-1.017.421-1.971.441-2.998-.575.688-.662,2.471-.903,3.385-.181.683-.346,1.393-.68,1.997-.266.084-1.715-1.555-1.964-1.791 .774.731.484,1.701 1.241,2.418-.658.506-1.287.854-1.91,1.391-.593.512-1.658,1.28-2.405,1.528z" fill="#fff" opacity=".31"/> </svg>