<?xml version='1.0' encoding='utf-8'?>
<svg xmlns="http://www.w3.org/2000/svg" enable-background="new 0 0 415.116 398.837" version="1.1" viewBox="0 0 415.12 398.84"> <linearGradient id="a" x1="189.78" x2="489.79" y1="682.83" y2="682.83" gradientTransform="matrix(-.0442 .999 -.999 -.0442 910.17 -132.77)" gradientUnits="userSpaceOnUse"> <stop stop-color="#F05A28" offset="0"/> <stop stop-color="#FFF100" offset="1"/> </linearGradient> <path d="m206.37 326.35c-83.038-3.676-147.38-73.746-143.72-156.51 3.662-82.762 73.946-146.88 156.98-143.2 83.037 3.675 147.38 73.745 143.72 156.51-3.662 82.761-73.945 146.87-156.98 143.2z" fill="url(#a)" stroke="#FFF100" stroke-miterlimit="10"/> <path d="m243.17 157.39c-0.043-3.656 16.719 3.1 37.289 2.847s37.146-3.635 37.146-3.635c0.166 13.463-16.383 19.081-36.953 19.335-20.57 0.253-37.316-5.085-37.482-18.547z" fill="#3B2314" stroke="#3B2314" stroke-miterlimit="10" stroke-width=".75"/> <path d="m313.25 87.791c1.879 3.136-18.9 7.5-40.113 20.244-21.213 12.745-36.707 25.762-36.707 25.762-6.936-11.542 7.41-26.476 28.621-39.222 21.211-12.743 41.264-18.325 48.199-6.784z" fill="#3B2314" stroke="#3B2314" stroke-miterlimit="10" stroke-width=".75"/> <path d="m113.96 87.791c-1.88 3.136 18.9 7.5 40.112 20.244 21.213 12.745 36.708 25.762 36.708 25.762 6.936-11.542-7.41-26.476-28.621-39.222-21.211-12.743-41.264-18.325-48.199-6.784z" fill="#3B2314" stroke="#3B2314" stroke-miterlimit="10" stroke-width=".75"/> <path d="m111.5 157.39c-0.044-3.656 16.718 3.1 37.288 2.847 20.571-0.253 37.146-3.635 37.146-3.635 0.166 13.463-16.383 19.081-36.953 19.335-20.57 0.253-37.315-5.085-37.481-18.547z" fill="#3B2314" stroke="#3B2314" stroke-miterlimit="10" stroke-width=".75"/> <path d="m283.82 251.77c0 10.34-27.395-12.695-66.764-12.695-39.371 0-77.881 22.959-77.881 12.619 0-10.342 35.685-21.693 75.055-21.693 39.369 0 69.59 11.427 69.59 21.769z" fill="#3B2314"/> <path d="m283.82 249.36c-0.206 5.127-8.417 1.284-10.837 0.401-9.234-3.371-18.292-7-27.828-9.484-26.63-6.938-52.703-2.268-78.558 5.501-7.574 2.276-16.076 6.163-24.119 6.086-0.875-8e-3 -1.716-0.207-2.448-0.69-0.297-0.196-0.471-0.511-0.633-0.814-0.917-1.712-0.575 4.562 0.032 2.329 0.79-2.908 3.967-4.985 6.333-6.489 9.09-5.78 20.565-8.253 30.982-10.271 14.783-2.864 29.961-3.778 44.994-3.287 14.59 0.477 29.396 2.559 43.25 7.272 5.975 2.033 18.463 6.365 18.833 14.269-0.055-1.177 0.084-3.316 0.014-4.822-0.284-6.066-7.655-9.64-12.37-11.861-10.521-4.956-22.414-7.146-33.863-8.605-27.158-3.462-57.333-1.669-83.11 8.109-4.622 1.753-14.944 5.574-15.287 11.78-0.206 3.731-1.03 8.04 3.828 8.087 8.197 0.078 17.19-4.176 24.902-6.493 12.731-3.825 25.648-7.013 38.903-8.317 19.163-1.886 37.835 2.171 55.736 8.753 2.838 1.044 20.976 10.463 21.261 3.37 0.059-1.509-0.062-3.646-0.015-4.824z" fill="#3B2314"/> <path d="m263.93 292.23c2.289-9.846 11.438-13.785 20.018-14.441 5.146 0 8.006-0.656 11.438 3.939 2.287 2.625 2.859 8.533 4.574 10.502 6.291 5.91 15.441 0.658 20.016 13.787 5.148 13.129 1.717 17.725-8.578 19.693 8.008 24.291-25.162 35.451-34.312 17.068-8.006 17.725-27.451 1.971-20.588-12.473-9.15-3.281-14.297 1.969-17.156-9.189-2.859-10.504 1.715-13.787 5.146-19.695 0.572-0.656 3.432-4.596 4.004-5.252 1.715-3.281-0.572-5.908 3.43-8.533 5.148-3.283 9.723 0 11.439 5.252" fill="#fff"/> <path d="m266.34 292.89c2.685-9.844 12.177-12.656 21.365-12.633 5.172 0.013 6.835 4.646 8.15 8.841 1.007 3.215 2.281 5.263 5.216 6.982 2.278 1.335 5.022 1.79 7.554 2.391 4.668 1.106 7.22 3.721 8.938 8.206 1.349 3.519 3.368 8.352 1.755 12.104-1.346 3.129-5.652 3.907-8.587 4.513-1.309 0.271-2.124 1.836-1.746 3.076 2.728 8.934-0.259 17.17-8.764 21.355-7.623 3.752-16.953 1.349-20.979-6.214-0.845-1.587-3.496-1.673-4.316 0-2.617 5.337-6.924 8.536-12.45 4.93-4.786-3.124-5.951-9.919-3.821-14.879 0.65-1.513 0.178-3.13-1.493-3.673-3.912-1.269-8.805-0.427-12.45-2.074-2.355-1.063-2.845-4.894-3.369-7.054-0.833-3.429-0.354-6.725 1.285-9.803 1.988-3.732 4.7-7.159 7.235-10.528 1.05-1.395 1.684-2.827 1.824-4.615 0.54-6.833 7.242-5.529 9.262-0.268 1.144 2.978 5.979 1.686 4.822-1.33-2.975-7.744-10.017-10.858-16.845-5.369-2.775 2.231-1.056 6.024-2.907 8.44-2.135 2.785-4.094 5.618-6.054 8.523-4.763 7.061-4.902 14.476-1.482 22.273 2.987 6.809 11.596 4.759 17.349 6.626-0.497-1.225-0.995-2.449-1.493-3.673-3.43 7.985-1.343 16.438 5.614 21.72 7.449 5.655 15.738 0.521 19.29-6.724h-4.316c5.158 9.691 16.546 12.513 26.413 8.617 11.385-4.493 15.935-16.256 12.469-27.612-0.582 1.025-1.164 2.051-1.746 3.076 8.892-1.838 13.886-6.711 12.354-16.1-0.828-5.079-3.059-10.718-6.655-14.458-2.97-3.088-7.4-3.749-11.344-4.757-6.002-1.535-5.709-6.734-8.236-11.462-2.411-4.512-6.852-6.074-11.636-6.086-11.089-0.029-21.927 4.946-25.026 16.306-0.852 3.119 3.972 4.44 4.82 1.333z" fill="#97B6DF"/> <path d="m124.07 292.23c2.288-9.846 11.438-13.785 20.017-14.441 5.146 0 8.006-0.656 11.438 3.939 2.288 2.625 2.859 8.533 4.575 10.502 6.291 5.91 15.441 0.658 20.016 13.787 5.147 13.129 1.716 17.725-8.578 19.693 8.007 24.291-25.163 35.451-34.313 17.068-8.006 17.725-27.45 1.971-20.588-12.473-9.15-3.281-14.297 1.969-17.156-9.189-2.859-10.504 1.716-13.787 5.146-19.695 0.572-0.656 3.432-4.596 4.004-5.252 1.716-3.281-0.572-5.908 3.431-8.533 5.147-3.283 9.723 0 11.438 5.252" fill="#fff"/> <path d="m126.48 292.89c2.685-9.843 12.176-12.656 21.364-12.633 5.172 0.013 6.836 4.646 8.151 8.841 1.007 3.215 2.282 5.263 5.217 6.982 2.278 1.335 5.022 1.79 7.553 2.391 4.668 1.106 7.22 3.721 8.938 8.206 1.348 3.519 3.367 8.352 1.753 12.104-1.345 3.129-5.652 3.907-8.585 4.513-1.309 0.271-2.125 1.836-1.746 3.076 2.727 8.934-0.26 17.17-8.765 21.355-7.623 3.752-16.954 1.349-20.979-6.214-0.845-1.587-3.497-1.673-4.317 0-2.617 5.337-6.923 8.536-12.449 4.93-4.786-3.124-5.951-9.919-3.821-14.879 0.649-1.513 0.177-3.13-1.494-3.673-3.912-1.269-8.805-0.427-12.45-2.074-2.355-1.063-2.845-4.894-3.37-7.054-0.833-3.43-0.353-6.725 1.287-9.803 1.988-3.732 4.699-7.159 7.234-10.528 1.05-1.395 1.684-2.827 1.825-4.615 0.541-6.833 7.242-5.53 9.262-0.268 1.143 2.978 5.979 1.686 4.821-1.33-2.973-7.745-10.015-10.857-16.843-5.369-2.775 2.231-1.056 6.024-2.908 8.44-2.134 2.785-4.094 5.618-6.053 8.523-4.763 7.062-4.903 14.476-1.482 22.273 2.986 6.809 11.595 4.759 17.349 6.626-0.498-1.225-0.996-2.449-1.494-3.673-3.429 7.985-1.342 16.438 5.615 21.72 7.449 5.655 15.738 0.521 19.29-6.724h-4.317c5.158 9.691 16.546 12.513 26.414 8.617 11.385-4.493 15.935-16.256 12.469-27.612-0.582 1.025-1.164 2.051-1.746 3.076 8.892-1.838 13.885-6.711 12.354-16.1-0.828-5.08-3.058-10.718-6.654-14.458-2.97-3.088-7.401-3.749-11.344-4.757-6.003-1.535-5.71-6.734-8.237-11.462-2.412-4.512-6.852-6.074-11.636-6.086-11.089-0.029-21.927 4.946-25.025 16.306-0.852 3.119 3.971 4.44 4.819 1.333z" fill="#97B6DF"/> <path d="m273.32 293.36c-9.631-16.643-16.051-38.041-24.611-56.27-6.955-13.473-13.91-29.322-20.332-43.588-1.604 22.189 7.49 45.967 12.842 65.779 3.744 15.059 9.096 30.115 13.91 44.381" fill="#fff"/> <path d="m275.47 292.1c-8.744-15.369-14.294-32.275-21.153-48.512-7.323-17.334-16.064-34.168-23.79-51.346-1.102-2.45-4.523-0.986-4.658 1.262-1.104 18.413 4.121 36.33 9.29 53.799 5.656 19.113 11.161 38.132 17.551 57.026 1.027 3.037 5.857 1.733 4.822-1.33-6.21-18.358-11.584-36.826-17.07-55.399-5.198-17.599-10.705-35.531-9.593-54.096-1.553 0.421-3.105 0.841-4.658 1.262 7.729 17.188 16.363 34.042 23.789 51.346 6.958 16.214 12.396 33.12 21.154 48.512 1.593 2.801 5.914 0.283 4.316-2.524z" fill="#AAC1E4"/> <path d="m140.53 287c9.631-16.643 16.051-38.041 24.611-56.268 6.955-13.475 13.91-29.324 20.331-43.589 1.604 22.191-7.49 45.966-12.841 65.779-3.745 15.059-9.096 30.117-13.91 44.381" fill="#fff"/> <path d="m142.69 288.26c8.748-15.375 14.293-32.271 21.154-48.511 7.323-17.333 16.064-34.168 23.789-51.346-1.553-0.42-3.106-0.841-4.659-1.262 1.113 18.559-4.384 36.504-9.592 54.095-5.498 18.57-10.86 37.041-17.069 55.399-1.036 3.063 3.794 4.367 4.821 1.33 6.391-18.895 11.893-37.914 17.551-57.026 5.171-17.467 10.394-35.387 9.29-53.798-0.135-2.248-3.557-3.712-4.659-1.262-7.729 17.188-16.362 34.042-23.789 51.346-6.957 16.21-12.4 33.125-21.154 48.511-1.597 2.808 2.723 5.326 4.317 2.524z" fill="#AAC1E4"/> </svg>