<?xml version='1.0' encoding='utf-8'?>
<svg xmlns="http://www.w3.org/2000/svg" viewBox="0 0 64 64"> <defs> <linearGradient id="g" x1="-.001026" x2="1.0011" y1=".50002" y2=".50002"> <stop stop-color="#28292b" offset="0"/> <stop stop-color="#1a2334" offset="1"/> </linearGradient> <linearGradient id="f" x1="-.036709" x2="1.0358" y1=".49995" y2=".49995"> <stop stop-color="#fff" offset="0"/> <stop stop-color="#919191" offset="1"/> </linearGradient> <linearGradient id="h" x1="-.003923" x2="1.0039" y1=".49994" y2=".49994"> <stop offset="0"/> <stop stop-color="#383838" offset=".76854"/> <stop stop-color="#262626" offset=".9143"/> <stop offset="1"/> </linearGradient> <linearGradient id="e" x1=".00032" x2=".99953" y1=".53031" y2=".53031"> <stop offset="0"/> <stop stop-color="#797979" offset="1"/> </linearGradient> </defs> <path d="m17.722 21.123h28.743l1.6083 15.107c-0.20475 2.5778-0.3031 2.6614-1.815 3.8077-1.8593 1.1099-4.1119 1.6965-6.1625 2.1151-5.1443 1.0502-10.827 1.0431-17.685-1.2705-2.2351-0.70612-3.2314-3.8035-3.0804-5.0759l-1.6083-14.684z" fill="url(#h)" stroke="#d3d3d3" stroke-width=".241"/> <path d="m0.2762 22.72 31.032-6.8463 32.357 6.2758-31.222 11.981-32.168-11.41z" fill="url(#g)"/> <path d="m12.019 37.117 1.7056-0.0458c0.96453 3.9401 2.7258 9.4162 2.1892 10.308-0.68496 1.4696-3.9177 2.09-4.6799 0.41372 0.043991-3.1696 0.91372-6.4564 0.78504-10.676z" fill="#fc0"/> <path d="m34.684 21.702c-1.123 0.61707-3.4751-0.55251-3.8544-0.060074-0.039648 0.051605-4.96e-4 0.3436 0.005453 0.43017 0.92612 0.68023 2.7134 0.69268 3.8021 0.008467l0.0469-0.3786z" fill="#373737"/> <path d="m32.018 21.674 0.9582 0.2853c-4.8327 1.2457-17.613 2.4944-19.977 4.8186-0.71161 0.7139-0.034198 3.9484-0.2609 5.9165l-1.1236 0.0063c0.15444-1.9246-0.33504-4.7859 0.16782-5.8927 0.54826-1.1281 2.8177-2.5968 20.235-5.134z" fill="#fc0"/> <rect transform="matrix(.98144 -.13974 .16523 .9823 .0013342 .18401)" x="5.5851" y="35.632" width="1.9868" height="3.2807" fill="url(#f)"/> <g fill="#424345"> <path d="m34.448 21.226c3.5489-1.1816 7.2344-2.1844 11.59-2.118 0.19474-0.046534 0.52432 0.31054-0.18732 0.32946-3.8388 0.15378-7.4336 1.2067-11.099 2.0003-0.46278 0.15699-0.58568-0.12604-0.30439-0.2118z"/> <path d="m34.512 22.037c4.2012 0.91255 8.4325 2.0755 12.698 4.6522 0.21978 0.067644 0.33562 0.60068-0.37872 0.20833-3.8837-2.0668-8.0547-3.1294-12.143-4.4816-0.54956-0.11619-0.50469-0.45888-0.17633-0.37898z"/> <path d="m32.067 21.369c-4.1466-1.1506-8.467-2.1698-13.652-2.3926-0.22869-0.048796-0.64318 0.21046 0.20206 0.27022 4.5561 0.36286 8.7654 1.4155 13.075 2.2692 0.54054 0.15234 0.70453-0.061884 0.37538-0.1469z"/> </g> <path d="m13.826 33.709a1.5387 1.5464 0 1 1-3.0774 0 1.5387 1.5464 0 1 1 3.0774 0z" fill="#fc0"/> <path d="m34.684 21.702c-0.86426 0.62436-2.9799 0.60351-3.8651 0 0-0.44016 0.86523-0.79698 1.9326-0.79698 1.0673 0 1.9326 0.35682 1.9326 0.79698z" fill="url(#e)"/> <path d="m35.203 21.61c3.5489-1.1816 7.2344-2.1844 11.59-2.118 0.19474-0.046545 0.52432 0.31054-0.18732 0.32945-3.8388 0.15378-7.4336 1.2067-11.099 2.0003-0.46277 0.157-0.58568-0.12603-0.30439-0.2118z"/> <path d="m33.912 22.35c4.2468 0.93374 8.523 2.1193 12.828 4.7264 0.22209 0.068859 0.3371 0.60519-0.38401 0.20797-3.9209-2.0929-8.1365-3.1773-12.267-4.5526-0.55553-0.11895-0.50872-0.46329-0.17685-0.38169z"/> <path d="m17.666 18.864c4.2937 0.36334 8.6438 0.92254 13.177 2.5991 0.22672 0.03479 0.39858 0.44726-0.35646 0.19752-4.098-1.3052-8.3773-1.79-12.604-2.5114-0.56133-0.04501-0.55257-0.32042-0.21608-0.28522z"/> </svg>