<?xml version='1.0' encoding='utf-8'?>
<svg xmlns="http://www.w3.org/2000/svg" width="128" height="128" version="1.1" viewBox="0 0 33.867 33.867"> <g transform="translate(0 -263.13)"> <circle cx="16.984" cy="279.42" r="14.782" fill="#ffcb43" stroke="#d97516" stroke-linecap="round" stroke-linejoin="round" stroke-width="2.0646" style="paint-order:markers stroke fill"/> <path d="m22.103 288.9c-0.19036-4.9683-3.359-6.7914-4.9296-6.7914-1.7572 0-5.1742 1.7894-5.1742 6.924 0 2.9096 2.2336 0.21211 5.0423 0.23132 2.8087 0.0192 5.182 2.7822 5.0615-0.36389z" fill="#821e1e" style="paint-order:normal"/> <path d="m19.399 270.21c-0.05241 5.6145 4.3406 5.4432 8.467 4.3426-4.93 0.25152-7.1266-1.7992-8.467-4.3426z" fill="#955715" opacity=".55" style="paint-order:normal"/> <path d="m6.66 278.9c-1.497 6.8929-1.1756 16.198-1.1756 16.198l4.5472 0.0152s-1.8286-7.6019 0.96115-17.178c-2.2811-1.3434-2.2029-0.90631-4.3327 0.96522z" fill="#298aff" style="paint-order:markers stroke fill"/> <path d="m27.207 278.9c1.497 6.8929 1.1756 16.198 1.1756 16.198l-4.6307-0.16856s1.9121-7.4182-0.87763-16.994c2.2811-1.3434 2.2029-0.90631 4.3327 0.96522z" fill="#298aff" style="paint-order:markers stroke fill"/> <path d="m9.9636 276.4c-1.3407-0.0152-2.718 0.62208-3.7263 2.0766-0.33144 0.47666 0.20916 1.0737 0.71627 0.79104 1.3951-0.77536 3.2276-1.9007 6.0262-0.45613 0.57324 0.29419 1.0955-0.47093 0.61272-0.89762-1.0059-0.88562-2.2882-1.4988-3.6289-1.5139zm13.944 0.16417c-1.3404 0.0152-2.6224 0.62717-3.6284 1.5129-0.4828 0.42668 0.03948 1.1918 0.61272 0.89761 2.7986-1.4445 4.6305-0.31879 6.0257 0.45665 0.50711 0.28265 1.0477-0.31438 0.71628-0.79104-1.0084-1.4546-2.3858-2.0912-3.7263-2.0761z" fill="#955715" style="paint-order:normal"/> <path d="m14.472 270.21c0.05241 5.6145-4.3406 5.4432-8.467 4.3426 4.93 0.25152 7.1266-1.7992 8.467-4.3426z" fill="#955715" opacity=".55" style="paint-order:normal"/> <path transform="scale(-1,1)" d="m-7.4957 293.53c3.8519-1e-5 6.9744 0.67215 6.9737 1.5012-7.1634e-4 0.82885-3.1228 1.5007-6.9737 1.5007-1.0015-9.9e-4 -1.9871-0.1887-2.899-0.13901-1.763 0.0961-4.1224 0.36816-6.598 0.36897-2.4514-7.8e-4 -4.79-0.2654-6.5484-0.36225-0.89268-0.0492-1.8539 0.1313-2.8298 0.13229-3.851 1e-5 -6.973-0.67183-6.9737-1.5007-6.18e-4 -0.82905 3.1218-1.5012 6.9737-1.5012 2.2867-0.35394 4.8253 0.49957 6.1438 0.79271 1.012 0.22501 2.1305 0.25619 3.2344 0.25609 1.1408 1.5e-4 2.7198-0.0888 3.7716-0.26759 1.4957-0.25427 5.6281-1.7022 5.7255-0.78118z" fill="#298aff" style="paint-order:markers stroke fill"/> <path d="m14.444 283.03-0.8467 0.87371c2.0999 0.81602 5.4929 0.43505 6.8232 0.20385l-0.36379-0.93714c-1.5081-0.88415-3.0012-1.8028-5.6127-0.14042z" fill="#fff" style="paint-order:normal"/> <path d="m26.316 279.35c0.46977 4.4454 0.76769 8.4686 1.1784 13.652 0.31365-5.04-0.2047-9.4914-1.1784-13.652z" fill="#fff" fill-opacity=".53544" style="paint-order:markers stroke fill"/> <path d="m19.848 289.87c-1.6485-3.2133-4.495-2.3041-5.271-0.19615 2.1631-0.4244 3.354-0.454 5.271 0.19615z" fill="#d03232" style="paint-order:normal"/> <path d="m26.974 294.87c-1.9902 0.23894-4.388 0.79294-3.3299-0.74815-0.39884 1.2652 1.0199 0.72548 3.3299 0.74815z" fill="#fff" fill-opacity=".53544" style="paint-order:markers stroke fill"/> <path d="m22.103 288.9c-0.19036-4.9683-3.359-6.7914-4.9296-6.7914-1.7572 0-5.1742 1.7894-5.1742 6.924 0 2.9096 2.2336 0.21211 5.0423 0.23132 2.8087 0.0192 5.182 2.7822 5.0615-0.36389z" fill="none" stroke="#955715" stroke-linecap="round" stroke-linejoin="round" stroke-width=".90488" style="paint-order:normal"/> <path d="m9.682 279c-1.1162 4.3929-1.4197 8.2553-1.3855 13.624-0.8429-7.857 0.14453-10.735 1.3855-13.624z" fill="#fff" fill-opacity=".53544" style="paint-order:markers stroke fill"/> <path d="m8.572 295.01c1.9902 0.23894 4.388 0.79294 3.3299-0.74815 0.39884 1.2652-1.0199 0.72548-3.3299 0.74815z" fill="#fff" fill-opacity=".53544" style="paint-order:markers stroke fill"/> <path d="m7.0665 294.42c-1.9902 0.23893-3.4737 1.1848-2.4155-0.35628-0.39884 1.2652 0.10551 0.33361 2.4155 0.35628z" fill="#fff" fill-opacity=".53544" style="paint-order:markers stroke fill"/> <path d="m27.77 295.32c1.965-0.39608 3.67 0.0379 2.1826-1.0945 0.77483 1.0767 0.0042 0.34987-2.1826 1.0945z" fill="#fff" fill-opacity=".53544" style="paint-order:markers stroke fill"/> </g> </svg>