<svg width="24" height="24" viewBox="0 0 24 24" fill="none" xmlns="http://www.w3.org/2000/svg">
<path d="M12 24C18.6274 24 24 18.6274 24 12C24 5.37258 18.6274 0 12 0C5.37258 0 0 5.37258 0 12C0 18.6274 5.37258 24 12 24Z" fill="#FFDD67"/>
<path d="M5.99961 15.6C8.42966 15.6 10.3996 13.63 10.3996 11.2C10.3996 8.76993 8.42966 6.79999 5.99961 6.79999C3.56956 6.79999 1.59961 8.76993 1.59961 11.2C1.59961 13.63 3.56956 15.6 5.99961 15.6Z" fill="white"/>
<path d="M17.9996 15.6C20.4297 15.6 22.3996 13.63 22.3996 11.2C22.3996 8.76993 20.4297 6.79999 17.9996 6.79999C15.5696 6.79999 13.5996 8.76993 13.5996 11.2C13.5996 13.63 15.5696 15.6 17.9996 15.6Z" fill="white"/>
<path d="M13.5996 10C12.8796 9.48002 11.1196 9.48002 10.3996 10C9.95961 9.60002 10.0396 9.16002 9.59961 8.76002C10.8396 7.84002 12.9596 7.68002 14.3996 8.76002C13.9596 9.16002 14.0396 9.60002 13.5996 10Z" fill="#494949"/>
<path d="M17.9998 6C15.1198 6 12.7998 8.32 12.7998 11.2C12.7998 14.08 15.1198 16.4 17.9998 16.4C20.8798 16.4 23.1998 14.08 23.1998 11.2C23.1998 8.32 20.8798 6 17.9998 6ZM17.9998 15.2C15.7998 15.2 13.9998 13.4 13.9998 11.2C13.9998 9 15.7998 7.2 17.9998 7.2C20.1998 7.2 21.9998 9 21.9998 11.2C21.9998 13.4 20.1998 15.2 17.9998 15.2ZM5.9998 6C3.1198 6 0.799805 8.32 0.799805 11.2C0.799805 14.08 3.1198 16.4 5.9998 16.4C8.8798 16.4 11.1998 14.08 11.1998 11.2C11.1998 8.32 8.8798 6 5.9998 6ZM5.9998 15.2C3.7998 15.2 1.9998 13.4 1.9998 11.2C1.9998 9 3.7998 7.2 5.9998 7.2C8.1998 7.2 9.9998 9 9.9998 11.2C9.9998 13.4 8.1998 15.2 5.9998 15.2Z" fill="#494949"/>
<path d="M7.19961 13.4C8.08327 13.4 8.79961 12.5046 8.79961 11.4C8.79961 10.2954 8.08327 9.39999 7.19961 9.39999C6.31595 9.39999 5.59961 10.2954 5.59961 11.4C5.59961 12.5046 6.31595 13.4 7.19961 13.4Z" fill="#664E27"/>
<path d="M16.7992 13.4C17.6829 13.4 18.3992 12.5045 18.3992 11.4C18.3992 10.2954 17.6829 9.39996 16.7992 9.39996C15.9156 9.39996 15.1992 10.2954 15.1992 11.4C15.1992 12.5045 15.9156 13.4 16.7992 13.4Z" fill="#664E27"/>
<path d="M9.8799 19.72C12.1999 20.32 14.6799 19.88 16.6399 18.52C17.1199 18.16 16.1999 16.92 15.7199 17.24C14.4399 18.16 12.3599 18.76 10.2399 18.2C9.7199 18.08 9.2799 19.56 9.8799 19.72Z" fill="#664E27"/>
<path d="M20.4805 5.47999C19.2005 4.39999 17.4805 3.91999 15.8005 4.23999C15.5605 4.27999 15.3605 3.43999 15.6405 3.35999C17.5605 2.99999 19.5605 3.55999 21.0405 4.79999C21.2805 4.99999 20.6405 5.63999 20.4805 5.47999ZM8.20047 4.15999C6.52047 3.87999 4.80047 4.31999 3.52047 5.39999C3.36047 5.55999 2.72047 4.91999 2.96047 4.71999C4.44047 3.43999 6.44046 2.91999 8.36047 3.27999C8.64046 3.35999 8.44046 4.19999 8.20047 4.15999Z" fill="#917524"/>
</svg>
