<?xml version='1.0' encoding='utf-8'?>
<svg xmlns="http://www.w3.org/2000/svg" enable-background="new 0 0 503.488 413.954" version="1.1" viewBox="0 0 503.49 413.95"> <path d="m103.54 50.099-39.896-10.338 11.195 30.855c1.902 3.498 3.414 7.341 4.167 11.229l35.766 95.701 121.82-92.97-133.06-34.477" fill="#CC6DAA"/> <radialGradient id="a" cx="803.87" cy="305.57" r="171.87" gradientTransform="matrix(-.0023 .9465 -1.0483 -.0026 596.04 -530.55)" gradientUnits="userSpaceOnUse"> <stop stop-color="#FDED40" offset="0"/> <stop stop-color="#E6B623" offset="1"/> </radialGradient> <path d="m273.44 398c-95.822-0.237-173.31-75.863-173.08-168.92 0.229-93.051 78.095-168.29 173.92-168.05 95.822 0.237 173.31 75.863 173.08 168.92-0.231 93.051-78.096 168.29-173.92 168.05z" fill="url(#a)"/> <path d="m234.48 206.72c0 10.475-16.137-5.494-36.043-5.494s-36.043 15.969-36.043 5.494 16.137-18.967 36.043-18.967 36.043 8.492 36.043 18.967z" fill="#603813"/> <path d="m371.4 206.72c0 10.475-16.137-5.494-36.043-5.494s-36.043 15.969-36.043 5.494 16.137-18.967 36.043-18.967 36.043 8.492 36.043 18.967z" fill="#603813"/> <path d="m223.12 153.21c-0.031 3.502-24.238-1.324-28.652-1.01-11.169 0.795-58.837 9.665-58.989 7.513-0.237-3.338 30.836-15.906 58.867-17.9 28.031-1.995 28.852 2.965 28.774 11.397z" fill="#603813"/> <path d="m312.86 155.92c-0.021 4.218 24.135-1.958 28.521-1.646 11.1 0.79 58.389 10.759 58.574 8.165 0.285-4.024-30.439-18.697-58.299-20.679-27.856-1.983-28.747 4.004-28.796 14.16z" fill="#603813"/> <path d="m302.77 282.25c0 10.047-18.428 18.191-41.156 18.191-22.223 0 28.557-6.84 27.717-18.191-0.799-10.805-50.793-18.191-27.717-18.191 22.728-1e-3 41.156 8.144 41.156 18.191z" fill="#603813"/> <path d="m302.77 247.71c0 10.047-18.428 18.191-41.156 18.191-22.223 0 28.557-6.839 27.717-18.191-0.799-10.805-50.793-18.191-27.717-18.191 22.728 0 41.156 8.145 41.156 18.191z" fill="#603813"/> <path d="m173.59 218.56c-1.128-5.397-5.036-8.468-9.643-9.546-1.329-0.958-3.136-1.035-4.704-0.429-1.821 0.079-3.642 0.431-5.357 1.03-0.545 0.139-1.086 0.316-1.618 0.541-5.661 0.617-10.663 3.541-12.774 9.594-2.46 7.051 0.396 14.139 6.163 18.484 6.536 4.926 16.266 3.212 22.289-1.45 5.353-4.143 6.962-11.918 5.644-18.224z" fill="#BE1E2D" opacity=".65"/> <path d="m394.36 209.98c-3.854-2.943-8.551-3.846-12.965-3.018-0.834 0-1.678 0.045-2.533 0.154-1.781 0.226-3.064 1.186-3.848 2.43-1.861 1.222-3.525 2.809-4.852 4.738-1.65 2.398-1.998 4.625-1.494 6.613-2.906 5.687-1.895 12.745 4.605 16.246 1.414 0.762 2.871 1.293 4.336 1.623 0.656 0.295 1.338 0.556 2.051 0.762 7.424 2.146 15.229-1.23 19.617-7.268 5.226-7.184 1.525-17.358-4.917-22.28z" fill="#BE1E2D" opacity=".65"/> <path d="m79.905 78.538c12.556-2.156 22.675-10.817 35.199-12.939 9.522-1.613 5.471-16.067-3.987-14.464-12.564 2.129-22.682 10.79-35.199 12.939-9.52 1.634-5.471 16.088 3.987 14.464z" fill="#00B9C1"/> <path d="m90.608 109.23c13.967-7.274 28.056-14.329 43.149-18.974 13.92-4.283 28.028-8.188 42.265-11.262 9.454-2.042 5.443-16.501-3.987-14.464-14.267 3.081-28.263 7.167-42.265 11.262-16.32 4.773-31.709 12.662-46.733 20.486-8.581 4.47-0.996 17.414 7.571 12.952z" fill="#00B9C1"/> <path d="m99.354 130.2c13.553-4.523 27.1-10.165 41.506-9.732 9.678 0.291 9.65-14.71 0-15-15.882-0.478-30.665 5.319-45.494 10.268-9.126 3.046-5.213 17.535 3.988 14.464z" fill="#00B9C1"/> <path d="m125.29 55.824c2.51 0.507 5.248 0.47 7.631 1.243 1.152 0.374 2.25 1.042 3.436 1.299" fill="none"/> <path d="m15.385 203.9c2.145 4.231 4.842 8.127 8.173 11.519 2.864 2.915 7.736 2.87 10.606 0 2.909-2.909 2.863-7.692 0-10.607-0.608-0.62-1.198-1.252-1.771-1.904-0.274-0.318-0.542-0.641-0.803-0.97 1.095 1.349-0.162-0.285-0.305-0.491-1.122-1.62-2.059-3.363-2.948-5.118-1.847-3.644-6.896-4.662-10.262-2.69-3.68 2.155-4.538 6.614-2.69 10.261z" fill="#26A9E0"/> <path d="m431.63 61.123c-1.081 3.309-1.918 6.691-3 10-1.27 3.886 1.438 8.181 5.238 9.226 4.083 1.123 7.957-1.356 9.227-5.238 1.081-3.309 1.918-6.691 3-10 1.27-3.886-1.438-8.181-5.238-9.226-4.084-1.124-7.958 1.355-9.227 5.238z" fill="#26A9E0"/> <path d="m460.08 295.59c3.469 1.59 6.998 2.022 10.785 2.024 4.089 2e-3 7.5-3.413 7.5-7.5 0-4.09-3.412-7.498-7.5-7.5-0.948-1e-3 -1.894-0.014-2.84-0.07-0.294-0.02-0.588-0.046-0.881-0.078 1.26 0.186 1.488 0.207 0.688 0.064-0.627-0.117-2.351-0.886-0.182 0.108-3.717-1.703-8.045-1.094-10.261 2.69-1.909 3.262-1.026 8.559 2.691 10.262z" fill="#26A9E0"/> <path d="m281.86 78.348c2.18-0.584 4.227-1.46 6.294-2.36 0.766-0.333 1.52-0.697 2.276-1.051 0.362-0.169 0.726-0.336 1.09-0.499-1.708 0.773 0.016 0.024 0.34-0.09 3.853-1.356 6.38-5.076 5.238-9.226-1.027-3.733-5.367-6.597-9.227-5.238-1.901 0.669-3.742 1.507-5.567 2.36-0.267 0.125-2.701 1.199-1.137 0.548-1.072 0.445-2.176 0.791-3.296 1.091-3.946 1.058-6.316 5.306-5.238 9.226 1.09 3.96 5.28 6.297 9.227 5.239z" fill="#26A9E0"/> <path d="m89.558 265.81c-1.333 1.334-2.667 2.667-4 4-2.89 2.89-2.89 7.718 0 10.607s7.717 2.889 10.606 0c1.333-1.334 2.667-2.667 4-4 2.89-2.89 2.89-7.718 0-10.607s-7.717-2.889-10.606 0z" fill="#FAAF40"/> <path d="m376.56 86.419c1.286 1.287 2.57 2.575 3.704 4l-1.173-1.518c0.484 0.638 0.923 1.291 1.297 2 1.904 3.612 6.852 4.688 10.261 2.69 3.639-2.132 4.598-6.645 2.69-10.262-1.51-2.863-3.902-5.247-6.172-7.518-2.89-2.89-7.718-2.889-10.607 0-2.89 2.892-2.889 7.718 0 10.608z" fill="#FAAF40"/> <path d="m210.08 61.592c0.354 0.189 0.679 0.396 0.998 0.639l-1.518-1.173c0.451 0.377 0.84 0.79 1.204 1.251l-1.173-1.518c0.716 0.97 1.261 2.036 1.799 3.111 1.829 3.653 6.909 4.654 10.262 2.69 3.694-2.164 4.521-6.605 2.69-10.262-1.544-3.085-3.565-6.021-6.69-7.69-3.606-1.927-8.139-0.934-10.262 2.69-2.006 3.425-0.911 8.337 2.69 10.262z" fill="#FAAF40"/> <path d="m477.08 183.59c1.03 0.504 2.089 0.949 3.125 1.441 0.637 0.302 1.254 0.641 1.858 1.002 0.243 0.149 0.479 0.305 0.712 0.469-1.749-1.192-0.626-0.478-0.214-0.085 2.959 2.817 7.665 2.942 10.607 0 2.836-2.837 2.96-7.788 0-10.606-2.546-2.425-5.435-3.666-8.519-5.173-3.673-1.795-8.083-1.028-10.261 2.69-1.947 3.328-0.98 8.468 2.692 10.262z" fill="#FAAF40"/> <path d="m25.861 315.62h8c4.088 0 7.5-3.411 7.5-7.5s-3.412-7.5-7.5-7.5h-8c-4.088 0-7.5 3.411-7.5 7.5s3.411 7.5 7.5 7.5z" fill="#8BC53F"/> <path d="m303.39 27.902c2.032 3.139 3.352 6.657 5 10 1.807 3.665 6.925 4.645 10.261 2.69 3.71-2.173 4.499-6.595 2.69-10.262-1.647-3.343-2.967-6.861-5-10-2.217-3.424-6.612-4.828-10.261-2.69-3.404 1.994-4.915 6.826-2.69 10.262z" fill="#8BC53F"/> <path d="m432.87 117.88c-3.596 1.268-6.615 3.238-9.31 5.929-2.891 2.888-2.888 7.718 0 10.606 2.892 2.891 7.716 2.888 10.607 0 0.674-0.673 1.369-1.314 2.12-1.902l-1.518 1.173c0.974-0.73 2-1.335 3.119-1.815l-1.791 0.756c0.25-0.103 0.503-0.196 0.76-0.282 3.852-1.358 6.38-5.074 5.238-9.226-1.026-3.732-5.366-6.599-9.225-5.239z" fill="#8BC53F"/> <path d="m177.87 119.35c4.888 1.055 9.388 3.133 14 5 3.796 1.537 8.236-1.641 9.226-5.238 1.18-4.289-1.452-7.693-5.238-9.226-4.612-1.868-9.112-3.945-14-5-3.992-0.862-8.097 1.134-9.226 5.238-1.038 3.772 1.241 8.364 5.238 9.226z" fill="#8BC53F"/> <path d="m78.361 135.12c0 0.714-8e-3 1.424-0.096 2.134 0.089-0.665 0.179-1.329 0.268-1.994-0.067 0.417-0.165 0.811-0.316 1.205 0.252-0.597 0.504-1.194 0.756-1.792-0.105 0.227-0.219 0.432-0.357 0.64l1.173-1.518c-0.161 0.206-0.326 0.382-0.519 0.559l1.518-1.173c-0.229 0.177-0.457 0.323-0.712 0.462-3.582 1.959-4.711 6.811-2.69 10.262 2.108 3.599 6.674 4.652 10.262 2.69 2.616-1.431 4.08-3.667 5.122-6.372 0.601-1.559 0.591-3.436 0.592-5.104 3e-3 -4.088-3.414-7.5-7.5-7.5-4.091 1e-3 -7.498 3.413-7.501 7.501z" fill="#8BC53F"/> </svg>