<?xml version='1.0' encoding='utf-8'?>
<svg xmlns="http://www.w3.org/2000/svg" enable-background="new 0 0 500 500" version="1.1" viewBox="0 0 500 500"> <circle cx="250" cy="250" r="250" fill="#FFD434"/> <path d="m389 42.2c42.5 44.8 68.6 105.4 68.6 172 0 138.1-111.9 250-250 250-51.5 0-99.3-15.6-139-42.2 45.6 48 110 78 181.4 78 138.1 0 250-111.9 250-250 0-86.6-44.1-162.9-111-207.8z" fill="#FAC12C"/> <circle cx="145" cy="202.2" r="81" fill="#FAC12C"/> <circle cx="145" cy="202.2" r="62.1" fill="#fff"/> <circle cx="145" cy="202.2" r="38.6" fill="#3D4349"/> <path d="m171.6 201.2c-1.6 0-3-1.2-3.3-2.8-1.1-6.6-4.7-12.3-10.1-16.2s-12-5.4-18.6-4.3c-1.8 0.3-3.6-0.9-3.9-2.8-0.3-1.8 0.9-3.6 2.8-3.9 8.3-1.4 16.7 0.6 23.6 5.5s11.4 12.2 12.8 20.5c0.3 1.8-0.9 3.6-2.8 3.9-0.1 0.1-0.3 0.1-0.5 0.1z" fill="#fff"/> <circle cx="355" cy="202.2" r="81" fill="#FAC12C"/> <circle cx="355" cy="202.2" r="62.1" fill="#fff"/> <circle cx="355" cy="202.2" r="38.6" fill="#3D4349"/> <path d="m381.6 201.2c-1.6 0-3-1.2-3.3-2.8-1.1-6.6-4.7-12.3-10.1-16.2s-12-5.4-18.6-4.3c-1.8 0.3-3.6-0.9-3.9-2.8-0.3-1.8 0.9-3.6 2.8-3.9 8.3-1.4 16.7 0.6 23.6 5.5s11.4 12.2 12.8 20.5c0.3 1.8-0.9 3.6-2.8 3.9-0.1 0.1-0.3 0.1-0.5 0.1z" fill="#fff"/> <path d="m317.3 378.8h-126.2c-14.8 0-26.8-12.1-26.8-26.8 0-14.8 12.1-26.8 26.8-26.8h126.2c14.8 0 26.8 12.1 26.8 26.8 0.1 14.7-12 26.8-26.8 26.8z" fill="#3D4349"/> </svg>