<?xml version='1.0' encoding='utf-8'?>
<svg xmlns="http://www.w3.org/2000/svg" enable-background="new 0 0 429.07 381.396" version="1.1" viewBox="0 0 429.07 381.4"> <path d="m367.01 194.68c-0.5 0.186-1.059 0.301-1.68 0.322-8.055 0.284-14.791-3.298-21.951-6.215-5.34 11.078-12.236 23.157-9.893 35.219 1.225 6.299-8.414 8.985-9.643 2.658-0.043-0.22-0.074-0.438-0.113-0.656-0.254-0.238-0.494-0.508-0.717-0.816-6.473-8.954-11.902-18.594-18.129-27.71-1.227 0.578-2.471 1.11-3.73 1.606 1.168 4.014-2.842 8.924-7.014 5.898-0.959-0.695-1.875-1.43-2.771-2.18-0.014 6e-3 -0.029 0.011-0.043 0.017-1.512 0.63-3.186 0.099-4.426-0.938-1.781 1.412-4.371 1.746-6.438-0.348-2.492-2.521-4.867-5.15-7.105-7.887-3.209 3.143-6.461 6.241-9.824 9.221-1.783 1.578-3.816 1.698-5.443 0.956-0.146 0.232-0.303 0.459-0.441 0.698-3.248 5.565-11.893 0.535-8.635-5.047 0.156-0.268 0.33-0.516 0.492-0.776-2.295-3.045-4.293-6.289-6.385-9.495-2.188-3.353-4.672-7.451-8.254-9.611-8.385 5.086-15.025 11.148-20.725 18.736 0.568 0.452 1.125 0.92 1.711 1.353 5.135 3.778 0.156 12.464-5.047 8.635-1.046-0.771-2.067-1.568-3.068-2.384-1.179 0.396-2.455 0.287-3.586-0.168-0.65-0.091-1.328-0.34-2.012-0.781-2.86-1.85-4.956-4.331-6.871-6.957-3.565-2.154-6.964-5.076-9.607-8.129-2.417 3.641-3.987 7.752-6.015 11.959-1.217 2.523-4.27 2.923-6.557 1.877-0.546 0.021-1.132-0.051-1.756-0.246-7.814-2.45-14.602-6.951-21.255-11.625-8.387 6.41-16.807 12.775-25.538 18.701 1.03 3.973-2.935 8.721-7.068 5.753-0.325-0.233-0.64-0.479-0.962-0.716-3.073 0.915-5.719-1.741-6.008-4.627-7.104-5.75-13.802-11.984-20.852-17.807-13.285 7.173-20.882 15.484-20.882 24.346 0 27.062 70.839 49 158.23 49 87.381 0 158.22-21.938 158.22-49 2e-3 -8.247-6.584-16.017-18.207-22.836z" fill="#EA8A23"/> <path d="m178.5 205.81c-8.602 11.349-17.204 22.698-25.806 34.047-1.461 1.929 1.797 3.794 3.238 1.893 8.602-11.349 17.204-22.698 25.806-34.047 1.462-1.93-1.797-3.795-3.238-1.893z" fill="#DB7C27"/> <path d="m231.72 184.39c-8.889 13.244-23.208 21.973-28.188 37.781-0.729 2.312 2.892 3.295 3.616 0.996 4.812-15.275 19.185-24.033 27.811-36.884 1.351-2.014-1.899-3.889-3.239-1.893z" fill="#DB7C27"/> <path d="m201.62 228.28c14.326-8.749 25.939-23.916 34.672-38.005 1.277-2.062-1.967-3.943-3.238-1.893-8.371 13.505-19.576 28.262-33.327 36.66-2.059 1.258-0.177 4.502 1.893 3.238z" fill="#DB7C27"/> <path d="m159.58 176.5c0 6.627-5.372 12-12 12h-4.459c-6.627 0-12-5.373-12-12v-19.5c0-6.627 5.373-12 12-12h4.459c6.628 0 12 5.373 12 12v19.5z" fill="#FFEDBB"/> <path d="M316,245.25c0,6.627-5.373,12-12,12H134.239c-6.628,0-12-5.373-12-12V61.5c0-6.627,5.372-12,12-12H304 c6.627,0,12,5.373,12,12V245.25z" fill="#FFEDBB"/> <ellipse cx="123.25" cy="66.763" rx="49.249" ry="30.263" fill="#FFEDBB"/> <ellipse cx="199.34" cy="66.5" rx="44.844" ry="49" fill="#FFEDBB"/> <ellipse cx="259.92" cy="44" rx="58.583" ry="21" fill="#FFEDBB"/> <ellipse cx="310.46" cy="42.554" rx="50.541" ry="19.554" fill="#FFEDBB"/> <ellipse cx="332.15" cy="89.062" rx="45.188" ry="35.062" fill="#FFEDBB"/> <ellipse cx="185.84" cy="54.763" rx="41.166" ry="42.263" fill="#FFEDBB"/> <ellipse cx="246" cy="46" rx="31.999" ry="39.5" fill="#FFEDBB"/> <ellipse cx="275.15" cy="33.306" rx="22.329" ry="26.806" fill="#FFEDBB"/> <ellipse cx="150.52" cy="105.55" rx="62.225" ry="23.696" fill="#FFEDBB"/> <ellipse cx="139" cy="110.28" rx="24.5" ry="17.225" fill="#FFEDBB"/> <ellipse cx="116.46" cy="111.25" rx="15.791" ry="11.25" fill="#FFEDBB"/> <ellipse cx="300.5" cy="105.78" rx="20.833" ry="16.719" fill="#FFEDBB"/> <ellipse cx="343.92" cy="59.75" rx="22.583" ry="5.75" fill="#FFEDBB"/> <ellipse cx="299.19" cy="118" rx="31.311" ry="9.5" fill="#FFEDBB"/> <ellipse cx="291" cy="97.025" rx=".335" ry=".001" fill="#FFEDBB"/> <ellipse cx="152" cy="45.5" rx="35.25" ry="28" fill="#FFEDBB"/> <ellipse cx="111.76" cy="120.5" rx="20.489" ry="20.5" fill="#FFEDBB"/> <ellipse cx="144.67" cy="139.3" rx="20.489" ry="20.5" fill="#FFEDBB"/> <ellipse cx="293.49" cy="130" rx="20.489" ry="20.5" fill="#FFEDBB"/> <ellipse cx="93.625" cy="103" rx="38.625" ry="17.5" fill="#FFEDBB"/> <ellipse cx="323.19" cy="113.51" rx="18.773" ry="16.487" fill="#FFEDBB"/> <ellipse cx="369.5" cy="105.55" rx="23.5" ry="12.452" fill="#FFEDBB"/> <ellipse cx="370.42" cy="70.25" rx="9.913" ry="6.25" fill="#FFEDBB"/> <path d="m226.81 150.36c-27.786 1.558-55.783 3.586-82.773-3.367l-39.722 29.126 52.239 15.261 17.044 51.687 30.657-44.968 54.423-0.237-33.293-43.053 1.425-4.449z" fill="#FFD182"/> <path d="m321.64 87.119c0.584 0.038 1.166 0.076 1.746 0.126 0.443-0.158 0.883-0.326 1.324-0.49l0.268-0.832-3.338 1.196z" fill="#FFD18B"/> <path d="m309.86 139.85c-3.977 0.318-8.049 0.266-11.955 0.111-0.137 2.848-2.566 5.782-6.234 5.046-10.227-2.053-20.445-4.214-30.705-6.096-2.1 0.025-4.199-6e-3 -6.311-0.109-10.188 0.89-20.396 1.476-30.654 1.384-0.549-5e-3 -1.039-0.098-1.496-0.234l-35.186 25.801 52.239 15.261 17.045 51.687 30.656-44.968 54.424-0.238-33.293-43.052 1.47-4.593z" fill="#FFD18B"/> <ellipse cx="144.67" cy="139" rx="24.5" ry="17.225" fill="#FFEDBB"/> <ellipse cx="217.12" cy="114.13" rx="40.639" ry="31.868" fill="#FDF7E1"/> <ellipse cx="167.95" cy="101.95" rx="29.852" ry="28.452" fill="#FDF7E1"/> <ellipse cx="148.73" cy="82.016" rx="32.271" ry="17.516" fill="#FDF7E1"/> <ellipse cx="219" cy="69.313" rx="41" ry="32.813" fill="#FDF7E1"/> <ellipse cx="291.79" cy="109.5" rx="25.711" ry="18" fill="#FDF7E1"/> <ellipse cx="297.32" cy="69" rx="24.321" ry="23" fill="#FDF7E1"/> <ellipse cx="338.75" cy="93.138" rx="24.754" ry="28.638" fill="#FDF7E1"/> <ellipse cx="250.57" cy="86.75" rx="17.239" ry="16.25" fill="#FDF7E1"/> <ellipse cx="163.29" cy="50" rx="22.542" ry="19" fill="#FDF7E1"/> <ellipse cx="114.79" cy="71.25" rx="17.458" ry="17.25" fill="#FDF7E1"/> <ellipse cx="120.08" cy="109.3" rx="24.584" ry="14.824" fill="#FDF7E1"/> <ellipse cx="147.31" cy="145.8" rx="16.188" ry="9.093" fill="#FFEDBB"/> <ellipse cx="175.16" cy="149.48" rx="15.573" ry="13.768" fill="#FFEDBB"/> <ellipse cx="153.51" cy="148.85" rx="30.175" ry="12.147" fill="#FFEDBB"/> <ellipse cx="197.09" cy="142.25" rx="13.404" ry="8.25" fill="#FFEDBB"/> <ellipse cx="181.11" cy="129.57" rx="28.613" ry="15.434" fill="#FDF7E1"/> <ellipse cx="214.54" cy="128.26" rx="13.207" ry="14.744" fill="#FDF7E1"/> <ellipse cx="159.42" cy="126.98" rx="38.625" ry="17.5" fill="#FFEDBB"/> <ellipse cx="157.1" cy="140.8" rx="26.584" ry="16.31" fill="#FFEDBB"/> <path d="m181.34 178c0 6.627-5.372 12-12 12h-26.21c-6.627 0-12-5.373-12-12v-30.5c0-6.627 5.373-12 12-12h26.21c6.628 0 12 5.373 12 12v30.5z" fill="#FDF7E1"/> <ellipse cx="225.67" cy="141.88" rx="11.666" ry="9.875" fill="#FFEDBB"/> <ellipse cx="214.88" cy="146.75" rx="14.213" ry="14.75" fill="#FFEDBB"/> <ellipse cx="197.8" cy="138.75" rx="21.32" ry="14.626" fill="#FFEDBB"/> <ellipse cx="169.54" cy="141.97" rx="21.792" ry="14.466" fill="#FFEDBB"/> <ellipse cx="148.03" cy="144.16" rx="14.722" ry="8.294" fill="#FFEDBB"/> <ellipse cx="126.08" cy="143.93" rx="11.584" ry="9.76" fill="#FFEDBB"/> <ellipse cx="239.64" cy="136.7" rx="22.916" ry="12.216" fill="#FFEDBB"/> <ellipse cx="270.07" cy="137.64" rx="30.429" ry="15.862" fill="#FFEDBB"/> <ellipse cx="297.23" cy="132.75" rx="22.272" ry="12.25" fill="#FFEDBB"/> <ellipse cx="324.5" cy="136.25" rx="23.999" ry="13.75" fill="#FFEDBB"/> <ellipse cx="340.5" cy="123.49" rx="15.5" ry="6.914" fill="#FFEDBB"/> <path d="m159.58 135.72c0 4.537-3.678 8.215-8.214 8.215h-4.155c-4.537 0-8.215-3.678-8.215-8.215s3.678-8.215 8.215-8.215h4.155c4.536 0 8.214 3.678 8.214 8.215z" fill="#FFEDBB"/> <path d="m147.75 134.87c0 3.919-3.177 7.096-7.096 7.096s-7.096-3.177-7.096-7.096v-0.274c0-3.919 3.177-7.096 7.096-7.096s7.096 3.177 7.096 7.096v0.274z" fill="#FFEDBB"/> <ellipse cx="244.05" cy="148.12" rx="18.508" ry="13.384" fill="#FFEDBB"/> <ellipse cx="215.09" cy="149.5" rx="28.959" ry="12" fill="#FFEDBB"/> <ellipse cx="175.23" cy="146.14" rx="22.565" ry="12.144" fill="#FFEDBB"/> <ellipse cx="148.9" cy="144.37" rx="15.586" ry="15.128" fill="#FFEDBB"/> <ellipse cx="133.94" cy="146" rx="7.853" ry="11.833" fill="#FFEDBB"/> <ellipse cx="277.91" cy="149.25" rx="19.574" ry="15.25" fill="#FFEDBB"/> <ellipse cx="292.48" cy="143" rx="17.522" ry="15.5" fill="#FFEDBB"/> <linearGradient id="c" x1="219" x2="219" y1="275.49" y2="139.31" gradientUnits="userSpaceOnUse"> <stop stop-color="#FFE3AF" offset=".5994"/> <stop stop-color="#FAAE3F" offset="1"/> <stop stop-color="#F58D59" offset="1"/> </linearGradient> <path d="m314 263.49c0 6.627-5.373 12-12 12h-166c-6.627 0-12-5.373-12-12v-112.19c0-6.627 5.373-12 12-12h166c6.627 0 12 5.373 12 12v112.19z" fill="url(#c)"/> <linearGradient id="b" x1="222.61" x2="222.61" y1="132.75" y2="129.24" gradientUnits="userSpaceOnUse"> <stop stop-color="#FFDDAB" offset=".5994"/> <stop stop-color="#FAAE3F" offset="1"/> <stop stop-color="#F58D59" offset="1"/> </linearGradient> <ellipse cx="222.61" cy="131" rx="7.517" ry="1.753" fill="url(#b)"/> <ellipse cx="123.92" cy="229.6" rx="30.583" ry="32.397" fill="#FBB758"/> <ellipse cx="96.002" cy="218.6" rx="14.667" ry="21.397" fill="#FBB758"/> <ellipse cx="166" cy="230.38" rx="25.333" ry="9.622" fill="#FBB758"/> <ellipse cx="151.92" cy="240" rx="2.583" ry="8" fill="#FBB758"/> <ellipse cx="87.335" cy="211.23" rx="13.333" ry="14.022" fill="#FBB758"/> <path d="m179.58 202.67c-1.734 0-3.401 0.258-4.967 0.721-0.233 0.104-0.478 0.188-0.735 0.246-6.063 2.101-10.381 7.434-10.381 13.7 0 8.101 7.2 14.667 16.083 14.667s16.083-6.566 16.083-14.667-7.2-14.667-16.083-14.667z" fill="#FBB758"/> <ellipse cx="208.34" cy="218.14" rx="2.333" ry="11.468" fill="#FBB758"/> <ellipse cx="193.57" cy="224.03" rx="17.094" ry="11.971" fill="#FBB758"/> <ellipse cx="222.84" cy="223.33" rx="14.499" ry="16.667" fill="#FBB758"/> <ellipse cx="221.67" cy="214.6" rx="15.666" ry="17.397" fill="#FBB758"/> <ellipse cx="236.98" cy="202.18" rx="15.309" ry="12.427" fill="#FBB758"/> <ellipse cx="239.64" cy="195.03" rx="12.643" ry="17.029" fill="#FBB758"/> <ellipse cx="252.82" cy="217.52" rx="13.18" ry="22.485" fill="#FBB758"/> <ellipse cx="266.08" cy="226.56" rx="13.256" ry="13.439" fill="#FBB758"/> <ellipse cx="274.96" cy="219.33" rx="8.878" ry="12.667" fill="#FBB758"/> <ellipse cx="290.67" cy="214.37" rx="11.334" ry="12.192" fill="#FBB758"/> <path d="m297.48 195.03c-3.275 0-6.277 1.463-8.629 3.898-0.34 1.352-1.256 2.559-2.441 3.307-1.615 2.84-2.576 6.314-2.576 10.082 0 9.547 6.109 17.286 13.646 17.286s13.646-7.739 13.646-17.286-6.109-17.287-13.646-17.287z" fill="#FBB758"/> <ellipse cx="311.67" cy="221.09" rx="9.666" ry="18.912" fill="#FBB758"/> <ellipse cx="331.17" cy="235.67" rx="19.5" ry="18.334" fill="#FBB758"/> <ellipse cx="339.34" cy="219.33" rx="11.333" ry="12.667" fill="#FBB758"/> <ellipse cx="349" cy="211.88" rx="15" ry="14.678" fill="#FBB758"/> <ellipse cx="363.51" cy="208.34" rx="10.174" ry="11.134" fill="#FBB758"/> <ellipse cx="365.33" cy="206.89" rx="12" ry="17.14" fill="#FBB758"/> <ellipse cx="381.89" cy="220.83" rx="4.558" ry="8.772" fill="#FBB758"/> <ellipse cx="373.61" cy="217.51" rx="8.279" ry="12.089" fill="#FBB758"/> <ellipse cx="127.58" cy="229.34" rx="13.084" ry="14.969" fill="#F69047"/> <ellipse cx="104.75" cy="227.02" rx="17.492" ry="15.98" fill="#F69047"/> <ellipse cx="103.03" cy="216.84" rx="19.206" ry="10.177" fill="#F69047"/> <ellipse cx="138.46" cy="228.46" rx="10.875" ry="23.034" fill="#F69047"/> <ellipse cx="150.4" cy="228.42" rx="15.606" ry="11.578" fill="#F69047"/> <ellipse cx="174.79" cy="219.67" rx="4.791" ry="7.352" fill="#F69047"/> <ellipse cx="204.67" cy="224.42" rx="13.334" ry="7.578" fill="#F69047"/> <ellipse cx="159.58" cy="248.14" rx="14.916" ry="19.684" fill="#F69047"/> <ellipse cx="252.75" cy="212.83" rx="5.585" ry="15.626" fill="#F69047"/> <ellipse cx="275.12" cy="226.42" rx="22.366" ry="13.584" fill="#F69047"/> <ellipse cx="328.42" cy="233.74" rx="11.083" ry="14.404" fill="#F69047"/> <ellipse cx="314.42" cy="233" rx="19.584" ry="15" fill="#F69047"/> <ellipse cx="298.85" cy="219.83" rx="18.484" ry="10.544" fill="#F69047"/> <ellipse cx="227.75" cy="218" rx="19.413" ry="11.336" fill="#F69047"/> <ellipse cx="229.1" cy="213.35" rx="15.093" ry="10.682" fill="#F69047"/> <ellipse cx="346.34" cy="225.61" rx="6.999" ry="14.387" fill="#F69047"/> <ellipse cx="348.33" cy="226.79" rx="17.008" ry="6.951" fill="#F69047"/> <ellipse cx="364.11" cy="225.61" rx="17.779" ry="14.387" fill="#F69047"/> <ellipse cx="352.34" cy="210.62" rx="12.999" ry="13.412" fill="#F69047"/> <ellipse cx="367.06" cy="204.74" rx="6.552" ry="8.089" fill="#F69047"/> <ellipse cx="250.03" cy="128.65" rx="13.049" ry="10.652" fill="#FDF7E1"/> <ellipse cx="233.33" cy="131.42" rx="11.657" ry="14.842" fill="#FDF7E1"/> <ellipse cx="245.52" cy="134" rx="29.432" ry="14.842" fill="#FDF7E1"/> <ellipse cx="196.75" cy="133.06" rx="28.798" ry="15.058" fill="#FDF7E1"/> <ellipse cx="159.58" cy="111.25" rx="28.797" ry="15.058" fill="#FDF7E1"/> <ellipse cx="140.65" cy="114.13" rx="28.797" ry="15.058" fill="#FDF7E1"/> <ellipse cx="156.23" cy="130.4" rx="28.797" ry="15.058" fill="#FDF7E1"/> <ellipse cx="162.75" cy="100" rx="28.797" ry="15.058" fill="#FDF7E1"/> <ellipse cx="194.5" cy="100" rx="28.798" ry="15.058" fill="#FDF7E1"/> <ellipse cx="269.74" cy="128.26" rx="23.744" ry="14.744" fill="#FDF7E1"/> <ellipse cx="152.63" cy="140.74" rx="27.495" ry="17.254" fill="#FFEDBB"/> <ellipse cx="192.77" cy="139.16" rx="26.231" ry="13.297" fill="#FFEDBB"/> <ellipse cx="222.16" cy="137.74" rx="17.488" ry="14.255" fill="#FFEDBB"/> <ellipse cx="258.54" cy="141" rx="28.416" ry="18.5" fill="#FFEDBB"/> <ellipse cx="135.21" cy="126.56" rx="26.71" ry="15.312" fill="#FDF7E1"/> <ellipse cx="185.13" cy="121.12" rx="25.542" ry="16.875" fill="#FDF7E1"/> <ellipse cx="187.89" cy="74.619" rx="33.394" ry="19.857" fill="#FDF7E1"/> <ellipse cx="266.96" cy="108.49" rx="21.972" ry="18.488" fill="#FDF7E1"/> <path d="m202.66 228.66c13.362-12.362 21.686-28.751 34-42.001 1.644-1.769-1.003-4.426-2.652-2.651-12.312 13.247-20.646 29.646-33.999 42-1.78 1.645 0.879 4.291 2.651 2.652z" fill="#DB7C27"/> <path d="m154.29 243.61c8.164-12.061 18.124-22.701 27.707-33.62 1.588-1.81-1.054-4.473-2.651-2.652-9.794 11.161-19.95 22.053-28.293 34.38-1.361 2.009 1.89 3.883 3.237 1.892z" fill="#DB7C27"/> <path d="m67.723 203.62c7.697 3.339 17.276 4.568 23.621 10.373 0.275-1.045 0.551-2.09 0.827-3.134-9.797 3.249-5.631 12.808-0.766 18.714 2.748 3.335 6.197 6.117 10.347 7.385 7.156 2.184 15.286-1.23 22.082-3.149 2.323-0.655 1.335-4.274-0.997-3.615-8.654 2.442-18.174 6.427-25.839-0.244-3.576-3.112-11.834-12.819-3.83-15.475 1.272-0.422 1.922-2.132 0.827-3.134-6.726-6.153-16.263-7.438-24.379-10.959-2.195-0.952-4.107 2.278-1.893 3.238z" fill="#DB7C27"/> <path d="m90.383 212.39c-5.068 7.052-2.007 13.979 4.293 18.938 1.436 1.13 3.582 0.129 3.134-1.824-1.388-6.047-3.043-11.898-2.6-18.168 0.129-1.824-2.052-2.22-3.201-1.326-9.471 7.365-3.479 17.173 4 23.318 1.541 1.266 4.202-0.372 2.945-2.272-3.852-5.825-7.503-11.883-7.744-19.054-0.081-2.411-3.831-2.42-3.75 0 0.264 7.869 4.009 14.524 8.256 20.946 0.982-0.757 1.963-1.515 2.945-2.272-5.855-4.811-11.804-11.945-4-18.014l-3.201-1.326c-0.467 6.603 1.271 12.791 2.734 19.164 1.045-0.607 2.089-1.216 3.134-1.824-4.967-3.908-7.868-8.604-3.707-14.394 1.415-1.968-1.84-3.837-3.238-1.892z" fill="#DB7C27"/> <path d="m288.86 195.5c-4.269 11.791-14.859 19.475-21.812 29.552-1.377 1.996 1.875 3.869 3.238 1.893 7.207-10.445 17.751-18.188 22.188-30.448 0.826-2.28-2.798-3.253-3.614-0.997z" fill="#DB7C27"/> <path d="m324.95 248.95c4.572-9.374 11.648-17.014 17.754-25.371 5.982-8.19 9.383-18.181 17.287-24.915-1.045-0.608-2.09-1.217-3.134-1.824-3.395 10.259-9.874 18.771-16.544 27.123-6.12 7.662-9.196 17.272-15.641 24.715-1.574 1.819 1.066 4.483 2.652 2.652 6.896-7.966 10.543-18.057 16.959-26.38 6.541-8.486 12.786-16.83 16.188-27.114 0.636-1.92-1.81-2.952-3.134-1.824-7.255 6.183-11.402 15.24-16.254 23.251-5.894 9.73-14.329 17.455-19.373 27.795-1.054 2.164 2.179 4.066 3.24 1.892z" fill="#DB7C27"/> <path d="m375.5 223.81c4.52 1.353 8.052-0.655 10.783-4.195 1.478-1.915-1.783-3.778-3.238-1.893-1.713 2.22-3.771 3.303-6.549 2.473-2.322-0.696-3.307 2.924-0.996 3.615z" fill="#DB7C27"/> <path d="m89.46 212c-0.443 8.9 3.655 18.353 10.929 23.619 1.963 1.421 3.831-1.835 1.893-3.238-6.201-4.489-9.444-12.896-9.071-20.381 0.12-2.418-3.631-2.406-3.751 0z" fill="#DB7C27"/> <path d="m102 235.88c1.707 0.218 2.228 0.342 3.832-0.067 1.266-0.322 1.606-1.685 1.121-2.754-3.44-7.579-11.071-12.271-13.811-20.218-0.667-1.935-3.737-1.707-3.683 0.498 0.331 13.58 10.476 22.334 23.875 21.875 2.412-0.083 2.419-3.833 0-3.75-11.305 0.387-19.842-6.517-20.125-18.125-1.228 0.166-2.456 0.332-3.683 0.498 2.884 8.366 10.603 13.213 14.189 21.114 0.374-0.918 0.747-1.836 1.121-2.754-1.018 0.259-1.82 0.062-2.834-0.067-2.396-0.306-2.367 3.448-2e-3 3.75z" fill="#DB7C27"/> <path d="m148.66 243.99c11.074-11.221 20.26-24.112 31.334-35.332 1.7-1.723-0.951-4.375-2.651-2.652-11.074 11.221-20.26 24.112-31.334 35.332-1.7 1.722 0.95 4.375 2.651 2.652z" fill="#DB7C27"/> <path d="m260 228.54c6.437 0.217 12.725 2.435 19.164 1.267 1.346-0.243 1.858-2.257 0.828-3.134-5.823-4.951-13.963-2.03-20.867-2.17-4.561-0.093-9.743-2.859-11.265-7.335-1.25-3.678 0.071-8.315 0.613-12.005-1.044 0.276-2.089 0.552-3.134 0.828 6.573 5.269 9.837 13.729 16.428 19.104 6.958 5.675 13.671 2.306 18.518-4.149 1.453-1.936-1.805-3.802-3.238-1.893-11.533 15.36-20.938-9.208-29.055-15.714-0.955-0.765-2.906-0.725-3.134 0.828-1.017 6.912-2.901 15.115 3.553 20.037 3.652 2.785 7.515 3.983 12.067 4.076 5.131 0.104 12.518-2.649 16.861 1.045 0.276-1.045 0.552-2.09 0.828-3.134-5.982 1.084-12.154-1.199-18.168-1.401-2.418-0.081-2.41 3.669 1e-3 3.75z" fill="#DB7C27"/> <path d="m179.53 174.84c-1.474 5.111-4.356 9.62-6 14.667-0.298 0.917 0.338 2.119 1.31 2.307 4.729 0.916 9.513 0.886 14.264 1.559 5.854 0.83 7.606 5.095 8.427 10.465 0.231 1.515 2.189 1.643 3.134 0.828 5.853-5.048 9.512-13.174 9.65-20.879 0.106-5.888-4.804-10.124-9.289-13.12-4.389-2.932-10.297-5.312-15.617-4-5.654 1.394-5.92 7.851-5.211 12.504 0.181 1.187 1.817 1.722 2.754 1.121 1.377-0.884 2.534-1.815 3.712-2.96 1.737-1.688-0.917-4.337-2.651-2.651-0.872 0.924-1.856 1.715-2.954 2.373 0.918 0.374 1.836 0.747 2.754 1.121-1.89-12.402 10.797-7.523 16.847-3.215 4.147 2.954 6.43 6.472 5.697 11.677-0.811 5.764-3.953 11.59-8.345 15.377 1.044 0.276 2.089 0.552 3.134 0.828-0.765-5.002-2.539-10.293-7.715-12.201-5.539-2.042-11.845-1.329-17.594-2.443 0.437 0.769 0.873 1.538 1.31 2.307 1.644-5.048 4.523-9.546 6-14.667 0.671-2.33-2.948-3.317-3.617-0.998z" fill="#FFD00D"/> <path d="m190.39 173.71c-6.437 2.725-7.948 8.867-13.045 12.96 1.044 0.608 2.089 1.216 3.134 1.824 0.861-5.466 1.447-14.312 8.705-14.575 2.824-0.102 5.658 3.098 7.711 4.689 1.832 1.42 3.749 2.467 5.943 3.196 1.704 0.565 2.757-1.383 2.118-2.754-0.982-2.107-1.742-2.888-3.626-4.379-1.69-1.337-3.848 0.279-2.945 2.272 3.443 7.6-0.02 14.577-0.256 22.388-0.061 2.009 2.48 2.364 3.494 0.946 5.456-7.632 8.564-20.661-2.705-24.921-9.102-3.441-16.095 3.609-15.457 12.641 0.168 2.387 3.747 2.442 3.75 0 4e-3 -3.855 0.049-7.677 0.6-11.501-1.228-0.166-2.456-0.333-3.683-0.499 4e-3 4.417 0.104 8.787 0.734 13.165 0.316 2.192 3.574 1.499 3.683-0.499 0.122-2.235 0.544-4.431 0.666-6.667-1.165 0.315-2.33 0.631-3.494 0.946 1.871 3.879 3.434 7.843 6 11.334 1.092 1.485 3.39 1.014 3.494-0.946 0.131-2.476 0.346-4.707-0.067-7.166-1.206 0.333-2.411 0.665-3.616 0.997 0.637 2.046 1.141 4.016 1.267 6.169 0.144 2.439 3.53 2.39 3.75 0 0.437-4.74-0.564-9.195-1.401-13.833-1.206 0.333-2.411 0.665-3.616 0.997 0.315 1.379 1.02 2.621 1.334 4 0.294 1.29 2.246 1.92 3.134 0.827 1.115-1.373 2.045-2.868 2.959-4.379-1.143-0.149-2.285-0.298-3.427-0.448 0.696 3.599 1.184 7.168 1.267 10.835 0.051 2.254 2.909 2.372 3.683 0.499 1.987-4.807 6.979-12.909 2.442-17.75-3.816-4.072-11.549-5.214-15.736-1.1-2.518 2.474-2.868 7.16-0.954 10.06 2.739 4.15 6.651 0.183 8.059-2.762 0.808-1.689-0.833-3.468-2.565-2.565-5.111 2.664-10.126 6.203-12.196 11.787-0.633 1.708 1.981 3.295 3.134 1.824 3.243-4.139 5.423-9.084 9.334-12.667l-3.201-1.326c0.553 6.734-1.215 14.357 4.929 18.952 0.857 0.641 2.044 0.098 2.565-0.673 4.713-6.966 3.98-16.725-1.627-22.938-0.885-0.98-2.908-0.559-3.134 0.827-0.988 6.068-1.086 12.287 1.505 18.004 2.331 5.145 5.061 4.221 8.963 1.153 1.9-1.493-0.773-4.128-2.651-2.651-3.253 2.556-3.579-1.596-4.234-4.171-0.936-3.677-0.567-7.649 0.034-11.338-1.045 0.276-2.089 0.551-3.134 0.827 4.533 5.023 4.786 12.858 1.041 18.394 0.855-0.225 1.71-0.448 2.565-0.673-4.454-3.33-2.675-10.889-3.071-15.713-0.134-1.629-1.939-2.482-3.201-1.326-3.955 3.622-6.068 8.498-9.334 12.667 1.044 0.608 2.089 1.216 3.134 1.824 1.697-4.58 6.346-7.396 10.472-9.546l-2.565-2.565c-0.864 1.808-1.622 3.883-2.228 1.131-0.487-2.21 0.865-4.345 2.916-5.065 4.581-1.609 9.856 1.52 8.947 6.515-0.626 3.443-2.497 6.658-3.824 9.867 1.228 0.166 2.456 0.333 3.683 0.499-0.091-4.003-0.642-7.906-1.401-11.832-0.321-1.66-2.64-1.749-3.427-0.448-0.742 1.227-1.467 2.506-2.373 3.621 1.044 0.276 2.089 0.551 3.134 0.827-0.315-1.379-1.02-2.621-1.334-4-0.544-2.382-4.04-1.348-3.616 0.997 0.777 4.304 1.672 8.44 1.267 12.835h3.75c-0.146-2.47-0.667-4.804-1.401-7.166-0.73-2.349-4.01-1.351-3.616 0.997 0.356 2.121 0.045 4.062-0.067 6.169 1.165-0.315 2.33-0.631 3.494-0.946-2.567-3.491-4.129-7.455-6-11.334-0.866-1.795-3.4-0.774-3.494 0.946-0.122 2.235-0.544 4.431-0.666 6.667 1.228-0.166 2.456-0.333 3.683-0.499-0.582-4.036-0.597-8.1-0.6-12.168-2e-3 -2.055-3.375-2.638-3.683-0.499-0.6 4.162-0.729 8.297-0.734 12.499h3.75c-0.465-6.579 4.013-11.994 10.844-8.955 8.446 3.757 4.231 13.885 0.329 19.343 1.165 0.315 2.33 0.631 3.494 0.946 0.269-8.907 3.657-15.643-0.256-24.28-0.982 0.757-1.963 1.515-2.945 2.272 1.628 1.289 2.198 1.815 3.04 3.621 0.706-0.918 1.412-1.836 2.118-2.754-6.377-2.116-9.843-9.158-17.282-7.7-7.577 1.485-8.726 10.886-9.691 17.009-0.3 1.906 1.623 3.038 3.134 1.824 4.778-3.835 6.278-9.83 12.287-12.373 2.218-0.94 0.305-4.169-1.894-3.239z" fill="#FFD00D"/> <path d="m120.38 194.39c-3.549 4.844-9.264 13.934-2.366 18.711 0.736 0.509 1.849 0.523 2.702 0.533 3.332 0.037 5.204 1.034 7.843 3.168 4.426 3.579 7.818 8.162 12.494 11.485 0.871 0.618 2.036 0.116 2.565-0.673 4.927-7.348 12.479-16.203 6.195-24.931-2.883-4.004-7.768-6.904-11.788-9.663-4.281-2.938-9.068-5.203-14.34-4.377-6.821 1.069-9.181 13.674-8.324 19.135 0.443 2.821 3.006 4.862 5.91 4.879 1.88 0.011 3.608-0.477 5.407-0.979 4.198-1.171 6.025 1.86 7.701 5.27l2.565-2.565c-3.099-1.998-5.689-4.45-8.288-7.041-1.714-1.708-4.366 0.943-2.651 2.652 2.828 2.819 5.684 5.458 9.046 7.627 1.691 1.091 3.341-0.986 2.565-2.565-2.837-5.773-6.375-8.544-12.754-6.765-3.625 1.011-6.072 0.64-5.798-3.568 0.234-3.59 1.431-7.492 3.082-10.672 3.829-7.377 19.488 5.856 22.944 8.967 7.919 7.124-0.31 16.141-4.712 22.704 0.855-0.225 1.71-0.448 2.565-0.673-5.782-4.109-10.472-12.645-17.541-14.655-2.271-0.646-5.492 0.306-6.5-2.161-1.608-3.936 2.493-8.919 4.714-11.95 1.434-1.955-1.823-3.823-3.236-1.893z" fill="#FFD00D"/> <path d="m124.68 199.34c-1.788 1.791-3.152 3.684-3.815 6.162-0.546 2.038 2.386 3.329 3.427 1.444 0.211-0.382-0.285 0.291 0.088-0.13 0.167-0.188 0.353-0.363 0.536-0.536 0.496-0.469 1.026-0.902 1.558-1.329 0.448-0.359 0.586-0.462 1.163-0.881 0.171-0.124 0.345-0.246 0.519-0.365 0.548-0.373 0.359 0.033-0.557 0.028l-1.875-1.875v9e-3c0.085-0.315 0.171-0.631 0.256-0.946 0.394-0.6 0.224-0.294 0.016-0.113-0.212 0.184-0.432 0.357-0.649 0.532-0.798 0.642-0.664 1.988 0 2.652 0.781 0.78 1.855 0.639 2.651 0 0.697-0.561 1.493-1.121 1.476-2.134-0.018-1.026-0.84-1.869-1.875-1.875-1.246-7e-3 -2.581 1.381-3.477 2.079-1.072 0.835-2.396 1.774-3.069 2.991 1.143 0.481 2.285 0.963 3.427 1.444 0.5-1.868 1.508-3.161 2.851-4.506 1.711-1.712-0.941-4.364-2.651-2.651z" fill="#FFD00D"/> <path d="m119.62 200.75c0.085 1.283 0.251 2.498 0.567 3.748 0.271 1.076 1.315 1.462 2.307 1.31 3.764-0.574 5.759-3.561 7.621-6.611 0.898-1.472-0.568-3.098-2.118-2.754-3.861 0.854-6.352 3.713-8.121 7.111-0.623 1.197 0.128 2.889 1.619 2.821 3.091-0.141 5.44-1.42 8.196-2.756-0.918-0.374-1.836-0.747-2.754-1.121 0.778 2.237 0.925 5.472 2.919 7.038 2.189 1.719 4.957-0.159 6.835-1.417-0.94-0.54-1.881-1.079-2.821-1.619-0.01 1.356-0.07 2.655-0.25 4-0.228 1.702 2.155 2.371 3.201 1.326 0.333-0.334 0.667-0.667 1-1l-3.201-1.326c0.01 1.438 0.082 2.822 0.25 4.25 0.134 1.136 1.106 2.23 2.374 1.808 0.25-0.083 0.5-0.166 0.75-0.25-0.769-0.437-1.538-0.873-2.307-1.31 0.344 1.966 0.435 3.845 1 5.75 0.427 1.438 2.062 1.722 3.134 0.828 0.5-0.417 1-0.834 1.5-1.25-1.044-0.608-2.089-1.217-3.134-1.824-0.57 2.443-0.354 4.132 1.232 6.074 1.531 1.874 4.167-0.796 2.651-2.652-0.089-0.809-0.178-1.617-0.268-2.426 0.447-1.916-1.713-3.008-3.134-1.824-0.5 0.417-1 0.834-1.5 1.25 1.044 0.276 2.089 0.552 3.134 0.828-0.559-1.881-0.664-3.828-1-5.75-0.17-0.971-1.404-1.61-2.307-1.31-0.25 0.083-0.5 0.166-0.75 0.25 0.791 0.603 1.583 1.205 2.374 1.808-0.168-1.428-0.24-2.812-0.25-4.25-0.011-1.631-2.038-2.489-3.201-1.326-0.333 0.334-0.667 0.667-1 1l3.201 1.326c0.18-1.345 0.24-2.644 0.25-4 0.01-1.358-1.624-2.421-2.821-1.619-1.169 0.783-2.521 2.463-3.12 0.513-0.398-1.296-0.679-2.608-1.125-3.892-0.418-1.202-1.619-1.672-2.754-1.121-2.052 0.995-3.902 2.135-6.304 2.244 0.54 0.94 1.08 1.881 1.619 2.821 1.333-2.562 2.913-4.731 5.879-5.389-0.706-0.918-1.412-1.836-2.118-2.754-1.346 2.205-2.584 4.461-5.379 4.889 0.769 0.437 1.538 0.873 2.307 1.31-0.273-0.895-0.417-1.812-0.433-2.752-0.159-2.4-3.91-2.415-3.75 0z" fill="#FFD00D"/> <path d="m182.38 176.8c-3.981 6.388 1.321 13.831 8.339 14.252 3.9 0.234 6.38-3.058 7.588-6.308 0.919-2.473-0.403-4.128 3.165-4.123 1.002-0.127 1.821 0.194 2.458 0.965 0.288 0.456 0.498 0.94 0.632 1.453-1.239-0.237-2.554-1.602-3.488-2.37-1.852-1.523-4.521 1.114-2.651 2.651 2.374 1.953 7.549 5.983 9.716 1.568 1.802-3.672-2.348-7.667-5.68-7.938-2.206-0.179-4.077-0.021-5.922 1.28-1.761 1.242-1.419 3.66-1.846 5.515-1.716 7.454-13.041 1.312-9.073-5.055 1.283-2.056-1.962-3.937-3.238-1.89z" fill="#FFD00D"/> <path d="m144.06 222.75c1.664-7.082 3.215-13.726-0.439-20.444-1.043-1.918-3.912-0.581-3.427 1.444 1.004 4.194 4.291 7.622 4.433 12.002 0.069 2.118 3.072 2.55 3.683 0.498 0.789-2.648 1.212-5.24 1.317-7.998 0.08-2.096-3.27-2.587-3.683-0.498-0.469 2.374-0.767 4.775-1.151 7.164-0.198 1.23-0.475 2.434-0.839 3.625-0.673 2.197-2.91-1.662-3.333-2.237-0.586-0.797-1.637-1.265-2.565-0.673-1.118 0.893-2.386 1.225-3.804 0.994-2.205-0.086-2.43 3.029-0.499 3.683 6.283 2.128 10.327-4.537 11.557-9.81 0.309-1.324-0.888-2.768-2.307-2.306-2.608 0.848-3.962 2.2-4.81 4.81-0.321 0.987 0.365 2.023 1.31 2.306 6.362 1.904 10.482-10.325 4.738-12.744-3.513-1.479-7.836 2.529-8.178 5.833-0.5 4.823 6.439 2.122 7.808 0.05-1.08-0.631-2.159-1.262-3.238-1.893-0.792 1.802-1.554 3.583-2.189 5.448-0.518 1.519 1.413 3.033 2.754 2.117 3.088-2.109 5.676-4.491 7.673-7.673 1.081-1.723-0.976-3.304-2.565-2.565-1.621 0.753-2.674 1.993-3.879 3.293l3.201 1.326c-0.16-2.438-0.179-4.833-0.567-7.248-0.174-1.086-1.389-1.457-2.307-1.31-3.637 0.583-6.706 2.272-9.948 3.938 0.631 1.079 1.262 2.159 1.893 3.238 2.236-1.23 4.37-2.469 6.379-4.043 1.691-1.325-0.498-4.067-2.272-2.945-3.092 1.956-6.306 3.468-9.802 4.562 0.706 0.918 1.412 1.836 2.118 2.754 1.53-2.14 3.772-3.101 6.077-4.077-0.757-0.981-1.515-1.963-2.272-2.945-3.205 3.587-7.894 5.164-12.121 7.207 0.757 0.981 1.515 1.963 2.272 2.945 2.172-1.873 4.784-3.07 7.121-4.707 2.016-1.412 0.307-4.181-1.893-3.238-3.194 1.369-6.14 3.268-9.552 4.062 0.706 0.918 1.412 1.836 2.118 2.754 1.07-1.992 2.551-3.617 3.957-5.37 1.226-1.529-0.39-4.27-2.272-2.945-1.484 1.045-2.938 2.074-4.5 3 0.918 0.706 1.836 1.412 2.754 2.117 0.283-1.775 1.114-3.328 1.75-5 0.487-1.279-1.023-2.8-2.307-2.306-2.545 0.979-4.704 2.275-6.827 3.981-1.656 1.331 0.547 4.184 2.272 2.945 2.165-1.555 5.318-4.17 5.429-7.119 0.051-1.368 0.443-4.915-0.878-1.883-0.573 1.314-1.293 2.541-1.805 3.885-0.649 1.704 1.993 3.296 3.134 1.824 1.891-2.439 3.648-4.984 5.75-7.25h-2.651c2.743 2.297 3.94 6.883 7.249 8.547 2.277 1.146 6.058 0.296 6.334-2.753 0.302-3.347-3.638-5.19-6.431-5.601-4.196-0.616-9.124 0.568-11.902 3.904-0.807 0.97-0.692 2.872 0.827 3.134 4.101 0.708 7.72 0.2 11.445-1.688-0.918-0.706-1.836-1.412-2.754-2.117-0.702 2.295-0.756 4.468 1.778 5.4 2.224 0.817 4.889-1.293 7.029-1.595 1.126-0.158 1.8-1.856 1.121-2.754-3.536-4.665-12.375-11.443-18.618-10.112-2.364 0.504-1.361 4.119 0.997 3.616 4.166-0.888 12.054 5.317 14.382 8.389 0.374-0.918 0.747-1.836 1.121-2.754-0.856 0.12-1.642 0.448-2.447 0.752-1.325 0.5-2.158 1.401-1.746 0.054 0.509-1.663-1.355-2.826-2.754-2.117-2.788 1.414-5.45 1.847-8.555 1.312 0.276 1.044 0.552 2.089 0.827 3.134 2.793-3.354 8.504-3.596 10.957-1.669-2.604-2.046-3.66-5.6-6.207-7.733-0.759-0.636-1.912-0.797-2.651 0-2.108 2.272-3.854 4.803-5.75 7.25 1.044 0.608 2.089 1.217 3.134 1.824 1.436-3.769 4.875-8.249-0.485-10.244-1.756-0.653-3.372 1.357-4.192 2.549-0.396 0.576-0.312 1.491-0.22 2.136 0.428 2.981-0.976 4.731-3.357 6.441 0.757 0.981 1.515 1.963 2.272 2.945 1.652-1.328 3.19-2.255 5.173-3.019-0.769-0.769-1.538-1.537-2.307-2.306-0.664 1.744-1.455 3.151-1.75 5-0.246 1.54 1.214 3.03 2.754 2.117 1.562-0.926 3.016-1.956 4.5-3-0.757-0.981-1.515-1.963-2.272-2.945-1.616 2.017-3.315 3.843-4.543 6.13-0.792 1.475 0.496 3.132 2.118 2.754 3.738-0.869 6.949-2.939 10.448-4.438-0.631-1.079-1.262-2.159-1.893-3.238-2.611 1.829-5.455 3.202-7.879 5.293-1.709 1.474 0.463 3.819 2.272 2.945 4.542-2.195 9.439-3.943 12.879-7.793 1.5-1.679-0.36-3.755-2.272-2.945-3.026 1.282-5.502 2.736-7.423 5.423-0.97 1.356 0.626 3.221 2.118 2.754 3.805-1.189 7.327-2.807 10.698-4.938-0.757-0.981-1.515-1.963-2.272-2.945-1.75 1.371-3.683 2.392-5.621 3.457-2.128 1.171-0.248 4.339 1.893 3.238 2.948-1.516 5.747-3.031 9.052-3.562-0.769-0.437-1.538-0.873-2.307-1.31 0.332 2.068 0.296 4.169 0.433 6.252 0.101 1.539 2.017 2.604 3.201 1.326 0.979-1.057 1.766-2.078 3.121-2.707l-2.565-2.565c-1.692 2.696-3.711 4.54-6.327 6.327 0.918 0.706 1.836 1.412 2.754 2.117 0.483-1.563 1.087-3.081 1.811-4.552 0.958-2.181-1.879-3.949-3.238-1.893-0.234 0.354 2.255-0.537 2.207-0.544 0.104 0.015 0.207 1.271 0.21 1.613 0.01 1.293-0.764 4.604-2.549 4.069 0.437 0.769 0.873 1.537 1.31 2.306 0.73-0.729 1.46-1.46 2.19-2.19-0.769-0.769-1.538-1.537-2.307-2.306-0.713 3.058-2.775 8.602-6.943 7.19-0.166 1.228-0.333 2.455-0.499 3.683 2.147 0.084 3.881-0.349 5.696-1.506-0.855-0.225-1.71-0.448-2.565-0.673 2.011 2.734 5.214 6.98 8.758 3.957 3.098-2.644 2.703-9.783 3.419-13.405-1.228-0.166-2.456-0.332-3.683-0.498-0.092 2.421-0.494 4.688-1.183 7.002 1.228 0.166 2.456 0.332 3.683 0.498-0.161-4.929-3.456-8.357-4.567-12.998-1.143 0.481-2.285 0.963-3.427 1.444 3.113 5.724 1.463 11.588 0.061 17.556-0.558 2.353 3.058 3.352 3.611 0.997z" fill="#FFD00D"/> <path d="m54.547 149.93c-6.384 0.765-7.956 6.915-11.158 11.541-0.432 0.624-0.327 1.791 0.293 2.272 5.57 4.323 11.578 7.943 17.532 11.703 3.565 2.251 7.208 4.557 10.252 7.493 1.895 1.827 3.716 3.58 6.398 3.988 1.374 0.209 2.705-0.804 2.307-2.307-0.344-1.296-0.645-1.824-1.893-2.321-0.554-0.221-1.452 0.017-1.824 0.482-1.468 1.831-0.55 3.364 1.41 4.146 1.36 0.542 2.674-1.043 2.307-2.307-0.689-2.371-1.774-4.579-2.464-6.951-0.674-2.317-4.292-1.331-3.616 0.997 0.689 2.371 1.774 4.579 2.464 6.951l2.307-2.307-2.307 2.307 2.307-2.307c-2.851-0.434-4.646-3.039-6.708-4.822-2.318-2.005-5.016-3.659-7.574-5.335-6.106-4.001-12.467-7.576-18.247-12.061 0.098 0.757 0.196 1.515 0.293 2.272 2.068-2.987 3.72-9.18 7.92-9.683 2.371-0.285 2.399-4.038 1e-3 -3.751z" fill="#FFD00D"/> <path d="m69.077 156.91c-2.03-0.541-3.727-1.875-5.451-3.022-2.02-1.344-3.896 1.906-1.893 3.238 2.009 1.336 3.979 2.77 6.346 3.4 2.34 0.623 3.332-2.995 0.998-3.616z" fill="#FFD00D"/> <path d="m77.916 178.79c-1.255-3.67-1.983-7.449-2.466-11.292-0.297-2.366-4.051-2.395-3.75 0 0.525 4.178 1.234 8.294 2.6 12.289 0.777 2.274 4.4 1.298 3.616-0.997z" fill="#FFD00D"/> <path d="m46.644 164.3c2.379-1.474 4.562-3.217 6.596-5.136-0.981-0.757-1.963-1.515-2.945-2.272-1.716 2.656-3.747 5.088-5.465 7.743-1.151 1.779 1.54 3.882 2.945 2.272 2.035-2.332 3.916-4.809 6.344-6.756l-3.201-1.326c-0.055 0.766 0.128 1.506 0.233 2.262 0.212 1.534 2.196 1.617 3.134 0.827 0.781-0.657 1.445-1.339 1.926-2.247 1.132-2.135-2.104-4.029-3.238-1.893-0.335 0.633-0.796 1.031-1.339 1.488 1.044 0.276 2.089 0.551 3.134 0.827-0.061-0.438-0.131-0.822-0.099-1.265 0.129-1.807-2.057-2.243-3.201-1.326-2.429 1.947-4.309 4.424-6.344 6.756 0.981 0.757 1.963 1.515 2.945 2.272 1.717-2.655 3.748-5.087 5.465-7.743 1.19-1.842-1.434-3.697-2.945-2.272-1.81 1.706-3.722 3.238-5.837 4.549-2.052 1.273-0.17 4.518 1.892 3.24z" fill="#FFD00D"/> <path d="m76.719 181.62c-4.737-4.43-10.161-7.835-15.568-11.375-4.138-2.709-8.897-7.878-14.283-7.168-1.218 0.161-2.584 1.538-1.619 2.821 0.86 1.143 1.838 2.177 2.78 3.252 1.685 1.922 1.319-1.163 0.204-2.111-0.424-0.361-2.675-2.593-1.839-3.229-0.918-0.374-1.836-0.747-2.754-1.121 0.628 3.148 2.517 6.334 4.707 8.64 0.758 0.798 2.062 1.282 3.139 1.282 1.042 0 2.044-0.418 2.995-0.78 2.365-0.9 4.264 1.203 5.766 2.499 1.554 1.34 4.109-0.367 2.945-2.272-3.066-5.015-11.44-7.122-12.544-13.138-0.38-2.068-3.92-1.602-3.683 0.499 0.257 2.283 0.706 4.054 2.284 5.776 1.129 1.234 3.191 0.252 3.201-1.326 8e-3 -1.395-0.021-2.762 0.086-4.154-1.165 0.315-2.33 0.631-3.494 0.946 0.834 1.101 1.49 2.203 2.132 3.423 0.825 1.567 2.888 0.953 3.427-0.448 0.396-0.86 0.676-1.757 0.839-2.691-1.143 0.149-2.285 0.298-3.427 0.448 1.818 2.923 2.726 6.255 4.681 9.098 0.777 1.129 2.496 1.29 3.238 0 1.368-2.376 1.074-4.631 0.715-7.264-1.206 0.333-2.411 0.665-3.616 0.997 0.428 2.322 1.066 4.338 2.152 6.424 0.937 1.8 3.33 0.761 3.494-0.946 0.189-1.968 0.213-3.932 0.297-5.906-1.165 0.315-2.33 0.631-3.494 0.946 1.67 2.209 2.804 4.716 4.348 7.01 0.844 1.255 3.06 1.247 3.427-0.448 0.526-2.425 0.373-4.814 0.468-7.28-1.228 0.166-2.456 0.333-3.683 0.499 0.099 1.013 0.301 2.005 0.605 2.976 0.519 2.025 3.811 1.638 3.683-0.499-0.035-0.857-0.104-1.712-0.208-2.564-0.24-2.382-3.992-2.406-3.75 0 0.104 0.852 0.173 1.707 0.208 2.564 1.228-0.166 2.456-0.333 3.683-0.499-0.305-0.971-0.506-1.963-0.605-2.976-0.323-2.174-3.604-1.519-3.683 0.499-0.082 2.105 0.117 4.204-0.334 6.283 1.143-0.149 2.285-0.298 3.427-0.448-1.543-2.294-2.677-4.801-4.348-7.01-1.095-1.448-3.41-1.042-3.494 0.946-0.083 1.974-0.107 3.938-0.297 5.906 1.165-0.315 2.33-0.631 3.494-0.946-0.979-1.88-1.399-3.496-1.774-5.528-0.445-2.416-3.934-1.333-3.616 0.997 0.391 1.487 0.279 2.945-0.337 4.374h3.238c-1.952-2.838-2.865-6.178-4.681-9.098-0.828-1.331-3.033-1.182-3.427 0.448-0.163 0.934-0.442 1.831-0.839 2.691 1.143-0.149 2.285-0.298 3.427-0.448-0.643-1.221-1.298-2.323-2.132-3.423-1.125-1.486-3.345-1.011-3.494 0.946-0.106 1.392-0.078 2.759-0.086 4.154l3.201-1.326c-0.395-1.042-0.79-2.083-1.185-3.125-1.228 0.166-2.456 0.333-3.683 0.499 1.29 7.021 9.554 8.522 12.922 14.033 0.982-0.757 1.963-1.515 2.945-2.272-2.328-2.008-4.471-3.879-7.659-3.921-2.566-0.033-3.766 1.981-5.791-1.081-0.992-1.5-1.839-3.217-2.192-4.984-0.219-1.099-1.819-1.832-2.754-1.121-4.284 3.26-0.449 9.811 4 11.052 1.494 0.417 3.976 0.484 3.976-1.744 0-2.363-2.71-4.173-3.989-5.874-0.54 0.94-1.08 1.881-1.619 2.821 4.294-0.566 9.057 4.426 12.391 6.657 5.114 3.421 10.291 6.563 14.809 10.789 1.76 1.65 4.417-0.997 2.647-2.651z" fill="#FFD00D"/> <path d="m67.379 171.02c1.403 4.268 2.22 12.699 8.12 12.923 1.212 0.046 2.141-1.233 1.808-2.374-1.242-4.247-5.808-6.113-8.82-8.979-2.058-1.958-3.941-4.088-6.005-6.042-1.973-1.869-5.119-2.657-6.083-5.453-0.784-2.271-4.407-1.295-3.616 0.997 1.495 4.332 6.012 6.024 9.091 9.093 2.009 2.002 3.913 4.081 6.038 5.965 1.908 1.692 5.012 2.791 5.779 5.417 0.603-0.791 1.206-1.583 1.808-2.374-2.791-0.106-3.817-8.083-4.503-10.17-0.752-2.286-4.374-1.307-3.617 0.997z" fill="#FFD00D"/> <path d="m53.203 161.72c6.193 5.574 12.66 10.958 17.562 17.762 1.4 1.942 4.655 0.074 3.238-1.893-5.107-7.088-11.694-12.712-18.149-18.521-1.792-1.612-4.453 1.032-2.651 2.652z" fill="#FFD00D"/> <path d="m73.413 177.08c-6.111-4.467-11.555-9.745-17.31-14.645-1.83-1.558-4.496 1.082-2.651 2.651 6.002 5.11 11.695 10.572 18.069 15.232 1.955 1.43 3.823-1.826 1.892-3.238z" fill="#FFD00D"/> <path d="m63.137 154.95c-0.714 1.253-1.465 2.481-2.067 3.794-0.612 1.335 0.408 3.38 2.118 2.754 1.089-0.399 2.154-0.859 3.243-1.258-0.791-0.603-1.583-1.206-2.374-1.808-0.063 0.961-0.328 1.858-0.667 2.756-0.728 1.925 1.846 2.907 3.134 1.824 1.198-1.007 2.38-2.032 3.604-3.007 0.801-0.638 0.662-1.99 0-2.651-0.783-0.783-1.853-0.636-2.651 0-1.224 0.975-2.406 2-3.604 3.007 1.044 0.608 2.089 1.216 3.134 1.824 0.461-1.22 0.715-2.452 0.801-3.753 0.077-1.157-1.267-2.213-2.374-1.808-1.089 0.399-2.154 0.859-3.243 1.258 0.706 0.918 1.412 1.836 2.118 2.754 0.602-1.313 1.353-2.541 2.067-3.794 1.198-2.104-2.043-3.992-3.239-1.892z" fill="#FFD00D"/> <path d="m56.356 152.11c-4.216-0.672-8.378 0.787-7.969 5.754 0.127 1.548 1.987 2.587 3.201 1.326 0.972-1.01 2.017-1.729 3.242-2.392l-2.754-2.118c-0.263 0.693-0.584 1.358-0.963 1.994-0.84 1.531 0.526 3.039 2.118 2.754 2.347-0.42 4.158-1.677 5.871-3.283-0.981-0.757-1.963-1.515-2.945-2.272-0.505 1.187-1.114 2.278-1.78 3.382-1.182 1.959 1.37 3.513 2.945 2.272 0.748-0.589 1.493-1.18 2.24-1.769-0.981-0.757-1.963-1.515-2.945-2.272-2.005 3.284-3.989 6.576-5.802 9.971-0.962 1.802 1.544 3.984 2.945 2.272 2-2.442 3.979-4.898 6.093-7.244-0.981-0.757-1.963-1.515-2.945-2.272-1.247 1.936-2.453 3.791-3.29 5.946-0.713 1.839 1.877 3.039 3.134 1.824 2.939-2.84 5.805-5.755 8.748-8.591 1.744-1.681-0.911-4.329-2.651-2.651-2.943 2.836-5.809 5.75-8.748 8.591 1.044 0.608 2.089 1.216 3.134 1.824 0.71-1.829 1.856-3.412 2.912-5.051 1.151-1.788-1.517-3.856-2.945-2.272-2.114 2.346-4.093 4.801-6.093 7.244 0.981 0.757 1.963 1.515 2.945 2.272 1.812-3.395 3.797-6.687 5.802-9.971 1.194-1.956-1.374-3.51-2.945-2.272-0.748 0.589-1.493 1.18-2.24 1.769 0.981 0.757 1.963 1.515 2.945 2.272 0.666-1.104 1.274-2.195 1.78-3.382 0.803-1.885-1.291-3.822-2.945-2.272-1.281 1.2-2.468 2.005-4.217 2.318 0.706 0.918 1.412 1.836 2.118 2.754 0.516-0.941 0.934-1.898 1.341-2.89 0.671-1.632-1.458-2.819-2.754-2.118-1.506 0.814-2.813 1.744-4 2.979l3.201 1.326c-0.188-2.277 1.282-2.447 3.222-2.138 2.362 0.38 3.377-3.234 0.994-3.614z" fill="#FFD00D"/> <path d="m71.423 159.13c-3.414-2.836-7.399-4.572-11.551-6.044-2.285-0.81-3.26 2.814-0.997 3.616 3.503 1.242 7.01 2.681 9.896 5.079 1.846 1.534 4.514-1.104 2.652-2.651z" fill="#FFD00D"/> <path d="m52.594 164.5c3.703 3.229 7.985 5.711 11.537 9.117 2.873 2.754 5.264 5.492 9.114 6.85 1.196 0.421 2.331-0.664 2.374-1.808 0.056-1.494-0.126-2.819-0.436-4.271-0.584-2.748-0.52-5.068-0.312-7.835 0.181-2.414-3.571-2.396-3.75 0-0.147 1.969-0.339 3.852-0.177 5.825 0.177 2.151 1.007 4.084 0.925 6.282 0.791-0.603 1.583-1.206 2.374-1.808-3.858-1.36-6.35-4.973-9.326-7.597-3.048-2.688-6.604-4.732-9.67-7.406-1.815-1.582-4.479 1.059-2.653 2.651z" fill="#FFD00D"/> <path d="m69.729 162.47c-0.502 0.751-1.005 1.503-1.508 2.255 1.143 0.149 2.285 0.298 3.427 0.448-0.077-0.509-0.153-1.017-0.229-1.526-0.273-1.816-2.587-1.552-3.427-0.448-1.223 1.608-2.484 3.173-3.351 5.011-0.605 1.284 0.427 3.464 2.118 2.754 2.622-1.101 4.543-2.961 6.449-5.021 1.64-1.771-1.006-4.43-2.651-2.651-1.393 1.505-2.856 3.243-4.795 4.057 0.706 0.918 1.412 1.836 2.118 2.754 0.866-1.838 2.127-3.403 3.351-5.011-1.143-0.149-2.285-0.298-3.427-0.448 0.077 0.508 0.153 1.017 0.229 1.526 0.262 1.747 2.629 1.642 3.427 0.448 0.502-0.751 1.005-1.503 1.508-2.255 1.348-2.016-1.902-3.891-3.239-1.893z" fill="#FFD00D"/> <path d="m67.053 159.02c0.16 3.399 0.695 6.452 2.171 9.539 0.913 1.908 4.18 0.542 3.427-1.445-0.572-1.508-1.257-2.94-1.587-4.526-0.433-2.076-3.778-1.604-3.683 0.499 0.325 7.191-1.849 16.816 5.979 20.801 1.375 0.7 3.303-0.454 2.754-2.118-2.379-7.22-7.578-12.687-11.307-19.179-1.045-1.819-4.106-0.603-3.427 1.445 2.013 6.071 6.519 6.422 8.741 0.239-1.045 0.276-2.089 0.551-3.134 0.827 0.341 0.699 0.682 1.398 1.022 2.098 0.314 1.263 2.244 1.951 3.134 0.827 0.859-1.084 1.503-2.086 2.085-3.354 1.002-2.181-2.229-4.088-3.238-1.893-0.366 0.939-0.865 1.805-1.499 2.596 1.044 0.276 2.089 0.551 3.134 0.827-0.382-1.536-0.928-2.579-1.987-3.752-1.013-1.123-2.687-0.417-3.134 0.827-0.483 1.345-1.141 0.872-1.509-0.239-1.143 0.482-2.285 0.963-3.427 1.445 3.547 6.175 8.668 11.421 10.929 18.283l2.754-2.118c-6.135-3.123-3.868-11.947-4.122-17.562-1.228 0.166-2.456 0.333-3.683 0.499 0.337 1.62 1.002 2.981 1.587 4.526 1.143-0.482 2.285-0.963 3.427-1.445-1.195-2.499-1.53-4.904-1.659-7.646-0.112-2.408-3.862-2.42-3.748-1e-3z" fill="#FFD00D"/> <path d="m70.166 165.33c-0.125 4.505 0.561 8.958 0.656 13.456 1.165-0.315 2.33-0.631 3.494-0.946-2.923-6.196-4.198-12.713-4.05-19.551 0.053-2.419-3.698-2.415-3.75 0-0.163 7.511 1.356 14.65 4.562 21.444 0.813 1.723 3.532 0.84 3.494-0.946-0.095-4.498-0.781-8.951-0.656-13.456 0.067-2.42-3.683-2.414-3.75-1e-3z" fill="#FFD00D"/> <path d="m65.91 155.08c-4.341 0.987-9.481 3.814-6.621 8.942 0.673 1.207 2.571 1.231 3.238 0 0.729-1.347 1.015-2.671 0.989-4.201-1.228 0.166-2.456 0.333-3.683 0.499 0.599 1.601 1.254 3.131 2.279 4.51 0.827 1.111 2.447 1.296 3.238 0 0.942-1.543 1.175-3.216 1.325-4.99h-3.75c0.122 1.96 0.35 3.906 0.604 5.854 0.303 2.319 3.871 2.477 3.75 0-0.078-1.599 0.119-3.113 0.417-4.682 0.448-2.35-2.938-3.347-3.616-0.997-0.44 1.525-0.54 3.059-0.53 4.641 0.013 2.093 3.179 2.586 3.683 0.499 0.311-1.289 0.556-2.585 0.776-3.893-1.228-0.166-2.456-0.333-3.683-0.499 0.041 0.455 0.089 0.91 0.146 1.363 0.185 1.598 1.91 2.516 3.201 1.326 0.168-0.154 0.335-0.309 0.503-0.464-1.044-0.276-2.089-0.551-3.134-0.827 0.553 1.344 0.949 2.73 1.651 4.01 0.765 1.395 3.065 1.131 3.427-0.448 0.441-1.921 0.634-3.873 0.844-5.83-1.228 0.166-2.456 0.333-3.683 0.499 0.044 0.367 0.049 0.734 0.016 1.103 1.165-0.315 2.33-0.631 3.494-0.946-1.768-2.548-4.38-4.151-6.437-6.422-1.627-1.796-4.271 0.864-2.651 2.651 1.819 2.008 4.296 3.422 5.85 5.663 1.055 1.521 3.417 0.987 3.494-0.946 0.029-0.719-0.048-1.389-0.15-2.1-0.323-2.259-3.477-1.422-3.683 0.499-0.175 1.626-0.344 3.236-0.71 4.833 1.143-0.149 2.285-0.298 3.427-0.448-0.543-0.991-0.845-2.073-1.273-3.115-0.535-1.302-2.01-1.863-3.134-0.827-0.168 0.154-0.335 0.309-0.503 0.464l3.201 1.326c-0.056-0.454-0.105-0.908-0.146-1.363-0.19-1.945-3.306-2.738-3.683-0.499-0.22 1.308-0.465 2.604-0.776 3.893 1.228 0.166 2.456 0.333 3.683 0.499-8e-3 -1.259 0.044-2.426 0.396-3.644-1.206-0.333-2.411-0.665-3.616-0.997-0.36 1.887-0.646 3.752-0.551 5.679h3.75c-0.254-1.947-0.482-3.893-0.604-5.854-0.151-2.431-3.547-2.398-3.75 0-0.094 1.117-0.221 2.127-0.813 3.097h3.238c-0.834-1.122-1.412-2.306-1.901-3.614-0.709-1.896-3.72-1.735-3.683 0.499 0.014 0.866-0.057 1.531-0.478 2.308h3.238c-1.296-2.324 2.764-3.066 4.379-3.434 2.359-0.537 1.359-4.152-0.995-3.617z" fill="#FFD00D"/> <path d="m59.999 158.74c0.065-0.108 0.135-0.215 0.207-0.319 0.329-0.492-0.211 0.234 0.17-0.213 0.202-0.236 0.429-0.451 0.659-0.659 0.295-0.267 0.727-0.549 1.296-0.867 0.891-0.498 1.182-1.697 0.673-2.565-0.524-0.894-1.673-1.171-2.565-0.673-1.488 0.832-2.768 1.954-3.678 3.404-0.543 0.866-0.188 2.062 0.673 2.565 0.902 0.529 2.023 0.191 2.565-0.673z" fill="#FFD00D"/> <path d="m51.974 152.49c3.014 2.94 6.683 3.179 10.393 4.828 4.377 1.945 6.941 7.349 9.555 11.09 0.804 1.151 2.456 1.262 3.238 0 2.841-4.585-2.747-15.089-7.146-17.097-6.472-2.953-13.988 2.604-10.773 9.445 0.325 0.692 1.397 1.149 2.118 0.862 3.396-1.357 4.954-4.55 8.109-6.185-0.94-0.54-1.881-1.08-2.821-1.619 5e-3 0.809 0.12 1.593 0.125 2.402 0.014 2.109 3.138 2.564 3.683 0.499 0.209-0.793 0.419-1.586 0.629-2.378-1.045 0.276-2.089 0.551-3.134 0.827 6.22 7.462 8.569 18.771 9.39 28.08 1.228-0.166 2.456-0.333 3.683-0.499-0.159-0.923-0.344-1.377-0.732-2.224-1.006-2.196-4.238-0.289-3.238 1.893 0.118 0.443 0.236 0.885 0.354 1.328 0.357 2.08 3.868 1.601 3.683-0.499-0.918-10.413-3.573-22.434-10.489-30.731-0.921-1.105-2.796-0.449-3.134 0.827-0.21 0.793-0.419 1.585-0.629 2.378 1.228 0.166 2.456 0.333 3.683 0.499-5e-3 -0.809-0.12-1.593-0.125-2.402-8e-3 -1.474-1.572-2.267-2.821-1.619-2.786 1.444-4.317 4.649-7.213 5.807 0.706 0.287 1.412 0.575 2.118 0.862-2.433-5.178 5.969-5.43 8.093-2.129 1.101 1.712 4.651 7.681 3.35 9.78h3.238c-2.553-3.655-4.804-7.43-8.115-10.469-3.616-3.319-8.998-2.87-12.42-6.208-1.732-1.689-4.385 0.961-2.652 2.652z" fill="#FFD00D"/> <path d="m289.69 128.5c-1.149 6.315-3.731 12.235-4.528 18.63-0.348 2.791-0.055 8.06 2.721 9.737 0.981 0.593 2.426 0.481 3.52 0.58 3.117 0.283 6.645 1.558 8.849 3.777 3.618 3.642 2.252 12.097 2.872 16.774 0.22 1.66 1.854 2.432 3.201 1.326 11.467-9.41 21.257-25.733 23.981-40.327 0.233-1.246-0.853-2.881-2.306-2.307-4.327 1.711-9.144 3.999-13.054 0.417-3.554-3.256-6.31-7.34-9.843-10.649-2.44-2.286-5.592-4.474-9.081-4.135-4.066 0.395-5.802 4.842-6.832 8.176-0.609 1.969 1.779 2.893 3.134 1.824 1.538-1.213 3.425-1.774 5.12-2.707-0.94-0.54-1.881-1.08-2.821-1.619-0.232 3.006-1.438 5.697-2.433 8.501-0.61 1.718 1.958 3.284 3.134 1.824 1.265-1.57 2.735-2.93 4-4.5-1.045-0.608-2.09-1.216-3.134-1.824-0.618 3.335-1.398 6.601-1.567 9.999-0.06 1.198 1.246 2.16 2.373 1.808 1.662-0.518 3.339-0.982 5-1.5-0.791-0.603-1.582-1.206-2.373-1.808-0.531 4.942-0.769 9.669 0.567 14.499 0.39 1.412 2.101 1.76 3.134 0.827 1.885-1.702 3.591-3.111 4.793-5.379-1.143-0.149-2.285-0.298-3.427-0.448v2.003c-0.519 1.898 1.762 3.02 3.134 1.824 0.981-0.856 2.018-1.644 3-2.5-1.045-0.276-2.09-0.551-3.134-0.827 1.449 6.549 1.209 14.936-2.812 20.555 1.143 0.149 2.285 0.298 3.427 0.448-1.426-5.932-2.342-11.893-2.433-18.001-1.165 0.315-2.329 0.631-3.494 0.946 2.043 3.629 2.553 6.987 1.812 11.055-0.442 2.422 2.698 3.205 3.615 0.997 2-4.812 2.867-9.332 2-14.497-0.357-2.132-3.683-1.562-3.683 0.499v3c0 2.056 3.373 2.637 3.683 0.499 0.812-5.591-2.428-8.159-7.808-8.374 0.54 0.94 1.079 1.881 1.619 2.821 0.5-0.667 1-1.333 1.5-2 1.156-1.542-1.052-3.511-2.565-2.565-0.771 0.482-1.134 0.932-1.673 1.673-1.118 1.537 1.045 3.553 2.565 2.565 0.466-0.369 0.983-0.64 1.552-0.811-0.481-1.143-0.963-2.285-1.444-3.427-4.703 2.572-8.315 6.829-14.054 6.744 0.603 0.791 1.205 1.583 1.808 2.374 1.634-6.725 3.969-13.249 5.5-20 0.459-2.021-2.375-3.373-3.427-1.445-1.911 3.501-8.876 11.547-6 15.893 4.191 6.333 11.416 0.589 13.738-4.5 0.678-1.485-0.901-3.846-2.565-2.565-1.82 1.401-3.272 2.852-4.673 4.673-1.323 1.72 1.486 3.749 2.945 2.272 1.66-1.68 2.594-3.15 3.481-5.327 0.64-1.568-1.457-2.921-2.754-2.118-4.67 2.895-4.467 8.43 1.446 8.994-0.54-0.94-1.079-1.881-1.619-2.821-1.192 2.048-2.682 7.428 1.331 7.573 5.575 0.202 7.265-6.781 9.407-10.681-1.143-0.149-2.285-0.298-3.427-0.448 0.972 2.781 1.509 5.601 2 8.5 0.176 1.042 1.389 1.515 2.306 1.31 3.812-0.854 6.77-3.014 9.948-5.189-0.94-0.54-1.881-1.08-2.821-1.619-0.114 1.593-0.472 2.991-0.933 4.501-0.466 1.526 1.378 3.035 2.754 2.118 0.5-0.333 1-0.667 1.5-1l-2.565-2.565c-2.763 4.29-4.969 9.065-8.707 12.621 1.045 0.276 2.09 0.551 3.134 0.827-0.801-5.204-0.458-10.346 0.5-15.503-1.205-0.333-2.41-0.665-3.615-0.997-0.355 2.038-0.165 3.936-0.067 5.999 0.08 1.699 2.678 2.771 3.494 0.946 1.115-2.493 2.445-4.808 3.188-7.448h-3.615c0.144 0.667 0.288 1.334 0.433 2.001 0.067 1.352 1.563 2.425 2.821 1.619 2.221-1.423 4.523-2.378 6.38-4.293-0.982-0.757-1.964-1.515-2.945-2.272-1.12 2.029-2.38 3.971-3.5 6 1.165 0.315 2.329 0.631 3.494 0.946v-1c0-1.488-2.15-2.681-3.201-1.326-2.228 2.872-4.274 5.857-6.293 8.879 1.079 0.631 2.159 1.262 3.238 1.893l3-6c-1.143-0.481-2.285-0.963-3.427-1.445-0.363 1.529-0.542 2.921-0.567 4.499-0.022 1.389 1.621 2.38 2.821 1.619 2.792-1.771 5.217-3.779 7.38-6.293-1.045-0.608-2.09-1.216-3.134-1.824-1.535 3.927-3.43 7.574-5.812 11.052 1.079 0.631 2.159 1.262 3.238 1.893 3.729-5.798 10.825-11.376 10.256-18.946-0.095-1.264-1.12-2.067-2.373-1.808-2.794 0.577-5.076 1.229-7.328 2.982-0.953 0.742-0.59 2.416 0.38 2.945 1.171 0.639 2.171 0.38 3.444 0.189-0.769-0.769-1.537-1.538-2.306-2.307-0.345 1.085-0.706 1.86-0.567 2.999 0.136 1.112 1.109 2.26 2.373 1.808 4.146-1.482 6.428-4.177 7.81-8.31 0.517-1.542-1.4-3-2.754-2.118-4.688 3.054-8.257 7.947-11.485 12.423-3.152 4.371-7.009 10.064-6.943 15.696 0.019 1.614 2.042 2.512 3.201 1.326 4.312-4.411 4.466-12.448 4.232-18.195-0.119-2.952-0.651-5.907-1.939-8.577-1.686-3.493-5.831-5.207-8.66-7.551-2.746-2.274-0.686-5.16-1.043-8.248-0.238-2.061-1.755-3.798-3.87-4.02-5.901-0.62-7.338 7.756-9.165 11.819-0.572 1.273 0.09 2.796 1.619 2.821 5.453 0.088 9.348-3.152 12.826-7.049-1.045-0.276-2.09-0.551-3.134-0.827 0.578 3.479-1.059 6.282-2.812 9.055-1.135 1.796 1.507 3.852 2.945 2.272 2.472-2.715 4.31-5.803 6.293-8.879-1.143-0.481-2.285-0.963-3.427-1.445-0.909 4.801-3.676 9.013-5.5 13.5-0.705 1.734 1.958 3.214 3.134 1.824 3.136-3.708 3.027-8.549 5.793-12.379h-3.238c1.771 3.437-2.238 8.677-3.188 12.055-0.369 1.311 0.934 2.781 2.306 2.307 5.424-1.875 5.217-7.825 8.828-11.482-1.045-0.276-2.09-0.551-3.134-0.827 1.894 4.516-1.644 9.087 1.188 13.448 0.517 0.795 1.706 1.289 2.565 0.673 3.302-2.366 4.693-5.062 3.861-9.118-1.205 0.333-2.41 0.665-3.615 0.997 0.319 1.555 0.867 2.579 1.688 3.948 0.398 0.665 1.34 1.167 2.117 0.862 2.101-0.824 3.819-1.781 5.328-3.482 1.598-1.803-1.045-4.465-2.652-2.651-0.959 1.229-2.184 2.068-3.672 2.518 0.705 0.287 1.411 0.575 2.117 0.862-0.647-0.919-1.085-1.937-1.312-3.052-0.486-2.368-4.1-1.363-3.615 0.997-0.713 1.627-1.426 3.255-2.139 4.882 0.855 0.225 1.71 0.449 2.565 0.673-2.224-3.424 0.863-8.56-0.812-12.552-0.521-1.246-2.044-1.931-3.134-0.827-2.665 2.699-3.467 9.236-7.172 10.518 0.769 0.769 1.537 1.538 2.306 2.307 1.382-4.912 5.459-9.806 2.812-14.945-0.7-1.359-2.473-1.061-3.238 0-2.564 3.552-2.377 8.274-5.207 11.621 1.045 0.608 2.09 1.216 3.134 1.824 1.831-4.503 4.587-8.67 5.5-13.5 0.393-2.073-2.239-3.287-3.427-1.445-1.811 2.809-3.443 5.634-5.707 8.121 0.982 0.757 1.964 1.515 2.945 2.272 2.396-3.792 3.938-7.435 3.188-11.945-0.229-1.378-2.25-1.817-3.134-0.827-2.762 3.094-5.731 6.023-10.174 5.951 0.54 0.94 1.079 1.881 1.619 2.821 0.616-1.37 1.118-2.785 1.652-4.188 0.456-1.2 0.98-2.366 1.552-3.516 0.738-1.487 2.962-3.179 2.927-0.305-0.021 1.693-0.836 3.365-0.625 5.062 0.251 2.023 2.128 3.695 3.604 4.918 1.91 1.583 4.105 2.725 5.938 4.417 2.186 2.018 2.442 5.544 2.642 8.296 0.331 4.561 0.317 12.013-3.135 15.543l3.201 1.326c-0.058-4.943 3.735-9.936 6.432-13.804 2.726-3.91 6.077-8.432 10.14-11.077l-2.754-2.118c-0.947 2.832-2.317 4.664-5.19 5.69 0.791 0.603 1.582 1.206 2.373 1.808 0.042-0.691 0.187-1.358 0.433-2.001 0.477-1.501-0.989-2.504-2.306-2.307-0.186 0.063-0.37 0.126-0.556 0.189 0.127 0.982 0.253 1.963 0.38 2.945 1.672-1.302 3.689-1.608 5.672-2.018-0.791-0.603-1.582-1.206-2.373-1.808 0.496 6.594-6.438 11.915-9.744 17.054-1.32 2.052 1.887 3.866 3.238 1.893 2.566-3.748 4.538-7.725 6.188-11.948 0.682-1.744-1.943-3.208-3.134-1.824-1.956 2.275-4.077 4.093-6.62 5.707 0.94 0.54 1.881 1.08 2.821 1.619-0.041-1.185 0.104-2.352 0.433-3.501 0.476-2.002-2.443-3.411-3.427-1.445l-3 6c-1.083 2.167 1.894 3.907 3.238 1.893 1.839-2.754 3.676-5.502 5.707-8.121l-3.201-1.326v1c0 1.837 2.582 2.598 3.494 0.946 1.12-2.029 2.38-3.971 3.5-6 1.018-1.844-1.434-3.831-2.945-2.272-1.625 1.677-3.693 2.472-5.62 3.707 0.94 0.54 1.881 1.08 2.821 1.619-0.066-1.336-0.12-1.723-0.567-2.999-0.596-1.704-3.089-1.868-3.615 0-0.651 2.312-1.834 4.369-2.812 6.552 1.165 0.315 2.329 0.631 3.494 0.946-0.078-1.651-0.354-3.355-0.067-5.001 0.411-2.358-3.173-3.38-3.615-0.997-1.087 5.846-1.407 11.604-0.5 17.497 0.226 1.466 2.211 1.705 3.134 0.827 3.98-3.786 6.352-8.812 9.293-13.379 1.002-1.555-1.002-3.607-2.565-2.565-0.5 0.333-1 0.667-1.5 1l2.754 2.118c0.558-1.825 0.932-3.598 1.067-5.499 0.099-1.375-1.684-2.397-2.821-1.619-2.888 1.976-5.569 4.031-9.052 4.811 0.769 0.437 1.537 0.873 2.306 1.31-0.49-2.899-1.027-5.719-2-8.5-0.51-1.459-2.597-1.958-3.427-0.448-0.951 1.732-1.745 3.543-2.625 5.312-0.329 0.662-2.555 3.637-2.506 4.009-0.104-0.796 0.487-1.773 0.869-2.429 0.768-1.319-0.243-2.69-1.619-2.821-1.408-0.683-1.26-1.351 0.446-2.006l-2.754-2.118c-0.652 1.6-1.326 2.466-2.519 3.673 0.982 0.757 1.964 1.515 2.945 2.272 1.047-1.361 1.966-2.28 3.327-3.327l-2.565-2.565c-0.861 1.889-2.04 3.377-3.715 4.645-1.23 1.193-2.4 1.031-3.51-0.485-0.055-1.094 0.813-2.707 1.236-3.617 1.327-2.858 3.223-5.394 4.727-8.15-1.143-0.481-2.285-0.963-3.427-1.445-1.532 6.751-3.867 13.276-5.5 20-0.29 1.193 0.563 2.355 1.808 2.374 6.596 0.098 10.514-4.285 15.946-7.256 1.84-1.006 0.575-4.162-1.444-3.427-0.871 0.316-1.67 0.683-2.448 1.189l2.565 2.565 0.327-0.327-2.565-2.565c-0.5 0.667-1 1.333-1.5 2-0.907 1.21 0.343 2.771 1.619 2.821 2.069 0.083 4.704 0.098 4.192 3.626 1.228 0.166 2.455 0.333 3.683 0.499v-3c-1.228 0.166-2.455 0.333-3.683 0.499 0.747 4.455-0.302 8.415-2 12.503 1.205 0.333 2.41 0.665 3.615 0.997 0.932-5.103 0.363-9.411-2.188-13.945-0.913-1.623-3.521-0.913-3.494 0.946 0.096 6.438 1.063 12.745 2.567 18.999 0.41 1.707 2.542 1.684 3.427 0.448 4.597-6.427 4.84-15.988 3.188-23.445-0.324-1.467-2.135-1.698-3.134-0.827-0.981 0.856-2.018 1.644-3 2.5 1.045 0.608 2.09 1.216 3.134 1.824 0.409-1.5 0.551-2.529 0-3.997-0.53-1.415-2.603-2.002-3.427-0.448-1.081 2.04-2.552 3.126-4.207 4.621 1.045 0.276 2.09 0.551 3.134 0.827-1.249-4.518-0.926-8.907-0.433-13.501 0.13-1.206-1.296-2.144-2.373-1.808-1.662 0.518-3.339 0.982-5 1.5 0.791 0.603 1.582 1.206 2.373 1.808 0.151-3.055 0.878-6.004 1.433-9.001 0.305-1.643-1.839-3.432-3.134-1.824-1.265 1.57-2.735 2.93-4 4.5 1.045 0.608 2.09 1.216 3.134 1.824 1.123-3.164 2.308-6.128 2.567-9.499 0.114-1.477-1.66-2.257-2.821-1.619-2.022 1.112-4.054 1.853-5.88 3.293 1.045 0.608 2.09 1.216 3.134 1.824 0.775-2.506 1.821-6.086 5.154-5.308 2.089 0.488 3.897 2.364 5.401 3.772 3.01 2.819 5.504 6.145 8.303 9.162 5.039 5.431 11.135 3.634 17.332 1.183-0.769-0.769-1.537-1.538-2.306-2.307-2.614 14.001-12.02 29.647-23.019 38.673l3.201 1.326c-1.045-7.887 0.837-18.746-8.312-22.403-2.037-0.814-4.158-1.501-6.341-1.79-2.105-0.279-2.452 0.2-2.951-1.95-1.728-7.45 2.722-15.13 4.037-22.358 0.437-2.369-3.177-3.379-3.609-1.003z" fill="#FFD00D"/> <path d="m311.81 171.5c1.637-5.424 4.419-10.221 7.312-15.052 1.245-2.08-1.993-3.961-3.238-1.893-1.441 2.396-1.949 5.308-2.856 7.927-0.875 2.526-1.562 1.729-3.183 0.349-1.446-1.231-2.775-2.608-4.127-3.941-4.969-4.902-16.036-12.582-11.096-20.442-1.143-0.481-2.285-0.963-3.427-1.445-0.834 2.63-1.061 5.289-1.5 8-0.22 1.352 0.814 2.735 2.306 2.307 3.873-1.112 6.233-3.927 8.121-7.362-1.143-0.149-2.285-0.298-3.427-0.448 2.193 6.313 7.783 9.219 14.308 8.376 1.068-0.138 1.801-0.752 1.875-1.875 0.377-5.731-1.651-12.216-6.929-15.119-2.12-1.166-4.012 2.072-1.893 3.238 4.155 2.286 5.361 7.465 5.071 11.881l1.875-1.875c-4.72 0.61-9.015-0.796-10.692-5.624-0.508-1.461-2.598-1.956-3.427-0.448-1.404 2.555-2.94 4.794-5.879 5.638 0.769 0.769 1.537 1.538 2.306 2.307 0.438-2.698 0.671-5.384 1.5-8 0.662-2.087-2.323-3.201-3.427-1.445-6.45 10.262 5.953 19.334 12.46 25.753 1.636 1.614 6.61 7.709 9.605 5.812 3.924-2.485 3.487-8.041 5.673-11.673-1.079-0.631-2.159-1.262-3.238-1.893-3.062 5.114-5.959 10.215-7.688 15.948-0.701 2.323 2.919 3.307 3.615 0.999z" fill="#FFD00D"/> <path d="m316.95 181.12c11.648-5.132 17.59-14.896 22.064-26.334 2.47-6.312 4.613-12.807 7.534-18.932 1.753-3.675 12.452 1.111 14.453 3.425 3.084 3.565-2.382 8.809-1.306 12.72 0.53 1.931 2.209 3.1 3.861 3.996 4.9 2.657 3.497 7.435 0.324 11.143-6.168 7.208-13.925 10.131-23.171 10.471-7.457 0.274-14.828-0.381-22.205 1.084 0.481 1.143 0.963 2.285 1.444 3.427 7.473-3.792 14.562-8.196 20.38-14.293 1.668-1.749-0.979-4.404-2.652-2.651-5.606 5.876-12.426 10.055-19.62 13.707-1.997 1.014-0.538 3.821 1.444 3.427 8.993-1.787 18.185-0.298 27.242-1.415 8.412-1.037 15.329-5.892 20.754-12.232 3.688-4.311 4.749-11.215-0.267-14.984-1.595-1.198-4.789-1.208-3.296-4.669 0.514-1.192 1.521-2.626 1.443-4.009-0.102-1.839 0.639-4.566-0.235-6.29-2.322-4.583-7.837-6.04-12.427-7.244-2.062-0.541-4.661-1.11-6.711-0.275-2.77 1.127-3.561 4.932-4.621 7.362-6.567 15.054-9.809 32.049-26.327 39.327-2.207 0.974-0.297 4.204 1.895 3.239z" fill="#FFD00D"/> <path d="m329.95 176.62c7.636-3.779 13.654-9.591 19.38-15.793 1.636-1.772-0.916-4.35-2.652-2.651-2.95 2.887-6.049 5.613-9 8.5-1.731 1.694 0.907 4.324 2.652 2.651 2.129-2.041 4.37-3.958 6.5-6-0.982-0.757-1.964-1.515-2.945-2.272-2.021 2.913-4.245 5.577-6.707 8.121 0.982 0.757 1.964 1.515 2.945 2.272 0.937-1.38 1.904-2.572 3.207-3.621 1.653-1.33-0.562-4.204-2.272-2.945-1.532 1.128-2.968 2.372-4.5 3.5l2.565 2.565c1.98-3.953 3.996-7.848 6.5-11.5 1.07-1.562-1.02-3.55-2.565-2.565-2.763 1.761-5.32 3.753-7.88 5.793 0.982 0.757 1.964 1.515 2.945 2.272 0.391-1.135 0.96-2.176 1.707-3.121 1.46-1.847-0.897-4.406-2.652-2.651l-1.5 1.5c-1.358 1.359 0.024 3.566 1.824 3.134 1.545-0.371 2.938-0.423 4.502-0.433l-1.326-3.201c-3.071 2.942-6.428 5.558-9.5 8.5-1.762 1.688 0.849 4.229 2.652 2.651-0.109 0.017-0.218 0.033-0.326 0.049 2.327-0.291 2.486-3.75 0-3.75h-0.5c0.166 1.228 0.332 2.456 0.498 3.683 0.667-0.167 1.334-0.333 2-0.5-0.791-0.603-1.582-1.206-2.373-1.808-0.155 1.379-0.38 2.625-0.5 4-0.101 1.148 1.287 2.224 2.373 1.808-0.228 0.087 1.414-0.439 1.004-0.5-0.437-0.769-0.873-1.538-1.31-2.307-0.82 2.071-3.535 1.779-5.192 1.624v3.75c7.65 0.416 20.215-1.233 24.119-8.929 0.819-1.616-0.876-3.582-2.565-2.565-2.029 1.221-4.06 2.264-5.88 3.793 0.982 0.757 1.964 1.515 2.945 2.272 0.674-1.226 0.855-1.613 1.188-2.948 0.539-2.156-2.222-3.132-3.427-1.445 0.206-0.143 0.413-0.286 0.619-0.429 0.54 0.94 1.079 1.881 1.619 2.821 0.389-0.901 0.889-1.734 1.5-2.5 1.245-1.764-1.496-3.787-2.945-2.272-2.871 3.001-5.375 6.287-8 9.5l3.201 1.326c0.154-2.786 1.04-5.059 2.244-7.554-1.143-0.481-2.285-0.963-3.427-1.445-0.087 0.457-0.235 0.894-0.444 1.31-0.948 2.162 2.11 4.082 3.238 1.893 0.773-1.501 1.9-2.71 2.633-4.258 1.02-2.155-2.059-4.038-3.238-1.893-1.154 2.099-2.555 3.881-4.207 5.621 1.045 0.608 2.09 1.216 3.134 1.824 0.426-1.317 0.665-2.657 1-4 0.535-2.141-2.234-3.157-3.427-1.445-1.246 1.789-2.344 3.653-3.5 5.5-1.315 2.102 1.825 3.769 3.238 1.893 1.484-1.971 3.005-3.835 4.707-5.621-1.045-0.608-2.09-1.216-3.134-1.824-0.439 1.623-0.959 3.099-1.812 4.552 1.079 0.631 2.159 1.262 3.238 1.893 1.189-2.27 2.509-4.416 4-6.5-1.143-0.481-2.285-0.963-3.427-1.445-1.433 4.023-3.388 7.753-5.312 11.552 1.143 0.481 2.285 0.963 3.427 1.445 1.104-3.059 2.566-5.821 4.312-8.552 1.137-1.78-1.553-3.901-2.945-2.272-1.194 1.397-2.047 2.675-2.793 4.379 1.143 0.481 2.285 0.963 3.427 1.445 0.79-2.994 2.648-5.557 3.5-8.5-1.228-0.166-2.455-0.333-3.683-0.499 0.125-0.103 0.251-0.206 0.377-0.308 0.769 0.769 1.537 1.538 2.306 2.307 0.64-2.913 1.823-5.479 3.312-8.052 1.042-1.802-1.533-3.929-2.945-2.272-0.926 1.087-1.632 2.104-2.293 3.379 1.143 0.481 2.285 0.963 3.427 1.445 0.926-3.651 1.897-7.279 2.5-11 0.285-1.755-1.701-3.256-3.134-1.824-1.166 1.167-2.333 2.333-3.5 3.5 0.982 0.757 1.964 1.515 2.945 2.272l3-6c-1.079-0.631-2.159-1.262-3.238-1.893-2.207 4.895-4.6 9.698-7 14.5 1.143 0.481 2.285 0.963 3.427 1.445 1.097-4.401 2.813-8.486 4.812-12.552 1.057-2.15-2.009-4.002-3.238-1.893-1.541 2.644-2.959 5.356-4.5 8 1.143 0.481 2.285 0.963 3.427 1.445 0.483-2.347 1.021-4.496 2.312-6.552-1.079-0.631-2.159-1.262-3.238-1.893-0.975 1.848-2.025 3.652-3 5.5 1.143 0.481 2.285 0.963 3.427 1.445 0.59-1.818 1.436-3.375 2.312-5.052-1.165-0.315-2.329-0.631-3.494-0.946-0.192 2.672-0.989 5.027-1.933 7.501 1.205 0.333 2.41 0.665 3.615 0.997 0.863-2.493 1.754-4.677 3.519-6.673-1.045-0.608-2.09-1.216-3.134-1.824-0.972 2.882-2.034 5.565-3.812 8.052 1.165 0.315 2.329 0.631 3.494 0.946 0.188-2.72 0.916-5.336 1.433-8.001 0.381-1.964-2.464-3.479-3.427-1.445-1.209 2.554-2.803 4.752-4.5 7 1.165 0.315 2.329 0.631 3.494 0.946 0.098-2.194 0.559-3.732 1.744-5.554-1.165-0.315-2.329-0.631-3.494-0.946-0.702 5.831-3.38 11.073-5.433 16.501-0.487 1.289 1.021 2.789 2.306 2.307h4e-3c-0.437-0.769-0.873-1.538-1.31-2.307-1.246 3-3.385 5.415-4.5 8.5-0.318 0.878 0.351 2.164 1.31 2.307 6.543 0.974 12.953 0.974 19.496 0-0.332-1.206-0.664-2.411-0.996-3.616-1.144 0.367-2.311 0.511-3.502 0.433 0.315 1.165 0.631 2.329 0.946 3.494 4.293-1.868 8.839-4.017 11.692-7.895 2.698-3.667 4.069-8.185 5.98-12.278-0.981 0.126-1.963 0.253-2.945 0.379 5.217 4.349-0.11 7.117-4.315 9.271-3.226 1.653-6.817 2.812-9.685 5.078-1.045 0.826-0.475 2.296 0.38 2.945 8.245 6.26 19.37-9.599 19.821-16.619 0.065-1.025-0.902-1.87-1.875-1.875-5.265-0.027-4.363 3.48-6.052 7.191-1.102 2.421-6.939 2.949-9.14 3.224-2.747 0.344-5.554 0.313-8.309 0.085-2.411-0.199-2.393 3.553 0 3.75 5.42 0.447 11.126 0.067 16.234-1.901 1.844-0.711 3.267-1.724 4.452-3.265 1.19-1.549 0.224-5.347 2.813-5.333l-1.875-1.875c-0.289 4.493-8.834 17.439-14.179 13.381 0.127 0.982 0.253 1.963 0.38 2.945 5.7-4.504 26.008-9.641 14-19.651-0.848-0.707-2.394-0.802-2.945 0.379-1.695 3.632-3.003 7.497-5.055 10.95-2.408 4.051-7.146 6.082-11.272 7.877-1.771 0.771-0.805 3.516 0.946 3.494 1.595-0.02 2.982-0.103 4.498-0.567 2.37-0.726 1.339-3.964-0.996-3.616-5.841 0.869-11.663 0.869-17.504 0 0.437 0.769 0.873 1.538 1.31 2.307 1.104-3.054 3.257-5.507 4.5-8.5 0.418-1.005-0.448-1.984-1.31-2.307-0.758-0.284-1.238-0.284-1.996 0 0.769 0.769 1.537 1.538 2.306 2.307 2.196-5.803 4.817-11.275 5.567-17.499 0.24-1.991-2.574-2.359-3.494-0.946-1.545 2.374-2.131 4.635-2.256 7.446-0.091 2.052 2.471 2.302 3.494 0.946 1.696-2.248 3.291-4.446 4.5-7-1.143-0.481-2.285-0.963-3.427-1.445-0.583 3.005-1.354 5.938-1.567 8.999-0.141 2.03 2.509 2.326 3.494 0.946 1.976-2.765 3.11-5.746 4.188-8.948 0.593-1.758-1.9-3.219-3.134-1.824-2.191 2.479-3.408 5.225-4.481 8.327-0.8 2.311 2.769 3.218 3.615 0.997 1.069-2.802 1.852-5.506 2.067-8.499 0.135-1.861-2.65-2.562-3.494-0.946-1.022 1.96-2.007 3.844-2.688 5.948-0.657 2.025 2.437 3.322 3.427 1.445 0.975-1.848 2.025-3.652 3-5.5 1.129-2.14-1.951-3.944-3.238-1.893-1.476 2.353-2.131 4.739-2.688 7.448-0.419 2.035 2.317 3.349 3.427 1.445 1.541-2.644 2.959-5.356 4.5-8-1.079-0.631-2.159-1.262-3.238-1.893-2.136 4.348-4.016 8.734-5.188 13.448-0.5 2.007 2.449 3.401 3.427 1.445 2.399-4.802 4.793-9.605 7-14.5 0.977-2.166-2.145-4.081-3.238-1.893l-3 6c-0.931 1.862 1.384 3.833 2.945 2.272 1.166-1.167 2.333-2.333 3.5-3.5-1.045-0.608-2.09-1.216-3.134-1.824-0.604 3.722-1.575 7.349-2.5 11-0.512 2.017 2.424 3.378 3.427 1.445 0.432-0.958 1.001-1.832 1.707-2.621-0.982-0.757-1.964-1.515-2.945-2.272-1.654 2.861-2.978 5.707-3.688 8.948-0.311 1.414 0.873 2.646 2.306 2.307 1.809-0.428 2.298-1.535 2.377-3.308 0.096-2.159-3.105-2.494-3.683-0.499-0.85 2.934-2.711 5.509-3.5 8.5-0.526 1.994 2.554 3.44 3.427 1.445 0.468-1.36 1.204-2.567 2.207-3.621-0.982-0.757-1.964-1.515-2.945-2.272-1.925 3.013-3.476 6.088-4.688 9.448-0.725 2.004 2.473 3.33 3.427 1.445 2.07-4.09 4.149-8.122 5.688-12.448 0.762-2.14-2.271-3.059-3.427-1.445-1.491 2.083-2.811 4.23-4 6.5-1.119 2.136 2.011 3.987 3.238 1.893 1.03-1.758 1.657-3.484 2.188-5.448 0.483-1.783-1.819-3.203-3.134-1.824-1.918 2.012-3.622 4.162-5.293 6.379 1.079 0.631 2.159 1.262 3.238 1.893 1.155-1.847 2.254-3.711 3.5-5.5-1.143-0.481-2.285-0.963-3.427-1.445-0.336 1.343-0.575 2.683-1 4-0.579 1.793 1.86 3.165 3.134 1.824 1.873-1.972 3.479-3.989 4.793-6.379-1.079-0.631-2.159-1.262-3.238-1.893-0.732 1.548-1.859 2.757-2.633 4.258 1.079 0.631 2.159 1.262 3.238 1.893 0.318-0.725 0.627-1.436 0.821-2.206 0.508-2.001-2.477-3.414-3.427-1.445-1.488 3.085-2.565 6-2.756 9.446-0.086 1.555 2.166 2.593 3.201 1.326 2.624-3.212 5.128-6.499 8-9.5-0.982-0.757-1.964-1.515-2.945-2.272-0.611 0.766-1.111 1.599-1.5 2.5-0.601 1.152 0.116 2.958 1.619 2.821 1.312-0.119 1.851-0.353 2.619-1.429-1.143-0.481-2.285-0.963-3.427-1.445-0.271 0.684-0.541 1.368-0.812 2.052-1.069 1.944 1.349 3.614 2.945 2.272 1.563-1.314 3.385-2.163 5.12-3.207l-2.565-2.565c-3.232 6.372-14.623 7.412-20.881 7.071-2.44-0.133-2.368 3.528 0 3.75 3.815 0.358 7.325-0.631 8.808-4.376 0.345-0.87-0.371-2.168-1.31-2.307-1.303-0.191-1.768 0.03-2.996 0.5 0.791 0.603 1.582 1.206 2.373 1.808 0.115-1.316 0.351-2.677 0.5-4 0.142-1.255-1.299-2.077-2.373-1.808-0.667 0.167-1.334 0.333-2 0.5-2.074 0.519-1.605 3.683 0.498 3.683h0.5v-3.75c-1.044 0.13-1.529 0.353-2.326 1.049 0.884 0.884 1.769 1.768 2.652 2.651 3.071-2.942 6.428-5.558 9.5-8.5 1.186-1.136 0.288-3.211-1.326-3.201-1.883 0.012-3.669 0.127-5.498 0.567 0.607 1.045 1.216 2.089 1.824 3.134l1.5-1.5c-0.884-0.884-1.769-1.768-2.652-2.651-0.975 1.233-1.665 2.42-2.293 3.879-0.854 1.986 1.234 3.636 2.945 2.272 2.309-1.841 4.63-3.62 7.12-5.207l-2.565-2.565c-2.503 3.652-4.52 7.547-6.5 11.5-0.76 1.518 0.923 3.774 2.565 2.565 1.532-1.128 2.968-2.372 4.5-3.5-0.757-0.982-1.515-1.963-2.272-2.945-1.578 1.27-2.66 2.709-3.793 4.379-1.212 1.787 1.484 3.781 2.945 2.272 2.686-2.775 5.093-5.708 7.293-8.879 1.251-1.803-1.454-3.701-2.945-2.272-2.129 2.041-4.37 3.958-6.5 6 0.884 0.884 1.769 1.768 2.652 2.651 2.95-2.887 6.049-5.613 9-8.5-0.884-0.884-1.769-1.768-2.652-2.651-5.514 5.973-11.261 11.564-18.62 15.207-2.167 1.078-0.265 4.312 1.894 3.243z" fill="#FFD00D"/> <path d="m350.62 157.5c-0.231 3.498-1.423 6.682-2.433 10.001-0.463 1.52 1.378 3.044 2.754 2.118 1.734-1.168 3.342-2.373 4.88-3.793 1.312-1.212-0.05-3.853-1.824-3.134-6.44 2.608-12.398 6.294-19 8.5 0.705 0.918 1.411 1.836 2.117 2.754 1.456-2.682 3.854-4.165 6.327-5.827l-2.565-2.565c-1.91 2.855-3.848 5.608-6.207 8.121-1.652 1.76 0.93 4.359 2.652 2.651 4.938-4.896 10.061-9.603 15-14.5-0.884-0.884-1.769-1.768-2.652-2.651-1.545 1.556-2.986 3.121-4.293 4.879-1.357 1.826 1.43 3.539 2.945 2.272 2.065-1.726 3.678-3.743 5.293-5.879-1.143-0.481-2.285-0.963-3.427-1.445-0.507 0.891-1.013 1.782-1.519 2.673-1.39 1.662 0.314 3.861 2.272 2.945 2.38-1.113 4.8-2.044 7-3.5l-2.754-2.118c-0.327 1.393-0.229 2.583-0.067 3.999 0.167 1.467 1.45 2.263 2.821 1.619 1.929-0.906 4.062-1.089 6-2-0.94-0.54-1.881-1.08-2.821-1.619-0.021 1.956-0.228 3.672-0.933 5.501-0.791 2.05 2.349 3.186 3.427 1.445 3.965-6.404 1.213-17.125-7.565-11.565l2.565 2.565c0.754-1.311 1.379-2.624 2-4 0.532-1.178-0.063-2.934-1.619-2.821-4.688 0.34-8.717 2.377-12.946 4.256l2.565 2.565c0.877-1.775 1.127-3.732 2-5.5 0.757-1.532-0.467-3.062-2.117-2.754-2.696 0.502-4.688 1.102-6.948 2.689-1.971 1.383-0.288 4.332 1.893 3.238 3.08-1.545 6.097-3.141 9-5l-2.565-2.565c-1.217 2.064-1.605 4.149-2.188 6.448-0.276 1.088 0.557 2.497 1.808 2.374 3.619-0.356 6.03-1.994 8.119-4.929 1.271-1.785-1.461-3.708-2.945-2.272-0.511 0.495-0.954 0.908-1.62 1.207 0.631 1.08 1.262 2.159 1.893 3.238 5.761-3.717 6.858-11.472 3.445-17.222-4.774-8.042-10.978 1.3-12.699 6.104-0.714 1.991 2.567 3.387 3.427 1.445 0.934-2.11 1.617-4.208 2.188-6.448 0.328-1.285-0.911-2.823-2.306-2.307-5.843 2.164-9.499 7.032-13.121 11.862-1.336 1.782 1.444 3.627 2.945 2.272 2.701-2.441 4.599-5.503 6.793-8.379-1.143-0.481-2.285-0.963-3.427-1.445-0.351 2.331-0.151 4.675-0.5 7-0.23 1.532 1.204 3.042 2.754 2.118 3.436-2.049 5.447-4.919 6.861-8.621 0.652-1.705-1.992-3.295-3.134-1.824-2.673 3.447-4.295 7-4.981 11.327-0.224 1.405 1.267 3.224 2.754 2.118 3.019-2.245 5.3-5.084 7.88-7.793-0.982-0.757-1.964-1.515-2.945-2.272-1.377 1.973-2.623 4.027-4 6 1.143 0.481 2.285 0.963 3.427 1.445 0.63-2.164 1.634-4.273 2-6.5 0.39-2.365-3.224-3.379-3.615-0.997-0.366 2.227-1.371 4.337-2 6.5-0.624 2.145 2.256 3.122 3.427 1.445 1.377-1.973 2.623-4.027 4-6 1.233-1.768-1.497-3.793-2.945-2.272-2.336 2.454-4.381 5.169-7.12 7.207l2.754 2.118c0.573-3.611 1.757-6.756 4.019-9.673-1.045-0.608-2.09-1.216-3.134-1.824-1.065 2.785-2.536 4.827-5.139 6.379l2.754 2.118c0.351-2.331 0.151-4.675 0.5-7 0.324-2.153-2.112-3.168-3.427-1.445-1.999 2.621-3.744 5.396-6.207 7.621 0.982 0.757 1.964 1.515 2.945 2.272 2.952-3.938 6.084-8.363 10.879-10.138-0.769-0.769-1.537-1.538-2.306-2.307-0.491 1.923-1 3.72-1.812 5.552 1.143 0.481 2.285 0.963 3.427 1.445 1.12-3.124 4.224-9.637 6.606-3.722 1.507 3.742 0.618 8.36-2.86 10.604-2.069 1.335-0.281 4.211 1.893 3.238 0.916-0.411 1.661-1.098 2.38-1.793-0.982-0.757-1.964-1.515-2.945-2.272-1.109 1.875-2.737 2.898-4.881 3.071 0.603 0.791 1.205 1.583 1.808 2.374 0.504-1.983 0.738-3.733 1.812-5.552 0.934-1.583-0.956-3.596-2.565-2.565-2.903 1.86-5.92 3.456-9 5 0.631 1.08 1.262 2.159 1.893 3.238 1.944-1.365 3.76-1.884 6.052-2.311-0.705-0.918-1.411-1.836-2.117-2.754-0.877 1.775-1.127 3.732-2 5.5-0.874 1.77 0.851 3.327 2.565 2.565 3.592-1.596 7.064-3.455 11.054-3.744-0.54-0.94-1.079-1.881-1.619-2.821-0.621 1.375-1.246 2.689-2 4-0.914 1.589 0.942 3.593 2.565 2.565 5.455-3.456 4.032 3.854 2.435 6.435 1.143 0.481 2.285 0.963 3.427 1.445 0.848-2.199 1.043-4.155 1.067-6.499 0.016-1.521-1.58-2.202-2.821-1.619-1.929 0.906-4.062 1.089-6 2 0.94 0.54 1.881 1.08 2.821 1.619-0.116-1.021-0.311-1.964-0.067-3.001 0.354-1.509-1.31-3.073-2.754-2.118-2.2 1.456-4.62 2.387-7 3.5 0.757 0.982 1.515 1.963 2.272 2.945 1.155-1.382 1.837-2.646 2.481-4.327 0.828-2.157-2.259-2.989-3.427-1.445-1.443 1.91-2.873 3.588-4.707 5.121 0.982 0.757 1.964 1.515 2.945 2.272 1.118-1.505 2.393-2.797 3.707-4.121 1.705-1.717-0.934-4.355-2.652-2.651-4.938 4.896-10.061 9.603-15 14.5 0.884 0.884 1.769 1.768 2.652 2.651 2.574-2.742 4.703-5.757 6.793-8.879 1.034-1.545-1.02-3.605-2.565-2.565-2.979 2.003-5.923 3.95-7.673 7.173-0.743 1.369 0.484 3.3 2.117 2.754 6.616-2.21 12.554-5.889 19-8.5-0.607-1.045-1.216-2.089-1.824-3.134-1.292 1.193-2.661 2.224-4.12 3.207l2.754 2.118c1.114-3.662 2.313-7.159 2.567-10.999 0.158-2.421-3.593-2.405-3.753-5e-3z" fill="#FFD00D"/> <path d="m352.19 141c-1.531 4.882-3.47 9.619-5 14.5-0.635 2.024 2.44 3.333 3.427 1.445 1.988-3.806 3.143-7.795 4.188-11.948 0.538-2.133-2.243-3.168-3.427-1.445-4.929 7.172-12.659 10.716-19.207 16.121l3.201 1.326c0.496-6.597 1.245-22.135 9.623-23.692-0.607-1.045-1.216-2.089-1.824-3.134-2.799 3.43-8.625 9.644-1.815 12.079 2.676 0.957 6.09 1.571 8.866 0.754 0.424-0.125 0.833-0.326 1.246-0.483-0.978 0.372-0.554 0.108-0.051 1.69 1.018 3.199 2.051 6.411 2.205 9.785h3.75c-0.402-4.774 0.516-9.457 1.933-14.001-1.205-0.333-2.41-0.665-3.615-0.997-0.567 4.105-0.837 7.7 1.188 11.445 0.774 1.431 3.027 1.097 3.427-0.448 1.55-5.989 2.759-12.046-2.394-16.558-2.401-2.104-9.396-5.522-12.365-2.446-5.115 5.301 5.185 11.183 9.941 6.158 0.864-0.913 0.649-2.929-0.827-3.134-1.308-0.182-2.911-0.195-3.989 0.656-1.457 1.151-0.061 3.027 1.326 3.201 2.069 0.259 3.545 0.094 5.498-0.567 1.238-0.419 1.964-2.153 0.828-3.134-2.332-2.014-5.006-3.295-7.828-4.482-2.228-0.937-3.19 2.693-0.996 3.616 2.199 0.925 4.353 1.946 6.172 3.518 0.276-1.044 0.552-2.089 0.828-3.134-1.593 0.539-2.835 0.642-4.502 0.433l1.326 3.201c-0.278 0.405-0.165 0.508 0.34 0.309-0.275-1.044-0.552-2.089-0.827-3.134-0.948 1.002-2.362 1.504-3.625 0.855-0.668-0.344-1.798-1.624-0.479-1.721 3.05-0.226 6.893 2.227 8.495 4.603 1.982 2.938 0.251 7.711-0.538 10.764 1.142-0.149 2.284-0.298 3.427-0.448-1.522-2.814-1.231-5.514-0.812-8.555 0.322-2.331-2.875-3.373-3.615-0.997-1.507 4.83-2.495 9.925-2.067 14.999 0.2 2.376 3.862 2.439 3.75 0-0.188-4.082-1.426-7.913-2.657-11.783-0.459-1.444-1.328-3.448-3.14-3.455-2.388-8e-3 -3.85 0.978-6.514 0.494-0.696-0.126-3.288-0.703-3.261-0.824 0.456-2.006 2.804-4.113 4.022-5.606 1.204-1.476 0.085-3.489-1.824-3.134-10.627 1.975-11.745 18.9-12.377 27.308-0.135 1.792 2.065 2.263 3.201 1.326 6.901-5.697 14.589-9.306 19.793-16.879-1.143-0.481-2.285-0.963-3.427-1.445-0.964 3.826-1.973 7.533-3.812 11.052 1.143 0.481 2.285 0.963 3.427 1.445 1.531-4.882 3.47-9.619 5-14.5 0.728-2.315-2.892-3.298-3.613-0.999z" fill="#FFD00D"/> <path d="m345.05 135.62c2.254 1.656 4.895 2.322 7.592 2.889 2.689 0.566 5.689 0.973 6.547 3.99 0.659 2.322 4.278 1.334 3.615-0.997-2.131-7.5-10.707-5.333-15.861-9.121-1.952-1.434-3.82 1.823-1.893 3.239z" fill="#FFD00D"/> <path d="m342 139.19c-3.423 1.202-5.906 3.464-7.31 6.81 1.205 0.333 2.41 0.665 3.615 0.997 0.414-1.119 1.251-2.011 1.812-3.052 1.146-2.128-2.091-4.022-3.238-1.893-0.728 1.352-1.648 2.486-2.188 3.948-0.355 0.959 0.388 2.053 1.31 2.307 1.081 0.297 1.911-0.368 2.306-1.31 0.855-2.039 2.642-3.471 4.69-4.19 2.266-0.797 1.291-4.421-0.997-3.617z" fill="#FFD00D"/> <path d="m350.19 141.5c0.926 3.435 2.519 8.026 6.23 9.308 4.48 1.548 5.284-5.713 5.452-8.307 0.104-1.623-2.128-2.499-3.201-1.326-3.984 4.359-4.892 10.345-6.481 15.827-0.676 2.328 2.943 3.315 3.615 0.997 1.38-4.757 2.058-10.388 5.519-14.173l-3.201-1.326c-0.088 1.365-0.24 2.668-0.631 3.98-0.246 0.826-0.043 0.872-0.706 0.274-1.681-1.514-2.416-4.16-2.98-6.253-0.629-2.331-4.247-1.34-3.616 0.999z" fill="#FFD00D"/> <path d="m358.19 159.5c0.746 2.033 1.353 5.416 0.5 7.503-0.915 2.24 2.714 3.204 3.615 0.997 0.486-1.189 0.41-2.709 0.387-3.967-0.034-1.843-0.248-3.792-0.887-5.53-0.826-2.251-4.451-1.278-3.615 0.997z" fill="#FFD00D"/> <path d="m364.88 159.55c-6.92 14.397-24.423 17.467-38.881 17.571 0.54 0.94 1.079 1.881 1.619 2.821 1.155-2.336 2.702-4.006 4.707-5.621-0.884-0.884-1.769-1.768-2.652-2.651-4.163 4.691-11.059 5.816-16.62 8.207-1.672 0.719-0.87 3.734 0.946 3.494 16.895-2.235 27.941-12.324 36.619-26.429 1.271-2.066-1.974-3.948-3.238-1.893-7.89 12.825-17.909 22.525-33.381 24.571 0.315 1.165 0.631 2.329 0.946 3.494 5.936-2.551 12.91-3.757 17.38-8.793 1.633-1.839-0.792-4.15-2.652-2.651-2.288 1.843-3.99 3.744-5.293 6.379-0.613 1.241 0.12 2.832 1.619 2.821 15.742-0.114 34.617-3.82 42.119-19.429 1.043-2.167-2.19-4.07-3.238-1.891z" fill="#FFD00D"/> <path d="m348.5 130.19c-3.895 0.526-7.967 0.435-11.559 2.234-4.248 2.127-4.261 7.065-3.251 11.072 0.526 2.089 3.644 1.592 3.683-0.499 0.041-2.239 0.294-5.444 3.125-5.625l-1.875-1.875c-0.237 1.861 0.75 2.821 1.067 4.499 0.449 2.375 4.062 1.366 3.615-0.997-0.244-1.292-1.11-2.112-0.933-3.501 0.124-0.972-0.947-1.935-1.875-1.875-5.15 0.33-6.791 4.801-6.875 9.375 1.228-0.166 2.455-0.333 3.683-0.499-0.83-3.297-0.778-6.169 2.795-7.348 2.983-0.984 6.305-0.927 9.396-1.345 2.388-0.323 1.368-3.935-0.996-3.616z" fill="#FFD00D"/> <path d="m84.674 78.174c-3.923 3.438-7.764 6.89-11 11-1.345 1.708 0.277 3.814 2.272 2.945 5.511-2.402 10.091-6.151 13.879-10.793 1.499-1.836-0.907-4.396-2.651-2.651l-8 8c-1.751 1.751 0.808 4.125 2.651 2.651 5.103-4.077 9.476-8.727 11.982-14.827 0.611-1.487-1.088-2.485-2.307-2.307-8.969 1.314-15.489 12.003-21.327 17.982-0.975 0.999-0.553 2.768 0.827 3.134 11.35 3.007 22.117-11.219 26.618-19.862 0.704-1.351-0.196-2.667-1.619-2.821-3.727-0.404-6.668 0.369-9.326 3.049-1.704 1.718 0.947 4.371 2.651 2.651 2.138-2.156 3.943-2.247 6.674-1.951-0.54-0.94-1.08-1.881-1.619-2.821-3.595 6.904-13.117 20.593-22.382 18.138 0.276 1.045 0.551 2.089 0.827 3.134 5.329-5.458 11.571-15.831 19.673-17.018l-2.307-2.307c-2.235 5.441-6.503 9.565-11.018 13.173l2.651 2.651 8-8-2.651-2.651c-3.602 4.417-7.872 7.921-13.118 10.208 0.757 0.982 1.515 1.963 2.272 2.945 3.236-4.11 7.078-7.562 11-11 1.822-1.597-0.841-4.239-2.652-2.652z" fill="#FFD00D"/> <path d="m43.881 83.554c-4.847 7.808-11.28 14.57-14.189 23.448-0.261 0.798 0.165 1.704 0.862 2.118 5.53 3.286 17.539 13.464 24.236 8.025 3.785-3.074 2.917-8.72 0.27-12.184-3.707-4.85-11.619-7.025-13.751-12.959-0.437 0.769-0.873 1.538-1.31 2.307 7.125-2.423 18.453-3.743 17.376-13.808-0.159-1.486-1.995-2.662-3.201-1.326-2.931 3.248-6.318 6.03-9 9.5-1.442 1.865 1.072 4.532 2.651 2.651 2.336-2.781 11.611-9.467 7.479-13.934-6.173-6.672-11.736 4.989-13.112 9.61-0.432 1.451 1.403 3.156 2.754 2.118 3.292-2.53 5.411-5.727 7.673-9.173-1.143-0.149-2.285-0.298-3.427-0.448 0.167 0.833 0.333 1.667 0.5 2.5 0.474 2.37 4.088 1.364 3.616-0.997-0.167-0.833-0.333-1.667-0.5-2.5-0.339-1.696-2.604-1.703-3.427-0.448-1.859 2.833-3.593 5.726-6.327 7.827l2.754 2.118c0.575-1.931 1.263-3.766 2.203-5.554 1.046-1.99 5.815-4.448 3.616-0.761-1.633 2.736-4.43 4.582-6.453 6.991l2.651 2.651c2.683-3.469 6.07-6.252 9-9.5l-3.201-1.326c0.826 7.725-9.226 8.356-14.624 10.192-0.909 0.309-1.67 1.303-1.31 2.307 1.337 3.72 4.276 6.052 7.358 8.353 3.188 2.38 11.978 7.743 7.571 12.75-3.679 4.18-16.805-6.218-20.174-8.22 0.287 0.706 0.575 1.412 0.862 2.118 2.79-8.515 9.161-15.062 13.811-22.552 1.28-2.062-1.965-3.944-3.237-1.894z" fill="#FFD00D"/> <path d="m36.625 98c-0.017 1.998-0.136 3.311-1.244 5.054 1.143 0.481 2.285 0.963 3.427 1.445 0.714-2.309 1.292-4.744 2.475-6.866 1.208-2.167 5.225 2.113 5.969 3.014 1.439 1.744 2.785 3.574 4.078 5.428 2 2.868-2.613 8.562-6.007 7.025-2.903-1.315-3.7-5.842-6.599-7.532-3.008-1.754-5.73 1.385-7.343 3.487 1.143 0.481 2.285 0.963 3.427 1.445 1.518-3.816 3.472-7.365 6.518-10.173-1.044-0.608-2.089-1.216-3.134-1.824-0.167 1-0.333 2-0.5 3-0.345 2.071 2.208 3.29 3.427 1.445l1.827-1.827-2.754-2.118c-0.602 1.467-1.025 2.988-1.5 4.5-0.286 0.912 0.418 1.64 0.433 2.499 0.023 1.363 1.595 2.414 2.821 1.619 1.264-0.819 2.3-1.734 3.379-2.793l-3.201-1.326v1.5c0 1.34 1.624 2.445 2.821 1.619 0.802-0.553 1.232-1.471 2-2l-2.565-2.565-1.5 3c1.165 0.315 2.33 0.631 3.494 0.946 0.25-1 0.25-2 0-3-0.256-2.047-2.977-2.617-3.683-0.499-0.167 0.5-0.333 1-0.5 1.5-0.66 1.979 1.801 2.861 3.134 1.824 0.579-0.45 0.92-1.048 1.5-1.5-0.981-0.757-1.963-1.515-2.945-2.272-0.514 1.161-0.986 2.339-1.5 3.5-0.817 1.847 1.351 3.896 2.945 2.272 1.059-1.079 1.974-2.116 2.793-3.379-1.143-0.481-2.285-0.963-3.427-1.445-0.946 2.269-1.444 4.614-2 7-0.456 1.957 1.702 2.949 3.134 1.824 1.841-1.445 4.143-2.042 6-3.5-1.044-0.608-2.089-1.216-3.134-1.824-0.167 0.667-0.333 1.333-0.5 2-0.448 1.793 1.791 3.192 3.134 1.824 1.217-1.239 2.263-2.487 3.293-3.879-1.08-0.631-2.159-1.262-3.238-1.893-1.181 2.367-2.591 3.891-5.381 4.071 0.603 0.791 1.206 1.583 1.808 2.374 0.375-1.043 0.812-2.061 1.311-3.052-1.143-0.481-2.285-0.963-3.427-1.445-0.27 0.518-0.541 1.035-0.811 1.552 1.165 0.315 2.33 0.631 3.494 0.946v-1c0-2.012-2.441-2.363-3.494-0.946-1.407 1.895-4.379 8.087 0.791 7.412 3.253-0.425 6.75-3.528 7.384-6.762 0.726-3.697-4.547-7.9-7.951-5.92-2.164 1.259-3.091 3.571-4.089 5.755-0.838 1.833-1.351 3.604-3.807 3.027-2.374-0.558-4.551-2.193-6.762-3.185-2.187-0.981-4.096 2.25-1.893 3.238 3.025 1.357 7.072 4.606 10.625 3.861 3.062-0.642 4.238-3.218 5.444-5.857 0.857-1.875 1.484-4.101 3.911-2.814 1.362 0.722 0.75 1.853-9e-3 2.763-0.711 0.853-1.636 1.468-2.609 1.977-1.5 0.783 0.96-0.979 0.429 1.192 0.243-0.993 1.186-2.002 1.774-2.794-1.165-0.315-2.33-0.631-3.494-0.946v1c0 1.896 2.526 2.52 3.494 0.946 0.517-0.839 0.8-1.524 1.189-2.448 0.832-1.977-2.441-3.29-3.427-1.445-0.699 1.309-1.161 2.564-1.689 3.948-0.422 1.105 0.663 2.448 1.808 2.374 4.114-0.267 6.789-2.26 8.619-5.929 1.098-2.201-1.817-3.813-3.238-1.893-0.805 1.126-1.708 2.167-2.707 3.121 1.044 0.608 2.089 1.216 3.134 1.824 0.167-0.667 0.333-1.333 0.5-2 0.49-1.962-1.72-2.935-3.134-1.824-1.841 1.445-4.143 2.042-6 3.5 1.044 0.608 2.089 1.216 3.134 1.824 0.556-2.386 1.054-4.731 2-7 0.854-2.046-2.329-3.139-3.427-1.445-0.624 0.97-1.36 1.843-2.207 2.621 0.981 0.757 1.963 1.515 2.945 2.272 0.514-1.161 0.986-2.339 1.5-3.5 0.887-2.004-1.241-3.597-2.945-2.272-0.579 0.45-0.92 1.048-1.5 1.5 1.044 0.608 2.089 1.216 3.134 1.824 0.167-0.5 0.333-1 0.5-1.5-1.228-0.166-2.456-0.333-3.683-0.499 0.25 1 0.25 2 0 3-0.233 1.864 2.694 2.546 3.494 0.946l1.5-3c0.773-1.547-0.899-3.714-2.565-2.565-0.802 0.553-1.232 1.471-2 2 0.94 0.54 1.881 1.08 2.821 1.619v-1.5c0-1.647-2.038-2.467-3.201-1.326-0.777 0.847-1.651 1.583-2.621 2.207 0.94 0.54 1.881 1.08 2.821 1.619-0.014-0.826 0.036-1.788-0.404-2.539-0.048-0.082 0.849-2.271 1.337-3.462 0.631-1.538-1.465-2.969-2.754-2.118-1.361 0.898-2.274 1.812-3.173 3.173 1.143 0.481 2.285 0.963 3.427 1.445 0.167-1 0.333-2 0.5-3 0.302-1.813-1.674-3.17-3.134-1.824-3.532 3.255-5.725 7.409-7.482 11.827-0.858 2.157 2.259 2.968 3.427 1.445 3.007-3.919 4.411 0.58 6.25 2.941 1.77 2.271 3.607 3.242 6.521 3.18 4.514-0.096 10.296-7.633 7.73-12.014-2.718-4.639-6.388-9.676-11.593-11.531-5.61-2-7.261 6.511-8.334 9.979-0.647 2.093 2.314 3.196 3.427 1.445 1.428-2.248 1.733-4.312 1.756-6.946 0.022-2.421-3.728-2.419-3.749-2e-3z" fill="#FFD00D"/> <path d="m42.174 98.674c-2.752 3.208-5.58 6.545-9.673 8.018-2.257 0.812-1.284 4.437 0.997 3.616 4.779-1.719 8.093-5.212 11.327-8.982 1.566-1.825-1.074-4.49-2.651-2.652z" fill="#FFD00D"/> <path d="m28.119 110.45c5.814-9.207 13.911-16.818 19-26.5 1.124-2.138-2.113-4.034-3.238-1.893-5.087 9.678-13.185 17.292-19 26.5-1.296 2.052 1.951 3.932 3.238 1.893z" fill="#FFD00D"/> <path d="m258.88 67.946c3.556 8.23 6.682 16.623 11 24.5 1.163 2.121 4.401 0.229 3.238-1.893-4.316-7.874-7.446-16.273-11-24.5-0.956-2.214-4.186-0.302-3.238 1.893z" fill="#FFD00D"/> <path d="m262 67.375c5.203-0.072 10.331-0.996 15.5-1.5 2.384-0.232 2.407-3.985 0-3.75-5.169 0.504-10.297 1.428-15.5 1.5-2.416 0.033-2.419 3.783 0 3.75z" fill="#FFD00D"/> <path d="m277.12 64.5c0.784 7.945-0.831 15.667-1.933 23.501-0.333 2.364 3.28 3.383 3.615 0.997 1.147-8.153 2.884-16.226 2.067-24.499-0.234-2.382-3.986-2.405-3.749 1e-3z" fill="#FFD00D"/> <path d="m271.62 91c7e-3 -0.336 0.117-0.623 0.333-0.86-0.161 0.173-0.269 0.311-0.427 0.518-0.301 0.395-0.361 0.865-0.406 1.342-0.095 1.02 0.925 1.875 1.875 1.875 1.094 0 1.78-0.858 1.875-1.875-7e-3 0.336-0.117 0.623-0.333 0.86 0.161-0.173 0.269-0.311 0.427-0.518 0.301-0.395 0.361-0.865 0.406-1.342 0.095-1.02-0.925-1.875-1.875-1.875-1.093 0-1.78 0.858-1.875 1.875z" fill="#FFD00D"/> <path d="m263 69.308c4.278 0.599 9.04 2.298 10.69 6.69 1.142-0.482 2.284-0.963 3.427-1.445-2.064-3.51-4.34-7.66-8.34-9.188-4.507-1.722-7.023 4.6-8.087 7.636-0.73 2.085 2.322 3.167 3.427 1.445 0.472-0.789 1.041-1.495 1.707-2.121-1.045-0.276-2.09-0.551-3.134-0.827 1.069 3.184 2.2 6.209 4.188 8.948 0.819 1.128 3.175 1.35 3.427-0.448 0.445-3.167 0.562-6.302 0.567-9.499h-3.75c0.056 4.91 0.485 9.824 2.067 14.499 0.615 1.818 2.974 1.747 3.615 0 1.443-3.929 1.443-7.568 0-11.497-0.705-1.921-3.686-1.719-3.683 0.499 5e-3 3.521 0.079 7.001 0.5 10.5 0.23 1.911 3.298 2.767 3.683 0.499 0.73-4.301-0.246-9.082 1.812-13.052-1.165-0.315-2.329-0.631-3.494-0.946-0.486 4.83-0.947 9.643-1 14.5-0.023 2.149 3.087 2.511 3.683 0.499 1.408-4.755 1.593-9.746 3-14.5h-3.615c1.525 5.554 1.809 12.785-2.519 17.176 0.982 0.126 1.964 0.253 2.945 0.379-2.218-3.468-2.226-7.712-2.824-11.671-0.561-3.708-1.968-6.92-4.469-9.708-1.618-1.804-4.262 0.857-2.652 2.651 5.204 5.802 2.652 14.278 6.707 20.621 0.644 1.007 2.069 1.268 2.945 0.379 5.306-5.384 5.377-13.927 3.481-20.824-0.498-1.815-3.093-1.765-3.615 0-1.408 4.755-1.593 9.746-3 14.5 1.228 0.166 2.455 0.333 3.683 0.499 0.053-4.857 0.514-9.67 1-14.5 0.188-1.871-2.667-2.543-3.494-0.946-2.33 4.497-1.37 9.125-2.188 13.948 1.228 0.166 2.455 0.333 3.683 0.499-0.421-3.499-0.495-6.979-0.5-10.5-1.228 0.166-2.455 0.333-3.683 0.499 1.251 3.406 1.251 6.097 0 9.503h3.615c-1.48-4.375-1.881-8.906-1.933-13.501-0.027-2.417-3.746-2.419-3.75 0-4e-3 2.85-0.036 5.672-0.433 8.501 1.142-0.149 2.284-0.298 3.427-0.448-1.798-2.477-2.841-5.165-3.812-8.052-0.437-1.3-2.104-1.886-3.134-0.827-0.884 0.91-1.61 1.815-2.293 2.879 1.143 0.481 2.285 0.963 3.427 1.445 1.114-3.182 2.485-6.597 5.636-3.352 1.61 1.658 2.773 3.821 3.938 5.8 1.05 1.785 4.192 0.592 3.427-1.445-2.127-5.665-7.539-8.501-13.31-9.31-2.362-0.334-3.381 3.279-0.995 3.613z" fill="#FFD00D"/> <path d="m268.67 67.326c2.105 2.497 2.39 5.544 2.451 8.674 0.048 2.415 3.795 2.42 3.75 0-0.062-3.396-0.304-6.647 0.433-10.001h-3.615c0.686 1.834 1.43 3.625 2 5.5 0.443 1.462 2.668 1.965 3.427 0.448 0.333-0.667 0.666-1.333 1-2-1.143-0.149-2.285-0.298-3.427-0.448 1.418 6.502 2.587 14.471-0.812 20.555 1.143 0.149 2.285 0.298 3.427 0.448-1.097-7.298-2.717-16.709 0.812-23.555 1.105-2.146-2.13-4.043-3.238-1.893-4.075 7.906-2.456 18.016-1.188 26.445 0.249 1.656 2.696 1.756 3.427 0.448 3.938-7.05 2.841-15.874 1.188-23.445-0.337-1.547-2.71-1.882-3.427-0.448-0.333 0.667-0.666 1.333-1 2 1.143 0.149 2.285 0.298 3.427 0.448-0.569-1.875-1.313-3.666-2-5.5-0.599-1.602-3.185-1.965-3.615 0-0.808 3.675-0.637 7.258-0.567 10.999h3.75c-0.084-4.244-0.757-8.015-3.549-11.326-1.563-1.852-4.202 0.815-2.654 2.651z" fill="#FFD00D"/> <path d="m330.5 75.375c2.418 0 2.418-3.75 0-3.75s-2.417 3.75 0 3.75z" fill="#FFD00D"/> <path d="m329.17 72.174c-4.146 3.954-9.348 6.542-13.5 10.5-0.619 0.59-0.693 1.544-0.293 2.272 3.18 5.774 11.045 9.718 17.363 7.01 7.053-3.023 4.568-13.624 2.563-18.955-0.584-1.555-2.465-1.837-3.427-0.448-1.087 1.57-7.623 12.96-9.262 10.5-0.098 0.757-0.195 1.515-0.293 2.272 1.782-1.565 3.894-2.451 6.172-3.018-0.791-0.603-1.582-1.206-2.373-1.808 0.101 1.347 0.399 2.654 0.5 4 0.147 1.971 3.362 2.715 3.683 0.499 0.222-1.534 1.072-2.728 1.812-4.052h-3.238c0.672 0.901 2.881 3.974 0.461 4.234-2.979 0.321 0.409-3.722 0.984-4.355 1.621-1.786-1.023-4.445-2.652-2.651-1.925 2.121-3.647 4.468-3.2 7.457 0.289 1.932 2.406 3.158 4.188 3.283 6.202 0.433 6.266-6.093 3.458-9.86-0.801-1.074-2.491-1.339-3.238 0-0.896 1.605-1.921 3.096-2.188 4.948 1.228 0.166 2.455 0.333 3.683 0.499-0.101-1.347-0.399-2.654-0.5-4-0.092-1.225-1.126-2.118-2.373-1.808-2.926 0.728-5.557 1.989-7.828 3.982-0.601 0.528-0.734 1.609-0.293 2.272 5.602 8.41 13.121-6.717 15.738-10.5-1.143-0.149-2.285-0.298-3.427-0.448 1.48 3.937 3.939 11.326-0.262 14.392-4.111 3-10.85-1.774-12.812-5.336-0.098 0.757-0.195 1.515-0.293 2.272 4.146-3.954 9.348-6.542 13.5-10.5 1.753-1.673-0.903-4.321-2.653-2.653z" fill="#FFD00D"/> <path d="m321.5 86.308c2.321 0.844 3.904 2.384 4.879 4.638 0.412 0.951 1.757 1.125 2.565 0.673 4.459-2.494 3.279-7.044 4.861-11.121 0.877-2.258-2.75-3.226-3.615-0.997-1.092 2.81-0.162 7.215-3.139 8.879 0.855 0.225 1.71 0.449 2.565 0.673-1.367-3.159-3.934-5.204-7.121-6.362-2.276-0.827-3.249 2.798-0.995 3.617z" fill="#FFD00D"/> <path d="m51.116 77.384c2.285 2.704 5.693 5.871 1.337 8.637-2.106 1.337-4.622 2.042-6.825 3.215-2.585 1.377-4.036 3.654-2.781 6.417 2.669 5.874 19.631 11.257 11.769 18.964-1.153 1.13 0.616 2.896 1.768 1.768 7.968-7.81-3.108-14.348-8.719-19.064-2.718-2.286-3.645-4.396 0.154-6.42 2.548-1.357 5.311-2.086 7.576-3.941 5.078-4.157 0.294-8.023-2.511-11.342-1.042-1.235-2.801 0.543-1.768 1.766z" fill="#D18129"/> <path d="m50.92 150.63c1.867 4.135 5.207 7.457 9.912 5.575 0.762-0.305 1.374-1.44 0.551-2.089-2.758-2.177-5.261-3.998-8.884-3.866-1.159 0.042-1.563 1.3-0.884 2.134 2.764 3.395 6.631 4.231 10.515 2.195 1.033-0.541 0.649-1.94-0.298-2.285-0.793-0.288-1.356-0.323-2.165 0 0.406 0.697 0.811 1.393 1.216 2.089 5.064-4.51 7.405 1.939 10.232 5 0.97 1.05 2.701-0.308 1.963-1.515-1.119-1.831-2.084-3.303-3.696-4.753-0.405 0.696-0.811 1.393-1.216 2.089 5.909 0.998 7.189 9.095 8.136 13.945 1.014 5.194 1.291 10.525 2.491 15.682 0.366 1.57 2.776 0.904 2.411-0.665-1.966-8.447-0.72-29.404-12.373-31.373-1.128-0.19-2.234 1.173-1.216 2.089 1.398 1.259 2.327 2.647 3.304 4.247 0.655-0.505 1.309-1.01 1.963-1.515-4.424-4.79-7.294-10.766-13.768-5-0.899 0.801 0.044 2.558 1.216 2.089 0.263-0.164 0.542-0.164 0.835 0-0.099-0.762-0.199-1.523-0.298-2.285-2.922 1.532-5.474 0.667-7.485-1.805-0.294 0.711-0.589 1.422-0.884 2.134 3.151-0.115 4.846 1.342 7.116 3.134 0.184-0.696 0.368-1.393 0.551-2.089-4.116 1.646-5.874-1.735-7.088-4.425-0.66-1.466-2.814-0.194-2.157 1.263z" fill="#D18129"/> <path d="m69.116 157.88c9.037 7.834 5.411 19.644 8.178 29.949 0.339 1.263 2.009 1.117 2.411 0 4.369-12.154-0.812-36.41-16.706-37.083-1.201-0.051-1.767 1.796-0.631 2.329 8.435 3.962 9.381 12.688 13.551 20.052 0.794 1.402 2.955 0.143 2.159-1.262-4.457-7.87-5.483-16.737-14.449-20.948-0.21 0.776-0.42 1.553-0.631 2.329 14.133 0.599 18.057 23.452 14.294 33.917h2.411c-2.926-10.894 0.745-22.758-8.822-31.051-1.209-1.051-2.985 0.71-1.765 1.768z" fill="#D18129"/> <path d="m93.616 71.384c7.635 8.906-17.117 21.004-24.116 20.366v2.5c4.613-0.184 9.383-0.077 13.825-1.502 4.229-1.357 7.567-4.755 10.559-7.864 1.145-1.189-0.536-2.752-1.768-1.768-5.765 4.607-12.282 7.16-19.449 8.678-1.577 0.334-0.908 2.744 0.665 2.411 7.647-1.62 14.419-4.421 20.551-9.322l-1.768-1.768c-3.013 3.13-6.099 6.144-10.321 7.499-3.853 1.236-8.301 0.976-12.295 1.135-1.632 0.065-1.586 2.355 0 2.5 9.24 0.842 35.684-13.203 25.884-24.634-1.05-1.225-2.81 0.552-1.767 1.769z" fill="#D18129"/> <path d="m94.294 78.167c-0.987 2.394-2.339 4.623-3.874 6.702-0.959 1.299 1.212 2.543 2.159 1.262 1.675-2.268 3.051-4.692 4.126-7.298 0.615-1.491-1.805-2.134-2.411-0.666z" fill="#D18129"/> <path d="m124 189.75c8.923 0.778 18.844 5.705 24.287 12.909 7.162 9.479-2.444 17.555-7.866 24.71-0.974 1.286 1.199 2.529 2.159 1.262 6.205-8.188 14.52-15.5 8.5-26.262-4.915-8.784-17.494-14.283-27.08-15.119-1.607-0.14-1.593 2.361 0 2.5z" fill="#D18129"/> <path d="m180.25 168.5c-0.317 7.873-4.8 14.745-6.956 22.167-0.45 1.552 1.962 2.209 2.411 0.665 2.229-7.68 6.716-14.681 7.044-22.833 0.066-1.612-2.434-1.605-2.499 1e-3z" fill="#D18129"/> <path d="m182.21 170.33c1.469-4.516 7.641-2.462 10.962-1.627 1.564 0.393 2.228-2.018 0.665-2.411-4.92-1.237-11.998-2.898-14.038 3.373-0.501 1.537 1.914 2.19 2.411 0.665z" fill="#D18129"/> <path d="m318.83 140.21c3.277-0.881 6.65-1.049 10-1.5 1.592-0.214 0.911-2.623-0.664-2.411-3.356 0.452-6.715 0.618-10 1.5-1.556 0.417-0.895 2.829 0.664 2.411z" fill="#D18129"/> <path d="m295.12 121.62c-7.004 6.172-13.354 20.272-11.757 29.654 0.879 5.162 4.215 7.022 9.126 7.758 4.851 0.727 9.453 1.615 10.16 7.495 0.478 3.971-0.356 7.869 0.649 11.81 0.398 1.561 2.81 0.898 2.41-0.665-1.545-6.052 1.044-12.29-3.177-17.521-3.278-4.062-9.589-2.762-13.894-4.646-5.737-2.511-2.118-13.039-0.68-17.106 1.842-5.208 4.707-11.291 8.929-15.011 1.213-1.068-0.562-2.829-1.766-1.768z" fill="#D18129"/> <path d="m278 61.75c-6.253-0.166-15.133-3.25-19.884 2.366-4.062 4.801-0.555 14.208 3 18.268 0.826 0.944 2.463-0.049 2.089-1.216-1.144-3.57-2.699-6.869-2.955-10.667-0.109-1.622-2.354-1.597-2.5 0-0.399 4.376 0.08 8.481 2.671 12.131 0.669 0.943 2.383 0.709 2.329-0.631-0.11-2.761-0.606-5.226-1.545-7.833-0.762 0.321-1.522 0.643-2.284 0.963 2.755 5.958 5.861 11.738 9 17.5 0.666 1.224 2.805 0.374 2.284-0.963-1.75-4.497-4.786-7.97-7.626-11.798-0.778-1.05-2.804-0.476-2.284 0.963 2.553 7.075 8.449 15.594 17.037 12.873 1.531-0.485 0.877-2.899-0.664-2.411-7.173 2.272-11.89-5.381-13.963-11.127-0.762 0.321-1.522 0.643-2.284 0.963 2.69 3.627 5.713 6.935 7.374 11.202 0.762-0.321 1.522-0.643 2.284-0.963-3.138-5.762-6.245-11.542-9-17.5-0.594-1.284-2.763-0.366-2.284 0.963 0.85 2.361 1.354 4.645 1.455 7.167 0.776-0.21 1.553-0.42 2.329-0.631-2.364-3.331-2.691-6.9-2.329-10.869h-2.5c0.271 4.024 1.827 7.531 3.045 11.333 0.696-0.406 1.393-0.811 2.089-1.216-3.45-3.94-6.758-14.195-0.208-16.755 4.54-1.774 10.611 0.264 15.324 0.389 1.614 0.041 1.61-2.459 0-2.501z" fill="#D18129"/> <path d="m261.67 62.794c-3.445 1.25-4.87 4.178-4.918 7.706-0.014 0.967 1.066 1.531 1.881 1.079 1.247-0.691 2.257-1.701 2.948-2.948 0.783-1.411-1.377-2.671-2.158-1.262-0.495 0.893-1.159 1.557-2.052 2.052 0.627 0.359 1.254 0.719 1.881 1.079 0.031-2.325 0.731-4.442 3.082-5.294 1.504-0.546 0.855-2.962-0.664-2.412z" fill="#D18129"/> <path d="m261.21 72.833c0.951-3.181 2.55-5.95 4.374-8.702 0.894-1.348-1.272-2.599-2.158-1.262-1.943 2.931-3.614 5.914-4.626 9.298-0.463 1.549 1.95 2.206 2.41 0.666z" fill="#D18129"/> <path d="m259.75 65c0 0.162-1e-3 0.324-3e-3 0.485 0 0.05-0.043 0.573-5e-3 0.314-0.016 0.109-0.049 0.213-0.083 0.317 0.041-0.124 0.031-0.08-0.043 0-1.104 1.172 0.661 2.944 1.768 1.768 0.778-0.827 0.865-1.797 0.866-2.884 1e-3 -1.612-2.499-1.612-2.5 0z" fill="#D18129"/> <path d="m333 71.25c-6.2-0.286-15.774 6.198-17.162 12.373-1.648 7.332 11.169 9.915 15.994 8.583 1.553-0.429 0.893-2.841-0.664-2.411-4.125 1.139-15.665-1.38-12.094-7.521 2.338-4.021 9.132-8.744 13.926-8.523 1.613 0.073 1.606-2.427 0-2.501z" fill="#D18129"/> <path d="m314.71 183.33c2.539-7.889 13.804-7.082 18.679-12.949 0.526-0.634 0.471-1.936-0.552-2.089-4.006-0.602-6.653 1.365-8.911 4.575-0.713 1.013 0.698 2.418 1.71 1.71 5.777-4.038 7.395-10.089 7.932-16.829 0.593-7.448-1.432-18.694 5.355-23.881 4.743-3.625 11.905-2.278 17.066-0.489 2.622 0.909 12.961 5.72 9.132 9.736 0.696 0.184 1.393 0.368 2.089 0.551-1.728-5.919-5.69-8.296-11.074-10.747-0.1 0.761-0.199 1.523-0.299 2.285 2.044-0.38 11.764 0.331 7.784 4.911h1.768c-7.292-7.967-20.727-12.124-30.015-5.195-1.276 0.952-0.209 2.885 1.262 2.158 9.848-4.865 20.183-4.614 28.985 2.305 1.252 0.984 3.034-0.772 1.768-1.768-9.747-7.661-21.042-8.117-32.015-2.695 0.421 0.719 0.841 1.439 1.262 2.158 8.433-6.291 20.391-2.4 26.985 4.805 0.437 0.478 1.335 0.499 1.768 0 5.941-6.837-4.677-10.119-10.216-9.089-1.025 0.191-1.265 1.845-0.299 2.285 4.664 2.124 8.384 3.973 9.926 9.253 0.258 0.882 1.428 1.245 2.089 0.551 3.331-3.493 0.422-7.619-2.768-9.98-5.36-3.968-12.353-6.111-19.015-5.674-22.454 1.474-6.868 33.5-20.732 43.191 0.57 0.57 1.141 1.14 1.71 1.71 1.306-2.509 3.335-3.651 6.089-3.425-0.185-0.697-0.368-1.393-0.552-2.089-5.312 6.392-16.43 5.066-19.321 14.051-0.497 1.538 1.918 2.191 2.41 0.664z" fill="#D18129"/> <path d="m333.25 169.5v-10c0-1.612-2.5-1.612-2.5 0v10c0 1.612 2.5 1.612 2.5 0z" fill="#D18129"/> <radialGradient id="a" cx="227" cy="279.95" r="132.06" gradientUnits="userSpaceOnUse"> <stop stop-color="#FFE169" offset=".6304"/> <stop stop-color="#FAAE3F" offset="1"/> <stop stop-color="#F58D59" offset="1"/> </radialGradient> <path d="m387 215.78c-1.113 1.676-2.229 3.351-3.344 5.023-2.266 3.4-6.6 2.602-8.523 0.187-0.537-0.368-1.029-0.866-1.445-1.52-4.721-7.417-9-15.085-13.172-22.816-10.578 16.453-20.311 33.442-31.525 49.483-2.352 3.363-6.76 2.512-8.645 0.072-0.775-0.396-1.473-1.064-1.99-2.072-8.807-17.107-16.639-34.68-24.678-52.152-1.756 2.417-3.393 4.914-4.975 7.447-0.248 0.677-0.641 1.302-1.135 1.836-4.988 8.207-9.402 16.799-14.578 24.869-1.215 1.894-3.062 2.506-4.803 2.271-1.666 0.489-3.576 0.315-5.049-0.874-6.516-5.259-11.352-13.441-15.422-20.666-1.541-2.731-2.545-5.984-3.623-9.21-4.43-3.313-7.229-8.579-8.18-14.035-10.029 14.522-19.898 29.148-31.04 42.86-1.712 2.107-3.947 2.062-5.664 0.938-0.564-0.137-1.145-0.398-1.729-0.822-7.343-5.338-12.421-12.479-17.354-19.842-7.78 11.942-17.562 22.42-25.806 34.047-2.074 2.926-5.71 2.635-7.847 0.889-0.383-0.018-0.764-0.07-1.131-0.205-0.423-0.156-0.812-0.323-1.18-0.506-0.442-0.068-0.893-0.187-1.35-0.383-6.77-2.916-13.344-6.213-19.828-9.686-6.396 4.312-13.935 6.568-21.408 3.787-10.076-3.749-12.435-14.16-14.319-23.662-6.396-3.406-12.882-6.635-19.559-9.488-0.443 4.854-0.696 9.762-0.696 14.73 0 88.365 71.635 160 160 160s160-71.635 160-160c3e-3 -0.166-2e-3 -0.332-2e-3 -0.5z" fill="url(#a)"/> <path d="m258.33 326.14c0 14.175-14.027 4.842-31.332 4.842-17.306 0-31.334 9.333-31.334-4.842 0-14.176 14.028-25.666 31.334-25.666 17.304 0 31.332 11.49 31.332 25.666z" fill="#BF6828"/> <ellipse cx="163.5" cy="267.82" rx="11" ry="16.333" fill="#C57029"/> <ellipse cx="294.83" cy="267.82" rx="11" ry="16.333" fill="#C57029"/> </svg>