<?xml version='1.0' encoding='utf-8'?>
<svg xmlns:xlink="http://www.w3.org/1999/xlink" xmlns="http://www.w3.org/2000/svg" width="210mm" height="297mm" version="1.1" viewBox="0 0 210 297"> <style/> <defs> <radialGradient id="e" cx="103.7" cy="96.217" r="12.294" gradientUnits="userSpaceOnUse"> <stop stop-color="#88530a" offset="0"/> <stop stop-color="#4c2e03" offset="1"/> </radialGradient> <filter id="w" x="-.067505" y="-.067505" width="1.135" height="1.135" color-interpolation-filters="sRGB"> <feGaussianBlur stdDeviation="0.36629573"/> </filter> <linearGradient id="h" x1="42.229" x2="42.229" y1="32.903" y2="108.51" gradientTransform="translate(-37.798 -18.405)" gradientUnits="userSpaceOnUse"> <stop stop-color="#fff" offset="0"/> <stop stop-color="#fff" stop-opacity=".64789" offset=".23473"/> <stop stop-color="#fff" stop-opacity=".080986" offset=".78332"/> <stop stop-color="#fff" stop-opacity="0" offset="1"/> </linearGradient> <filter id="u" x="-.0077758" y="-.014597" width="1.0156" height="1.0292" color-interpolation-filters="sRGB"> <feGaussianBlur stdDeviation="0.47021708"/> </filter> <radialGradient id="f" cx="136.84" cy="116.53" r="94.613" gradientTransform="matrix(2.1139 0 0 2.1139 -89.266 -46.328)" gradientUnits="userSpaceOnUse"> <stop stop-color="#ffe97c" offset="0"/> <stop stop-color="#f7d73a" offset=".6461"/> <stop stop-color="#ebc533" offset=".79513"/> <stop stop-color="#d6831b" offset="1"/> </radialGradient> <filter id="t" x="-.013891" y="-.013318" width="1.0278" height="1.0266" color-interpolation-filters="sRGB"> <feGaussianBlur stdDeviation="0.14231764"/> </filter> <filter id="y" x="-.0064417" y="-.087504" width="1.0129" height="1.175" color-interpolation-filters="sRGB"> <feGaussianBlur stdDeviation="0.53094314"/> </filter> <filter id="x" x="-.0042808" y="-.037294" width="1.0086" height="1.0746" color-interpolation-filters="sRGB"> <feGaussianBlur stdDeviation="1.3335426"/> </filter> <linearGradient id="i" x1="-952.96" x2="-952.96" y1="1068.5" y2="979.52" gradientUnits="userSpaceOnUse"> <stop stop-color="#814008" offset="0"/> <stop stop-color="#4c2e03" offset="1"/> </linearGradient> <filter id="v" x="-.20781" y="-.1039" width="1.4156" height="1.2078" color-interpolation-filters="sRGB"> <feGaussianBlur stdDeviation="3.4092479"/> </filter> <filter id="b" x="-.1008" y="-.48474" width="1.2016" height="1.9695" color-interpolation-filters="sRGB"> <feGaussianBlur stdDeviation="1.3693793"/> </filter> <filter id="c" x="-.09662" y="-.04831" width="1.1932" height="1.0966" color-interpolation-filters="sRGB"> <feGaussianBlur stdDeviation="1.5851094"/> </filter> <clipPath id="ad"> <rect x="-291.12" y="232.75" width="41.968" height="83.396" ry="9.2922" fill="#2a7fff" stroke-linejoin="round" stroke-width="10.624"/> </clipPath> <clipPath id="ac"> <rect x="-291.12" y="232.2" width="41.968" height="83.396" ry="5.4147" fill="#2a7fff" stroke-linejoin="round" stroke-width="10.624"/> </clipPath> <filter id="s" x="-.064876" y="-.073958" width="1.1298" height="1.1479" color-interpolation-filters="sRGB"> <feGaussianBlur stdDeviation="2.1792113"/> </filter> <clipPath id="ab"> <path d="m-217.82 229.07c-5.2675-0.0125-9.8705 3.5751-12.257 4.0281h-40.677c-6.2085 0-11.207 5.0864-11.207 11.404v42.769c0 6.3181 4.9982 11.404 11.207 11.404h40.677c4.6294 0.87854 17.594 13.548 27.575-11.122 1.6941-5.6588 2.149-13.776 1.972-21.667 0.17701-7.891-0.27792-16.008-1.972-21.667-4.8348-11.95-10.37-15.139-15.318-15.151z" fill="#2a7fff" stroke-linejoin="round" stroke-width="12.194"/> </clipPath> <clipPath id="aa"> <rect x="-289.39" y="232.64" width="42.156" height="80.269" rx="13.666" ry="7.943" fill="#2a7fff" stroke-linejoin="round" stroke-width="10.447"/> </clipPath> <filter id="r" x="-.066661" y="-.12178" width="1.1333" height="1.2436" color-interpolation-filters="sRGB"> <feGaussianBlur stdDeviation="5.2762716"/> </filter> <filter id="d" x="-.039118" y="-.046147" width="1.0782" height="1.0923" color-interpolation-filters="sRGB"> <feGaussianBlur stdDeviation="0.65372737"/> </filter> <linearGradient id="g" x1="-172.29" x2="-172.29" y1="375.69" y2="238.9" gradientTransform="translate(1.0583 -2.1167)" gradientUnits="userSpaceOnUse"> <stop stop-color="#868686" offset="0"/> <stop stop-color="#fff" offset="1"/> </linearGradient> <filter id="q" x="-.10365" y="-.082016" width="1.2073" height="1.164" color-interpolation-filters="sRGB"> <feGaussianBlur stdDeviation="4.5713419"/> </filter> <clipPath id="z"> <path d="m-196.14 240.67-0.0114 1e-3c-15.441 6e-3 -27.955 12.526-27.955 27.967-1.2e-4 2.3148 0.28716 4.6207 0.85524 6.8647l5.3e-4 3e-3c0.42833 1.5241 1.0526 3.786 1.6557 5.3247 8.7615 22.354 16.747 43.842 27.104 66.737 1.5402 3.4048 3.0943 6.1914 5.2632 9.495h5.3e-4c7.1592 10.849 19.289 17.377 32.287 17.377 21.364 0 38.683-17.319 38.683-38.683-4e-5 -6.9196-1.8562-13.713-5.3749-19.671l-1e-3 -3e-3c-10.87-18.552-34.974-46.803-51.39-65.782l-1e-3 -2e-3c-5.3116-6.1165-13.015-9.6293-21.116-9.6294zm1.5301 11.446c9.912-8e-5 17.947 8.0352 17.947 17.947-2e-4 9.9118-8.0354 17.947-17.947 17.947-9.9116-2.1e-4 -17.947-8.0351-17.947-17.947-8e-5 -9.9118 8.0349-17.947 17.947-17.947zm37.251 57.813c13.862-1.6e-4 25.099 11.237 25.099 25.099-1.4e-4 13.862-11.237 25.099-25.099 25.099-13.862-1.3e-4 -25.099-11.237-25.099-25.099-1.5e-4 -13.862 11.237-25.099 25.099-25.099z" fill="#7fff2a" stroke-linejoin="round" stroke-width="8.5128"/> </clipPath> <filter id="p" x="-.071404" y="-.056501" width="1.1428" height="1.113" color-interpolation-filters="sRGB"> <feGaussianBlur stdDeviation="3.1491989"/> </filter> <filter id="o" x="-.24689" y="-.099696" width="1.4938" height="1.1994" color-interpolation-filters="sRGB"> <feGaussianBlur stdDeviation="4.7282082"/> </filter> <filter id="n" x="-.072273" y="-.13203" width="1.1445" height="1.2641" color-interpolation-filters="sRGB"> <feGaussianBlur stdDeviation="5.7204003"/> </filter> <filter id="m" x="-.38405" y="-.19202" width="1.7681" height="1.384" color-interpolation-filters="sRGB"> <feGaussianBlur stdDeviation="6.300522"/> </filter> <filter id="l" x="-.10482" y="-.30485" width="1.2096" height="1.6097" color-interpolation-filters="sRGB"> <feGaussianBlur stdDeviation="3.1195626"/> </filter> <filter id="k" x="-.21499" y="-.24206" width="1.43" height="1.4841" color-interpolation-filters="sRGB"> <feGaussianBlur stdDeviation="7.418191"/> </filter> </defs> <g stroke-linejoin="round" stroke-opacity=".78039" style="mix-blend-mode:normal"> <circle cx="200" cy="200" r="200" fill="url(#f)" stroke-dasharray="0.560172, 1.68052" stroke-width=".56017"/> <path transform="matrix(2.1139 0 0 2.1139 -6.0098 -7.4221)" d="m171.38 68.795c3.1906 45.338-20.923 8.8821-67.258 8.8821-46.335 1e-5 -82.114 36.091-77.129-9.4461 1.8507-16.905 25.718-54.004 72.053-54.004s71.123 37.349 72.335 54.568z" fill="url(#h)" filter="url(#u)" stroke-dasharray="0.234984, 0.704953" stroke-width=".23498"/> </g> <g transform="matrix(2.1139 0 0 2.1139 342.82 -604.31)"> <g id="j" transform="translate(-206.06 264.34)" filter="url(#t)"> <path d="m115.99 97.805c0 6.79-5.5044 11.765-12.294 11.765-6.79 0-12.294-4.9752-12.294-11.765 0-6.79 5.5044-13.882 12.294-13.882 6.79 2e-6 12.294 7.0919 12.294 13.882z" fill="#ffeda3"/> <circle cx="103.7" cy="96.217" r="12.294" fill="url(#e)"/> <circle transform="matrix(.86223 0 0 .86223 19.273 13.53)" cx="97.918" cy="90.434" r="6.5114" fill="#f6f1eb" filter="url(#w)" opacity=".52564" stroke-dasharray="0.140351, 0.421054" stroke-linejoin="round" stroke-opacity=".78039" stroke-width=".14035"/> </g> <use transform="translate(69.592)" width="100%" height="100%" xlink:href="#j"/> </g> <g transform="translate(408.19 -.0019541)" stroke-linejoin="round" style="mix-blend-mode:normal"> <path d="m-307.89 274.22c0 11.559 10.934 11.143 10.934 11.143h126.35v-1e-3l49.593-1e-3s10.934 0.41658 10.934-11.142l8e-5 -3.416-197.81 0.77173z" fill="#faeca4" filter="url(#y)" stroke-width=".9672"/> <path transform="scale(.26458)" d="m-457.36 982.72-326.2 8e-3h-338.79s-41.324-3.2e-4 -41.324 43.688c0 43.688 41.324 42.115 41.324 42.115h665s41.324 1.5745 41.324-42.113c0-43.688-41.324-43.689-41.324-43.689z" fill="url(#i)" filter="url(#x)" stroke-width="3.6556"/> </g> <g transform="translate(583.2 -166.95)" style="mix-blend-mode:normal"> <g transform="translate(4.3871 -4.7625)"> <g transform="matrix(1.0262 0 0 .85136 -222.41 209.38)" stroke-linejoin="round"> <rect transform="matrix(1.1011 0 0 1.1011 -5.9381 75.541)" x="-260.58" y="142.06" width="39.374" height="78.747" ry="8.7741" fill="#9a4504" filter="url(#v)" opacity=".96685" stroke-width="10"/> <rect x="-289.83" y="233.4" width="39.374" height="78.747" ry="8.7741" fill="#736c66" stroke-width="10"/> <rect transform="matrix(.9377 0 0 .95905 -16.83 10.132)" x="-289.83" y="233.4" width="39.374" height="78.747" ry="8.7741" clip-path="url(#ad)" fill="#e6e6e6" filter="url(#c)" stroke-width="10"/> <rect transform="matrix(.8586 0 0 .8586 -38.198 33.691)" x="-286.44" y="234.88" width="32.605" height="6.78" ry="2.198" fill="#fcfcfc" filter="url(#b)" stroke-width="2.6702"/> </g> <g id="a" transform="matrix(.92617 0 0 .84985 -184.88 148.2)"> <rect transform="matrix(.84668 0 0 .61281 -95.44 226.91)" x="-260.58" y="142.06" width="39.374" height="78.747" ry="7.153" fill="#9a4504" filter="url(#m)" opacity=".96685" stroke-linejoin="round" stroke-width="10"/> <rect x="-312.13" y="315.84" width="25.446" height="38.818" ry="2.7741" fill="#736c66" stroke-linejoin="round" stroke-width="5.6442"/> <rect transform="matrix(.606 0 0 .47276 -135.7 205.76)" x="-289.83" y="233.4" width="39.374" height="78.747" ry="4.3002" clip-path="url(#ac)" fill="#e6e6e6" filter="url(#c)" stroke-linejoin="round" stroke-width="10"/> <rect transform="matrix(.63711 0 0 .94053 -127.29 96.619)" x="-286.44" y="234.88" width="32.605" height="6.78" ry="2.198" fill="#fcfcfc" filter="url(#b)" stroke-linejoin="round" stroke-width="2.6702"/> </g> <use transform="translate(30.441 19.441)" width="100%" height="100%" xlink:href="#a"/> <use transform="translate(59.344 .3061)" width="100%" height="100%" xlink:href="#a"/> <use transform="translate(89.068 19.441)" width="100%" height="100%" xlink:href="#a"/> <use transform="translate(117.97 .3061)" width="100%" height="100%" xlink:href="#a"/> </g> <g transform="translate(-3.7042)"> <path transform="matrix(1.0919 .03297 0 .9952 20.179 9.531)" d="m-244.52 411.08-0.0114 1e-3c-15.441 6e-3 -27.955 12.526-27.955 27.967-1.2e-4 2.3148 0.28716 4.6207 0.85524 6.8647l5.3e-4 3e-3c0.42833 1.5241 1.0526 3.786 1.6557 5.3247 8.7615 22.354 14.939 40.218 25.296 63.113l44.282-71.145c-9.5294-11.889-14.704-12.898-23.007-22.497l-1e-3 -2e-3c-5.3116-6.1165-13.015-9.6293-21.116-9.6294z" fill="#8a4609" filter="url(#p)" opacity=".58287" stroke-linejoin="round" stroke-width="8.5128"/> <g transform="matrix(.99978 0 0 .84069 -223.06 68.385)" stroke-linejoin="round"> <path transform="matrix(1.1199 0 0 1.1199 8.146 -49.847)" d="m-28.798 407.98c-5.3544-0.0125-10.033 3.571-12.46 4.0235h-41.348c-6.3109 0-11.392 5.0806-11.392 11.392v42.72c0 6.3109 5.0806 11.392 11.392 11.392h41.348c4.7058 0.87754 17.884 13.533 28.03-11.109 1.722-5.6524 2.1844-13.76 2.0045-21.642 0.17993-7.882-0.2825-15.99-2.0045-21.642-4.9145-11.936-10.541-15.122-15.571-15.133z" fill="#9f510a" filter="url(#k)" stroke-width="12.287"/> <path d="m-28.798 405.45c-5.3544-0.0125-10.033 3.571-12.46 4.0235h-41.348c-6.3109 0-11.392 5.0806-11.392 11.392v42.72c0 6.3109 5.0806 11.392 11.392 11.392h41.348c4.7058 0.87754 17.884 13.533 28.03-11.109 1.722-5.6524 2.1844-13.76 2.0045-21.642 0.17993-7.882-0.2825-15.99-2.0045-21.642-4.9145-11.936-10.541-15.122-15.571-15.133z" fill="#736c66" stroke-width="12.287"/> <path transform="matrix(1.0165 0 0 .99887 192.61 176.64)" d="m-217.91 229.3c-5.2126-0.012-9.7675 3.4334-12.13 3.8685h-40.253c-6.1438 0-11.09 4.8849-11.09 10.953v41.074c0 6.0678 4.946 10.953 11.09 10.953h40.253c4.5811 0.84373 17.41 13.012 27.288-10.681 1.6764-5.4346 2.1266-13.23 1.9514-20.808 0.17516-7.5783-0.27502-15.374-1.9514-20.808-4.7843-11.476-10.262-14.539-15.158-14.55z" clip-path="url(#ab)" fill="#e6e6e6" filter="url(#s)" stroke-width="11.888"/> <path transform="matrix(2.0031 0 0 .69902 488.52 248.63)" d="m-284.24 234.88h20.317c2.2583-3.7733 4.7417-5.9952 7.7929-4.3064 1.1956 0.66174 2.2975 5.2868 2.2975 6.5044v2.384c0 1.2177-1.1276-1.1413-2.2975-2.1085-3.2568-2.6923-5.5335 1.6367-8.0418 4.3064h-20.068c-1.2177 0-2.198-0.9803-2.198-2.198v-2.384c0-1.2177 0.9803-2.198 2.198-2.198z" fill="#fcfcfc" filter="url(#b)" stroke-width="2.6702"/> </g> <path transform="matrix(.32917 .84235 -.5525 .21591 28.463 411.31)" d="m-78.658 469.73 18.899 0.01v24.559l-21.116-0.01c-14.833-0.84422-38.947-39.295-25.407-73.261 4.4885-11.26 18.776-10.458 15.385-0.50765-8.2482 24.203-0.70722 41.061 12.238 49.21z" fill="#757676" filter="url(#o)" stroke-linejoin="round" stroke-width="7.5216" style="mix-blend-mode:normal"/> <g transform="translate(-128.88 -23.407)"> <path d="m-114.36 434.13-0.0114 1e-3c-15.441 6e-3 -27.955 12.526-27.955 27.967-1.2e-4 2.3148 0.28716 4.6207 0.85524 6.8647l5.2e-4 3e-3c0.42834 1.524 1.0526 3.786 1.6557 5.3247 8.7615 22.354 16.747 43.842 27.104 66.737 1.5403 3.4048 3.0943 6.1914 5.2632 9.495h5.2e-4c7.1592 10.849 19.289 17.377 32.287 17.377 21.364 0 38.683-17.319 38.683-38.683-4e-5 -6.9196-1.8562-13.713-5.3749-19.671l-1e-3 -3e-3c-10.87-18.552-34.974-46.803-51.39-65.782l-1e-3 -2e-3c-5.3116-6.1165-13.015-9.6293-21.116-9.6294zm1.5301 11.446c9.912-8e-5 17.947 8.0352 17.947 17.947-2e-4 9.9118-8.0354 17.947-17.947 17.947-9.9116-2e-4 -17.947-8.0351-17.947-17.947-8e-5 -9.9118 8.0349-17.947 17.947-17.947zm37.251 57.813c13.862-1.4e-4 25.099 11.237 25.099 25.099-1.4e-4 13.862-11.237 25.099-25.099 25.099-13.862-1.4e-4 -25.099-11.237-25.099-25.099-1.5e-4 -13.862 11.237-25.099 25.099-25.099z" fill="#959696" stroke-linejoin="round" stroke-width="8.5128"/> <path transform="translate(81.783 193.46)" d="m-195.09 238.55-0.0114 1e-3c-15.441 6e-3 -27.955 12.526-27.955 27.967-1.2e-4 2.3148 0.28716 4.6207 0.85524 6.8647l5.2e-4 3e-3c0.42834 1.524 1.0526 3.786 1.6557 5.3247 8.7615 22.354 16.747 43.842 27.104 66.737 19.392 49.57 97.164 14.117 70.859-31.481l-1e-3 -3e-3c-5.978-10.202-18.462-27.098-28.965-40.012-8.5955-10.569-15.037-17.228-22.425-25.77l-1e-3 -2e-3c-5.3116-6.1165-13.015-9.6293-21.116-9.6294zm1.5301 11.446c9.912-8e-5 17.947 8.0352 17.947 17.947-2e-4 9.9118-8.0354 17.947-17.947 17.947-9.9116-2e-4 -17.947-8.0351-17.947-17.947-8e-5 -9.9118 8.0349-17.947 17.947-17.947zm37.251 57.813c-253.2-207.28-126.6-103.64 0 0z" clip-path="url(#z)" fill="url(#g)" filter="url(#q)" stroke-linejoin="round" stroke-width="8.5128"/> <path transform="matrix(.26458 0 0 .26458 81.783 193.46)" d="m-594.68 1145.3a94.981 94.981 0 0 0-94.938 94.98 94.981 94.981 0 0 0 0.42578 8.998 94.981 94.981 0 0 1 94.555-85.978 94.981 94.981 0 0 1 94.553 85.98 94.981 94.981 0 0 0 0.42773-9 94.981 94.981 0 0 0-94.98-94.98 94.981 94.981 0 0 0-0.043 0z" fill="#6a6a6a" filter="url(#r)" opacity=".8232"/> <path transform="matrix(-.26458 0 0 -.26458 -232.88 864.52)" d="m-594.68 1145.3c-52.439 0.024-94.938 42.541-94.938 94.98-4.6e-4 3.0044 0.14162 6.0071 0.42578 8.998 4.6412-48.749 45.585-78.443 94.555-78.442 48.97 2e-4 89.913 29.694 94.553 78.444 0.28487-2.9915 0.42761-5.9949 0.42773-9 0-52.456-42.524-94.98-94.98-94.98h-0.043z" fill="#fcfcfc" filter="url(#n)" opacity=".59392"/> <path d="m-115.17 436.22a23.556 23.556 0 0 0-23.529 23.557 23.556 23.556 0 0 0 2.4406 10.442 24.995 24.995 0 0 1-0.76199-6.1254 24.995 24.995 0 0 1 24.995-24.995 24.995 24.995 0 0 1 13.434 3.9172 23.556 23.556 0 0 0-16.552-6.7951 23.556 23.556 0 0 0-0.0268 0z" fill="#fcfcfc" filter="url(#d)" opacity=".8232"/> <path transform="matrix(-.69148 -.31589 .31589 -.69148 -332.32 590.08)" d="m-196.95 242.76a23.556 23.556 0 0 0-23.529 23.557 23.556 23.556 0 0 0 2.4406 10.442 24.995 24.995 0 0 1-0.76199-6.1254 24.995 24.995 0 0 1 24.995-24.995 24.995 24.995 0 0 1 13.434 3.9172 23.556 23.556 0 0 0-16.552-6.7951 23.556 23.556 0 0 0-0.0268 0z" fill="#fcfcfc" filter="url(#d)" opacity=".8232"/> </g> <rect transform="matrix(.90438 0 0 .59319 -199.77 157.57)" x="-116.19" y="469.73" width="71.426" height="24.559" ry="2.7364" fill="#757676" filter="url(#l)" stroke-linejoin="round" stroke-width="7.5216"/> <g transform="translate(-133.67 -24.253)" stroke-linejoin="round"> <rect transform="rotate(90)" x="453.64" y="102.52" width="19.775" height="69.901" rx="6.5584" ry="6.7264" fill="#736c66" stroke-width="6.6769"/> <rect transform="matrix(0 .46908 -.87092 0 100.1 589.39)" x="-289.83" y="233.4" width="39.374" height="78.747" rx="7.4509" ry="7.4509" clip-path="url(#aa)" fill="#e6e6e6" filter="url(#c)" stroke-width="10"/> <rect transform="matrix(-1.6901 0 0 -.45899 -594.44 567.24)" x="-286.44" y="234.88" width="32.605" height="6.78" ry="2.198" fill="#fcfcfc" filter="url(#b)" stroke-width="2.6702"/> </g> </g> </g> </svg>