<?xml version='1.0' encoding='utf-8'?>
<svg xmlns="http://www.w3.org/2000/svg" width="3e3" height="3e3" version="1.1" viewBox="0 0 793.75 793.75"> <g transform="matrix(3 0 0 3 -79.375 -79.375)"> <circle cx="158.75" cy="158.75" r="132.29" fill="#f1c50e" fill-rule="evenodd" stop-color="#000000" stroke-linecap="round" stroke-width="19.052"/> <g transform="translate(-6.6008)" fill="none" stroke="#2d3e50" stroke-linecap="round" stroke-width="7.9375"> <path d="m144.35 111.98a29.746 29.746 0 0 1-14.873 25.76 29.746 29.746 0 0 1-29.746 0 29.746 29.746 0 0 1-14.873-25.76" stop-color="#000000"/> <path d="m245.84 111.98a29.746 29.746 0 0 1-14.873 25.76 29.746 29.746 0 0 1-29.746 0 29.746 29.746 0 0 1-14.873-25.76" stop-color="#000000"/> </g> <ellipse cx="158.75" cy="214.66" rx="19.446" ry="28.107" fill="#f39c11" fill-rule="evenodd" stop-color="#000000"/> <ellipse cx="158.75" cy="214.66" rx="19.446" ry="28.107" fill="none" stop-color="#000000" stroke="#2d3e50" stroke-linecap="round" stroke-width="7.4004"/> <g transform="matrix(.74319 0 0 .74319 53.765 46.928)" fill="#2d3e50" fill-rule="evenodd" font-family="Roboto" font-weight="bold" stroke-linecap="round" text-anchor="middle"> <text transform="rotate(-30)" x="74.416626" y="298" font-size="59.972px" stop-color="#000000" stroke-width="7.9375" text-align="center" style="line-height:2"><tspan x="74.416626" y="298" fill="#2d3e50" font-family="Roboto" font-weight="normal" stroke-width="7.9375">z</tspan></text> <text transform="rotate(-30)" x="113.37405" y="301.70416" font-size="84.429px" stop-color="#000000" stroke-width="11.174" text-align="center" style="line-height:2"><tspan x="113.37405" y="301.70416" fill="#2d3e50" font-family="Roboto" font-weight="normal" stroke-width="11.174">z</tspan></text> <text transform="rotate(-30)" x="152.10942" y="286.78903" font-size="59.972px" stop-color="#000000" stroke-width="7.9375" text-align="center" style="line-height:2"><tspan x="152.10942" y="286.78903" fill="#2d3e50" font-family="Roboto" font-weight="normal" stroke-width="7.9375">z</tspan></text> </g> </g> </svg>