<?xml version='1.0' encoding='utf-8'?>
<svg xmlns="http://www.w3.org/2000/svg" enable-background="new 0 0 500 500" version="1.1" viewBox="0 0 500 500"> <switch> <g> <circle cx="250" cy="250" r="250" fill="#FFE115"/> <path d="m400 292c0 36.02-12.76 69.12-34.02 95-27.5 33.56-69.28 55-115.98 55s-88.48-21.44-115.98-55c-21.26-25.88-34.02-58.98-34.02-95h300z"/> <path d="m365.98 387c-27.5 33.56-69.28 55-115.98 55s-88.48-21.44-115.98-55c27.52-33.56 69.28-55 115.98-55s88.46 21.44 115.98 55z" fill="#F13355"/> <path d="m113.97 209.88c-4.085 0-7.9199-2.5215-9.3975-6.583-1.8896-5.1894 0.78613-10.928 5.9766-12.816l58.508-21.297-40.699-36.995c-4.0859-3.7148-4.3887-10.039-0.67383-14.126 3.7148-4.0859 10.035-4.3936 14.127-0.67285l52.947 48.13c2.5918 2.3555 3.7617 5.8945 3.0859 9.331-0.67773 3.4356-3.1016 6.2676-6.3926 7.4648l-74.062 26.958c-1.1289 0.41115-2.2832 0.60647-3.4189 0.60647z"/> <path d="m386.03 209.88c-1.1367 0-2.291-0.19531-3.4199-0.60645l-74.062-26.958c-3.291-1.1973-5.7148-4.0293-6.3926-7.4648-0.67578-3.4365 0.49414-6.9756 3.0859-9.331l52.947-48.13c4.0879-3.7178 10.41-3.4131 14.127 0.67285 3.7148 4.0869 3.4121 10.411-0.67383 14.126l-40.699 36.995 58.508 21.297c5.1894 1.8887 7.8652 7.627 5.9766 12.816-1.4785 4.0605-5.3125 6.582-9.3965 6.583z"/> </g> </switch> </svg>