<svg width="25" height="24" viewBox="0 0 25 24" fill="none" xmlns="http://www.w3.org/2000/svg">
<g clip-path="url(#clip0_114992_20364)">
<path d="M11.9189 10.3733C11.9189 10.3733 10.3976 10.6578 11.6472 8.1689C12.5528 6.35557 12.4622 4.25779 11.6472 3.15557C10.3432 1.36001 7.77142 1.94668 8.04309 2.97779C8.94865 6.49779 6.90208 7.54668 5.83352 9.75112C4.74684 12.0089 4.87362 15.1911 5.36262 18.0356C5.67052 19.8133 6.46741 22 9.36521 22H13.3859L11.9189 10.3733Z" fill="#FFDD67"/>
<path d="M9.81763 21.5022C6.91983 21.5022 6.26783 19.3155 5.95994 17.5378C5.47093 14.6933 5.38038 12.4355 6.34027 10.1244C7.37262 7.63555 8.45929 7.56444 8.45929 2.62221C8.45929 2.37333 8.60418 2.21333 8.73096 2.10666C8.24196 2.26666 7.97029 2.53333 7.97029 2.94221C7.97029 6.63999 6.88361 7.54666 5.81505 9.76888C4.74648 12.0089 4.87326 15.1911 5.36227 18.0355C5.67016 19.8133 6.46705 22 9.36485 22H13.3856V21.5022H9.79952H9.81763Z" fill="#EBA352"/>
<path d="M16.8989 13.2711H11.9183C10.1796 13.2711 10.1796 10.3556 11.9183 10.3556H16.8989C18.6375 10.3556 18.6375 13.2711 16.8989 13.2711Z" fill="#FFDD67"/>
<path d="M17.2798 12.7911H12.2992C11.1219 12.7911 10.7416 11.4755 11.1582 10.6044C10.2345 11.2978 10.4699 13.2711 11.9007 13.2711H16.8813C17.4428 13.2711 17.8231 12.9689 18.0223 12.5422C17.8231 12.6844 17.5696 12.7911 17.2798 12.7911Z" fill="#EBA352"/>
<path d="M17.4246 16.1867H11.4478C9.36504 16.1867 9.36504 13.2711 11.4478 13.2711H17.4246C19.5073 13.2711 19.5073 16.1867 17.4246 16.1867Z" fill="#FFDD67"/>
<path d="M17.8951 15.7067H11.9184C10.5057 15.7067 10.0529 14.3911 10.5419 13.52C9.41903 14.2133 9.72692 16.1867 11.4475 16.1867H17.4242C18.0943 16.1867 18.5471 15.8844 18.8007 15.4578C18.5652 15.6 18.2573 15.7067 17.8951 15.7067Z" fill="#EBA352"/>
<path d="M16.8628 19.1022H11.8098C10.053 19.1022 10.053 16.1867 11.8098 16.1867H16.8628C18.6196 16.1867 18.6196 19.1022 16.8628 19.1022Z" fill="#FFDD67"/>
<path d="M17.2609 18.6222H12.2078C11.0125 18.6222 10.6321 17.3067 11.0487 16.4355C10.1069 17.1289 10.3605 19.1022 11.8094 19.1022H16.8624C17.442 19.1022 17.8223 18.8 18.0215 18.3733C17.8223 18.5155 17.5687 18.6222 17.2609 18.6222Z" fill="#EBA352"/>
<path d="M16.3192 22H13.0592C11.1756 22 11.1756 19.0844 13.0592 19.0844H16.3192C18.2028 19.0844 18.2028 22 16.3192 22Z" fill="#FFDD67"/>
<path d="M16.7546 21.52H13.4946C12.2268 21.52 11.8103 20.2045 12.2631 19.3333C11.2488 20.0267 11.5205 22 13.0781 22H16.3381C16.9539 22 17.3523 21.6978 17.5697 21.2711C17.3523 21.4133 17.0806 21.52 16.7546 21.52Z" fill="#EBA352"/>
</g>
<defs>
<clipPath id="clip0_114992_20364">
<rect width="20" height="20" fill="white" transform="translate(2 2)"/>
</clipPath>
</defs>
</svg>
